<?xml version="1.0" encoding="utf-8"?>
<!-- Generator: Adobe Illustrator 17.0.0, SVG Export Plug-In . SVG Version: 6.00 Build 0)  -->
<!DOCTYPE svg PUBLIC "-//W3C//DTD SVG 1.1//EN" "http://www.w3.org/Graphics/SVG/1.1/DTD/svg11.dtd">
<svg version="1.1" id="Layer_1" xmlns="http://www.w3.org/2000/svg" xmlns:xlink="http://www.w3.org/1999/xlink" x="0px" y="0px"
	 width="113.39px" height="56.69px" viewBox="0 0 113.39 56.69" enable-background="new 0 0 113.39 56.69" xml:space="preserve">
<g>
	<path fill="#FFFFFF" d="M27.76,13.529v29.356h4.047c0,0,0-20.923,0-24.557C31.807,14.693,27.76,13.529,27.76,13.529z"/>
	<path fill="#FFFFFF" d="M63.005,4.002v38.883h4.047c0,0,0-30.45,0-34.084C67.052,5.166,63.005,4.002,63.005,4.002z"/>
	<path fill="#FFFFFF" d="M41.598,13.557h-2.023l0.001,29.236h4.047c0,0-0.001-20.764-0.001-24.789
		c2.981,0.928,7.5,3.681,7.553,9.668v15.114h4.047V27.654C55.135,17.809,46.158,13.557,41.598,13.557z"/>
	<path fill="#FFFFFF" d="M83.855,11.465c-2.316,2.793-7.462,9.019-8.319,16.041h-3.438v3.372h3.356
		c0.527,8.817,5.8,15.097,6.036,15.372l3.078-2.627c-0.048-0.056-4.532-5.433-5.066-12.745h4.945v-3.372h-4.828
		c0.898-5.659,5.333-11.024,7.352-13.458l0.547-0.664l-3.141-2.552L83.855,11.465z"/>
	<path fill="#FFFFFF" d="M12.496,24.251c-0.016,1.136,0.029,2.17,0.11,3.138H8.713v3.372h4.348c0.187,1.004,0.397,1.934,0.599,2.819
		c0.565,2.471,1.053,4.605,0.773,7.449c-0.468,4.754-1.108,7.95-3.316,12.757h4.424c1.85-4.432,2.472-7.813,2.92-12.361
		c0.346-3.5-0.238-6.049-0.854-8.747c-0.144-0.627-0.287-1.261-0.422-1.917h4.865v-3.372h-5.38c-0.09-0.945-0.143-1.956-0.127-3.081
		c0.119-8.472,6.712-15.659,6.778-15.731l-0.4-0.374h-4.485C16.135,11.358,12.594,17.324,12.496,24.251z"/>
	<path fill="#FFFFFF" d="M104.925,8.202H99.42c-3.219,3.821-7.332,10.038-7.43,16.958c-0.056,3.984,0.593,6.823,1.165,9.329
		c0.565,2.471,1.053,4.605,0.773,7.449c-0.353,3.583-1.086,6.27-2.361,9.384h4.344c1.051-2.847,1.708-5.567,2.044-8.987
		c0.345-3.5-0.238-6.049-0.854-8.747c-0.547-2.395-1.113-4.871-1.064-8.371C96.144,17.606,102.496,10.604,104.925,8.202z"/>
</g>
</svg>
