<?xml version="1.0" encoding="utf-8"?>
<!-- Generator: Adobe Illustrator 17.0.0, SVG Export Plug-In . SVG Version: 6.00 Build 0)  -->
<!DOCTYPE svg PUBLIC "-//W3C//DTD SVG 1.1//EN" "http://www.w3.org/Graphics/SVG/1.1/DTD/svg11.dtd">
<svg version="1.1" id="Layer_1" xmlns="http://www.w3.org/2000/svg" xmlns:xlink="http://www.w3.org/1999/xlink" x="0px" y="0px"
	 width="1105.51px" height="481.89px" viewBox="0 0 1105.51 481.89" enable-background="new 0 0 1105.51 481.89"
	 xml:space="preserve">
<g>
	<g>
		<path fill="#8D96A6" d="M260.675,226.009c-12.314-11.631-28.432-18.277-45.381-18.715c-16.973-0.448-33.391,5.37-46.286,16.352
			l-0.648-0.762c13.085-11.141,29.763-17.031,46.96-16.59c17.197,0.444,33.548,7.188,46.043,18.988L260.675,226.009z"/>
		<circle fill="#8D96A6" cx="168.684" cy="223.265" r="3.051"/>
		<polygon fill="#8D96A6" points="259.441,219.368 261.95,226.401 254.605,225.058 		"/>
	</g>
	<g>
		<path fill="#8D96A6" d="M937.332,226.009c-12.314-11.631-28.432-18.277-45.381-18.715c-16.954-0.445-33.389,5.37-46.285,16.352
			l-0.648-0.762c13.085-11.141,29.772-17.031,46.959-16.59c17.196,0.444,33.548,7.188,46.043,18.988L937.332,226.009z"/>
		<circle fill="#8D96A6" cx="845.342" cy="223.265" r="3.051"/>
		<polygon fill="#8D96A6" points="936.098,219.368 938.608,226.401 931.263,225.058 		"/>
	</g>
	<g>
		<path fill="#8D96A6" d="M633.827,240.567c-16.554,0-32.521-5.862-45.149-16.612l0.648-0.762
			c12.898,10.981,29.358,16.782,46.286,16.351c16.949-0.437,33.066-7.083,45.381-18.714l0.688,0.727
			c-12.495,11.801-28.847,18.544-46.043,18.987C635.034,240.559,634.428,240.567,633.827,240.567z"/>
		<circle fill="#8D96A6" cx="589.002" cy="223.573" r="3.051"/>
		<polygon fill="#8D96A6" points="679.758,227.471 682.268,220.438 674.923,221.781 		"/>
	</g>
	<g>
		<circle fill="#8D96A6" cx="722.346" cy="294.601" r="2.956"/>
		<polygon fill="#8D96A6" points="517.178,462.833 510.916,459.212 517.183,455.6 		"/>
		<path fill="#8D96A6" d="M513.221,459.716v-1c49.159,0,95.409-16.173,133.75-46.771c37.216-29.699,63.812-71.399,74.889-117.419
			l0.973,0.234c-11.129,46.234-37.849,88.129-75.237,117.966C609.075,443.468,562.609,459.716,513.221,459.716z"/>
	</g>
	<g>
		<circle fill="#8D96A6" cx="723.033" cy="147.513" r="3.059"/>
		<path fill="#8D96A6" d="M722.547,147.586c-6.259-26.002-21.286-49.564-42.314-66.346c-21.665-17.288-47.798-26.427-75.574-26.427
			c-30.237,0-59.199,11.194-81.552,31.521l-0.672-0.74c22.536-20.494,51.737-31.781,82.224-31.781
			c28.006,0,54.354,9.214,76.197,26.646c21.202,16.919,36.354,40.676,42.664,66.893L722.547,147.586z"/>
		<polygon fill="#8D96A6" points="524.095,79.707 521.859,86.852 529.164,85.215 		"/>
	</g>
	<g>
		<linearGradient id="SVGID_1_" gradientUnits="userSpaceOnUse" x1="13.0446" y1="222.5034" x2="159.4398" y2="222.5034">
			<stop  offset="0" style="stop-color:#48BCE9"/>
			<stop  offset="1" style="stop-color:#3986C7"/>
		</linearGradient>
		<path fill="url(#SVGID_1_)" d="M148.01,173.644l-50.338-29.063c-7.072-4.084-15.787-4.084-22.859,0l-50.338,29.063
			c-7.073,4.084-11.43,11.63-11.43,19.797v58.125c0,8.167,4.357,15.713,11.43,19.797l50.338,29.063
			c3.536,2.042,7.483,3.063,11.43,3.063s7.894-1.021,11.43-3.063l50.338-29.063c7.073-4.084,11.43-11.63,11.43-19.797v-58.125
			C159.44,185.274,155.083,177.728,148.01,173.644z"/>
		<g>
			<path fill="#FFFFFF" d="M37.118,216.262h9.504v2.496h-6.758v2.657h5.956v2.496h-5.956v4.832h-2.746V216.262z"/>
			<path fill="#FFFFFF" d="M48.619,223.395v-7.133h2.746v7.061c0,2.033,1.016,3.085,2.692,3.085s2.692-1.016,2.692-2.995v-7.151
				h2.746v7.044c0,3.78-2.122,5.634-5.474,5.634C50.67,228.94,48.619,227.068,48.619,223.395z"/>
			<path fill="#FFFFFF" d="M62.295,216.262h2.532l5.848,7.685v-7.685h2.711v12.482H71.05l-6.045-7.935v7.935h-2.71V216.262z"/>
			<path fill="#FFFFFF" d="M76.382,216.262h4.868c3.923,0,6.633,2.693,6.633,6.241c0,3.513-2.71,6.241-6.633,6.241h-4.868V216.262z
				 M81.249,226.266c2.247,0,3.762-1.516,3.762-3.762c0-2.211-1.515-3.762-3.762-3.762h-2.122v7.525H81.249z"/>
			<path fill="#FFFFFF" d="M89.772,222.504c0-3.548,2.674-6.455,6.508-6.455c2.353,0,3.673,0.891,4.832,2.033l-1.64,1.89
				c-0.963-0.874-1.783-1.391-3.21-1.391c-2.104,0-3.62,1.748-3.62,3.923c0,2.14,1.48,3.923,3.62,3.923
				c1.426,0,2.3-0.571,3.281-1.462l1.748,1.873c-1.284,1.373-2.71,2.122-5.117,2.122C92.501,228.958,89.772,226.123,89.772,222.504z
				"/>
			<path fill="#FFFFFF" d="M102.575,222.504c0-3.548,2.799-6.455,6.651-6.455c3.852,0,6.615,2.871,6.615,6.455
				c0,3.548-2.799,6.455-6.651,6.455C105.339,228.958,102.575,226.087,102.575,222.504z M112.971,222.504
				c0-2.14-1.57-3.923-3.78-3.923c-2.211,0-3.744,1.748-3.744,3.923c0,2.14,1.569,3.923,3.78,3.923
				C111.437,226.426,112.971,224.679,112.971,222.504z"/>
			<path fill="#FFFFFF" d="M118.409,216.262h2.746v12.482h-2.746V216.262z"/>
			<path fill="#FFFFFF" d="M124.275,216.262h2.532l5.848,7.685v-7.685h2.711v12.482h-2.336l-6.045-7.935v7.935h-2.71V216.262z"/>
		</g>
	</g>
	<g>
		<path fill="#32445F" d="M176.451,186.968h1.05v9.303h-1.05V186.968z"/>
		<path fill="#32445F" d="M180.054,189.4h1.023v1.196c0.452-0.745,1.17-1.342,2.353-1.342c1.661,0,2.632,1.116,2.632,2.751v4.266
			h-1.023v-4.014c0-1.276-0.691-2.073-1.9-2.073c-1.183,0-2.061,0.864-2.061,2.153v3.934h-1.023V189.4z"/>
		<path fill="#32445F" d="M187.302,189.4h1.13l2.312,5.702l2.326-5.702h1.103l-2.99,6.924h-0.903L187.302,189.4z"/>
		<path fill="#32445F" d="M198.416,195.54c0.944,0,1.608-0.385,2.167-0.97l0.638,0.571c-0.691,0.771-1.528,1.29-2.831,1.29
			c-1.887,0-3.429-1.449-3.429-3.588c0-1.994,1.396-3.588,3.296-3.588c2.033,0,3.203,1.621,3.203,3.641c0,0.093,0,0.2-0.014,0.359
			h-5.449C196.144,194.703,197.207,195.54,198.416,195.54z M200.423,192.43c-0.119-1.25-0.837-2.312-2.192-2.312
			c-1.183,0-2.087,0.983-2.233,2.312H200.423z"/>
		<path fill="#32445F" d="M202.687,195.394l0.519-0.731c0.744,0.558,1.568,0.877,2.379,0.877c0.824,0,1.422-0.425,1.422-1.116
			c0-0.691-0.811-0.957-1.714-1.209c-1.077-0.306-2.273-0.678-2.273-1.967c0-1.183,0.984-1.967,2.34-1.967
			c0.837,0,1.768,0.292,2.472,0.757l-0.465,0.771c-0.639-0.412-1.369-0.665-2.034-0.665c-0.811,0-1.328,0.425-1.328,1.023
			c0,0.651,0.851,0.904,1.768,1.183c1.062,0.319,2.206,0.731,2.206,1.994c0,1.303-1.077,2.06-2.445,2.06
			C204.548,196.404,203.458,196.019,202.687,195.394z"/>
		<path fill="#32445F" d="M210.106,194.45v-4.146h-0.957V189.4h0.957v-2.073h1.023v2.073h2.18v0.904h-2.18v4.014
			c0,0.837,0.465,1.143,1.156,1.143c0.346,0,0.638-0.066,0.997-0.239v0.877c-0.359,0.186-0.745,0.292-1.236,0.292
			C210.943,196.391,210.106,195.846,210.106,194.45z"/>
		<path fill="#32445F" d="M215.119,189.4h1.023v1.156c0.452-0.678,1.063-1.302,2.22-1.302c1.116,0,1.834,0.598,2.206,1.369
			c0.492-0.757,1.223-1.369,2.419-1.369c1.582,0,2.552,1.063,2.552,2.764v4.253h-1.023v-4.014c0-1.329-0.664-2.073-1.78-2.073
			c-1.037,0-1.901,0.771-1.901,2.126v3.96h-1.01v-4.041c0-1.289-0.678-2.046-1.768-2.046s-1.914,0.904-1.914,2.166v3.921h-1.023
			V189.4z"/>
		<path fill="#32445F" d="M230.796,195.54c0.944,0,1.608-0.385,2.167-0.97l0.638,0.571c-0.691,0.771-1.528,1.29-2.831,1.29
			c-1.887,0-3.429-1.449-3.429-3.588c0-1.994,1.396-3.588,3.296-3.588c2.033,0,3.203,1.621,3.203,3.641c0,0.093,0,0.2-0.014,0.359
			h-5.449C228.523,194.703,229.587,195.54,230.796,195.54z M232.803,192.43c-0.119-1.25-0.837-2.312-2.192-2.312
			c-1.183,0-2.087,0.983-2.233,2.312H232.803z"/>
		<path fill="#32445F" d="M235.638,189.4h1.023v1.196c0.452-0.745,1.17-1.342,2.353-1.342c1.661,0,2.632,1.116,2.632,2.751v4.266
			h-1.023v-4.014c0-1.276-0.691-2.073-1.9-2.073c-1.183,0-2.061,0.864-2.061,2.153v3.934h-1.023V189.4z"/>
		<path fill="#32445F" d="M244.188,194.45v-4.146h-0.957V189.4h0.957v-2.073h1.023v2.073h2.18v0.904h-2.18v4.014
			c0,0.837,0.465,1.143,1.156,1.143c0.346,0,0.638-0.066,0.996-0.239v0.877c-0.358,0.186-0.744,0.292-1.235,0.292
			C245.024,196.391,244.188,195.846,244.188,194.45z"/>
		<path fill="#32445F" d="M248.63,195.394l0.519-0.731c0.744,0.558,1.568,0.877,2.379,0.877c0.824,0,1.422-0.425,1.422-1.116
			c0-0.691-0.811-0.957-1.714-1.209c-1.077-0.306-2.273-0.678-2.273-1.967c0-1.183,0.984-1.967,2.34-1.967
			c0.837,0,1.768,0.292,2.472,0.757l-0.465,0.771c-0.639-0.412-1.369-0.665-2.034-0.665c-0.811,0-1.328,0.425-1.328,1.023
			c0,0.651,0.851,0.904,1.768,1.183c1.062,0.319,2.206,0.731,2.206,1.994c0,1.303-1.077,2.06-2.445,2.06
			C250.491,196.404,249.401,196.019,248.63,195.394z"/>
	</g>
	<g>
		<path fill="#32445F" d="M400.464,27.211h3.482c2.1,0,3.482,1.116,3.482,2.977c0,2.007-1.675,3.043-3.655,3.043h-2.26v3.283h-1.05
			V27.211z M403.813,32.274c1.542,0,2.552-0.824,2.552-2.073c0-1.329-0.997-2.02-2.499-2.02h-2.353v4.093H403.813z"/>
		<path fill="#32445F" d="M408.749,33.085c0-1.94,1.515-3.589,3.588-3.589c2.061,0,3.575,1.622,3.575,3.589
			c0,1.94-1.528,3.588-3.602,3.588C410.251,36.674,408.749,35.052,408.749,33.085z M414.862,33.085c0-1.476-1.103-2.685-2.552-2.685
			c-1.488,0-2.512,1.209-2.512,2.685c0,1.475,1.09,2.671,2.538,2.671C413.826,35.757,414.862,34.561,414.862,33.085z"/>
		<path fill="#32445F" d="M417.764,29.643h1.023v1.794c0.505-1.143,1.502-1.967,2.805-1.914v1.103h-0.08
			c-1.502,0-2.725,1.077-2.725,3.15v2.738h-1.023V29.643z"/>
		<path fill="#32445F" d="M423.509,34.693v-4.146h-0.957v-0.904h0.957V27.57h1.023v2.073h2.18v0.904h-2.18v4.014
			c0,0.837,0.465,1.143,1.156,1.143c0.346,0,0.638-0.066,0.996-0.239v0.877c-0.358,0.186-0.744,0.292-1.235,0.292
			C424.346,36.634,423.509,36.089,423.509,34.693z"/>
		<path fill="#32445F" d="M427.897,33.085c0-1.94,1.515-3.589,3.588-3.589c2.061,0,3.575,1.622,3.575,3.589
			c0,1.94-1.528,3.588-3.602,3.588C429.399,36.674,427.897,35.052,427.897,33.085z M434.011,33.085c0-1.476-1.103-2.685-2.552-2.685
			c-1.488,0-2.512,1.209-2.512,2.685c0,1.475,1.09,2.671,2.538,2.671C432.975,35.757,434.011,34.561,434.011,33.085z"/>
		<path fill="#32445F" d="M437.006,26.812h1.023v9.702h-1.023V26.812z"/>
		<path fill="#32445F" d="M440.437,27.012h1.169v1.129h-1.169V27.012z M440.503,29.643h1.023v6.871h-1.023V29.643z"/>
		<path fill="#32445F" d="M443.481,33.085c0-1.94,1.515-3.589,3.588-3.589c2.061,0,3.575,1.622,3.575,3.589
			c0,1.94-1.528,3.588-3.602,3.588C444.983,36.674,443.481,35.052,443.481,33.085z M449.595,33.085c0-1.476-1.103-2.685-2.552-2.685
			c-1.488,0-2.512,1.209-2.512,2.685c0,1.475,1.09,2.671,2.538,2.671C448.559,35.757,449.595,34.561,449.595,33.085z"/>
	</g>
	<g>
		<path fill="#32445F" d="M439.37,455.803l-1.754,0.545l-0.253-0.85l2.272-0.785h0.771v9.37h-1.037V455.803z"/>
		<path fill="#32445F" d="M442.576,459.432c0-2.605,1.555-4.812,3.947-4.812c2.392,0,3.907,2.18,3.907,4.812
			c0,2.604-1.542,4.811-3.934,4.811C444.09,464.242,442.576,462.062,442.576,459.432z M449.34,459.432
			c0-2.033-1.116-3.854-2.844-3.854c-1.741,0-2.831,1.78-2.831,3.854c0,2.033,1.116,3.854,2.857,3.854
			S449.34,461.491,449.34,459.432z"/>
		<path fill="#32445F" d="M451.95,457.053c0-1.263,0.851-2.379,2.126-2.379c1.249,0,2.087,1.103,2.087,2.379
			c0,1.262-0.851,2.379-2.113,2.379S451.95,458.328,451.95,457.053z M455.286,457.053c0-0.931-0.559-1.635-1.236-1.635
			c-0.731,0-1.209,0.73-1.209,1.635c0,0.93,0.545,1.635,1.235,1.635C454.793,458.688,455.286,457.969,455.286,457.053z
			 M459.738,454.779h0.943l-6.818,9.304h-0.956L459.738,454.779z M457.438,461.811c0-1.263,0.851-2.379,2.113-2.379
			s2.087,1.104,2.087,2.379c0,1.262-0.837,2.379-2.113,2.379C458.276,464.189,457.438,463.086,457.438,461.811z M460.761,461.811
			c0-0.931-0.545-1.635-1.236-1.635c-0.718,0-1.209,0.73-1.209,1.635c0,0.93,0.545,1.635,1.235,1.635
			C460.283,463.445,460.761,462.728,460.761,461.811z"/>
		<path fill="#32445F" d="M467.654,454.779h6.686v0.971h-5.636v3.322h5.037v0.957h-5.037v4.054h-1.05V454.779z"/>
		<path fill="#32445F" d="M476.376,454.779h6.726v0.957h-5.676v3.177h5.077v0.957h-5.077v3.256h5.742v0.957h-6.792V454.779z"/>
		<path fill="#32445F" d="M485.286,454.779h6.726v0.957h-5.676v3.177h5.077v0.957h-5.077v3.256h5.742v0.957h-6.792V454.779z"/>
		<path fill="#32445F" d="M493.583,462.728l0.651-0.771c0.971,0.877,1.9,1.315,3.189,1.315c1.25,0,2.073-0.665,2.073-1.608
			c0-0.863-0.465-1.355-2.418-1.768c-2.141-0.465-3.124-1.156-3.124-2.711c0-1.463,1.289-2.539,3.058-2.539
			c1.355,0,2.325,0.386,3.269,1.144l-0.611,0.811c-0.863-0.704-1.728-1.011-2.685-1.011c-1.209,0-1.979,0.665-1.979,1.529
			c0,0.877,0.478,1.369,2.524,1.807c2.073,0.453,3.03,1.21,3.03,2.658c0,1.596-1.329,2.632-3.176,2.632
			C495.91,464.216,494.7,463.725,493.583,462.728z"/>
	</g>
	<g>
		<path fill="#32445F" d="M592.615,26.853l3.375-2.977c1.436-1.263,1.941-1.994,1.941-2.924c0-1.09-0.865-1.781-1.875-1.781
			c-1.062,0-1.754,0.558-2.498,1.595l-0.771-0.558c0.838-1.249,1.715-1.98,3.35-1.98c1.676,0,2.885,1.116,2.885,2.658
			c0,1.356-0.732,2.18-2.354,3.615l-2.484,2.206h4.93v0.957h-6.498V26.853z"/>
		<path fill="#32445F" d="M600.766,23.012c0-2.604,1.555-4.811,3.947-4.811s3.908,2.18,3.908,4.811c0,2.605-1.543,4.812-3.934,4.812
			C602.281,27.823,600.766,25.644,600.766,23.012z M607.531,23.012c0-2.033-1.117-3.854-2.844-3.854
			c-1.742,0-2.832,1.781-2.832,3.854c0,2.034,1.117,3.854,2.857,3.854C606.455,26.866,607.531,25.072,607.531,23.012z"/>
		<path fill="#32445F" d="M610.314,23.131h3.693v1.077h-3.693V23.131z"/>
		<path fill="#32445F" d="M615.686,23.251c0-2.831,1.436-5.05,3.869-5.05c1.115,0,1.939,0.399,2.75,1.063l-0.611,0.811
			c-0.691-0.585-1.342-0.917-2.193-0.917c-1.674,0-2.725,1.688-2.725,4.067v0.04c0.506-0.745,1.289-1.422,2.645-1.422
			c1.729,0,3.217,1.117,3.217,2.884c0,1.794-1.449,3.097-3.336,3.097C617.215,27.823,615.686,26.561,615.686,23.251z M621.561,24.74
			c0-1.143-0.93-1.994-2.273-1.994c-1.395,0-2.324,0.997-2.324,2.06c0,1.183,0.982,2.086,2.352,2.086S621.561,25.949,621.561,24.74z
			"/>
		<path fill="#32445F" d="M624.303,23.012c0-2.604,1.555-4.811,3.947-4.811s3.908,2.18,3.908,4.811c0,2.605-1.543,4.812-3.934,4.812
			C625.818,27.823,624.303,25.644,624.303,23.012z M631.068,23.012c0-2.033-1.117-3.854-2.844-3.854
			c-1.742,0-2.832,1.781-2.832,3.854c0,2.034,1.117,3.854,2.857,3.854C629.992,26.866,631.068,25.072,631.068,23.012z"/>
		<path fill="#32445F" d="M633.678,20.633c0-1.263,0.85-2.379,2.125-2.379c1.25,0,2.088,1.103,2.088,2.379
			c0,1.263-0.852,2.379-2.113,2.379C634.514,23.012,633.678,21.909,633.678,20.633z M637.014,20.633c0-0.93-0.559-1.635-1.236-1.635
			c-0.732,0-1.209,0.731-1.209,1.635c0,0.931,0.545,1.635,1.234,1.635C636.521,22.268,637.014,21.55,637.014,20.633z M641.465,18.36
			h0.943l-6.818,9.303h-0.955L641.465,18.36z M639.166,25.391c0-1.263,0.85-2.379,2.113-2.379c1.262,0,2.086,1.104,2.086,2.379
			c0,1.262-0.836,2.379-2.113,2.379C640.004,27.77,639.166,26.667,639.166,25.391z M642.488,25.391c0-0.931-0.545-1.635-1.236-1.635
			c-0.717,0-1.209,0.731-1.209,1.635c0,0.93,0.545,1.634,1.236,1.634C642.01,27.025,642.488,26.308,642.488,25.391z"/>
		<path fill="#32445F" d="M572.775,34.317h4c1.143,0,2.061,0.346,2.645,0.93c0.453,0.452,0.719,1.103,0.719,1.861
			c0,1.542-1.064,2.445-2.525,2.711l2.857,3.801h-1.289l-2.699-3.615h-2.658v3.615h-1.049V34.317z M576.682,39.062
			c1.396,0,2.393-0.718,2.393-1.94c0-1.143-0.877-1.834-2.379-1.834h-2.871v3.774H576.682z"/>
		<path fill="#32445F" d="M585.113,42.89c0.945,0,1.609-0.385,2.168-0.97l0.637,0.571c-0.691,0.771-1.527,1.29-2.83,1.29
			c-1.887,0-3.43-1.449-3.43-3.588c0-1.994,1.396-3.588,3.297-3.588c2.033,0,3.203,1.621,3.203,3.641c0,0.093,0,0.2-0.014,0.359
			h-5.449C582.842,42.052,583.904,42.89,585.113,42.89z M587.121,39.78c-0.119-1.25-0.838-2.312-2.193-2.312
			c-1.182,0-2.086,0.983-2.232,2.312H587.121z"/>
		<path fill="#32445F" d="M589.982,34.118h1.17v1.129h-1.17V34.118z M590.049,36.75h1.023v6.871h-1.023V36.75z"/>
		<path fill="#32445F" d="M593.453,36.75h1.023v1.196c0.451-0.745,1.17-1.342,2.352-1.342c1.662,0,2.633,1.116,2.633,2.751v4.266
			h-1.023v-4.014c0-1.276-0.691-2.073-1.9-2.073c-1.184,0-2.061,0.864-2.061,2.153v3.934h-1.023V36.75z"/>
		<path fill="#32445F" d="M600.699,36.75h1.131l2.312,5.702l2.326-5.702h1.102l-2.99,6.924h-0.902L600.699,36.75z"/>
		<path fill="#32445F" d="M612.602,42.744l0.518-0.731c0.744,0.558,1.568,0.877,2.379,0.877c0.824,0,1.422-0.425,1.422-1.116
			c0-0.691-0.811-0.957-1.713-1.209c-1.078-0.306-2.273-0.678-2.273-1.967c0-1.183,0.984-1.967,2.34-1.967
			c0.836,0,1.768,0.292,2.471,0.757l-0.465,0.771c-0.639-0.412-1.369-0.665-2.033-0.665c-0.811,0-1.328,0.425-1.328,1.023
			c0,0.651,0.85,0.904,1.768,1.183c1.062,0.319,2.205,0.731,2.205,1.994c0,1.303-1.076,2.06-2.445,2.06
			C614.463,43.753,613.373,43.368,612.602,42.744z"/>
		<path fill="#32445F" d="M620.021,41.8v-4.146h-0.957V36.75h0.957v-2.073h1.023v2.073h2.18v0.904h-2.18v4.014
			c0,0.837,0.465,1.143,1.156,1.143c0.346,0,0.637-0.066,0.996-0.239v0.877c-0.359,0.186-0.744,0.292-1.236,0.292
			C620.857,43.74,620.021,43.195,620.021,41.8z"/>
		<path fill="#32445F" d="M625.033,36.75h1.023v1.156c0.453-0.678,1.064-1.302,2.221-1.302c1.115,0,1.834,0.598,2.205,1.369
			c0.492-0.757,1.223-1.369,2.42-1.369c1.582,0,2.551,1.063,2.551,2.764v4.253h-1.023v-4.014c0-1.329-0.664-2.073-1.779-2.073
			c-1.037,0-1.902,0.771-1.902,2.126v3.96h-1.01V39.58c0-1.289-0.678-2.046-1.768-2.046s-1.914,0.904-1.914,2.166v3.921h-1.023
			V36.75z"/>
		<path fill="#32445F" d="M640.709,42.89c0.945,0,1.609-0.385,2.168-0.97l0.637,0.571c-0.691,0.771-1.527,1.29-2.83,1.29
			c-1.887,0-3.43-1.449-3.43-3.588c0-1.994,1.396-3.588,3.297-3.588c2.033,0,3.203,1.621,3.203,3.641c0,0.093,0,0.2-0.014,0.359
			h-5.449C638.438,42.052,639.5,42.89,640.709,42.89z M642.717,39.78c-0.119-1.25-0.838-2.312-2.193-2.312
			c-1.182,0-2.086,0.983-2.232,2.312H642.717z"/>
		<path fill="#32445F" d="M645.551,36.75h1.023v1.196c0.453-0.745,1.17-1.342,2.354-1.342c1.66,0,2.631,1.116,2.631,2.751v4.266
			h-1.023v-4.014c0-1.276-0.691-2.073-1.9-2.073c-1.182,0-2.061,0.864-2.061,2.153v3.934h-1.023V36.75z"/>
		<path fill="#32445F" d="M654.102,41.8v-4.146h-0.957V36.75h0.957v-2.073h1.023v2.073h2.18v0.904h-2.18v4.014
			c0,0.837,0.465,1.143,1.156,1.143c0.346,0,0.639-0.066,0.998-0.239v0.877c-0.359,0.186-0.746,0.292-1.236,0.292
			C654.939,43.74,654.102,43.195,654.102,41.8z"/>
		<path fill="#32445F" d="M658.543,42.744l0.52-0.731c0.744,0.558,1.568,0.877,2.379,0.877c0.824,0,1.422-0.425,1.422-1.116
			c0-0.691-0.811-0.957-1.715-1.209c-1.076-0.306-2.273-0.678-2.273-1.967c0-1.183,0.984-1.967,2.34-1.967
			c0.838,0,1.768,0.292,2.473,0.757l-0.465,0.771c-0.639-0.412-1.369-0.665-2.035-0.665c-0.811,0-1.328,0.425-1.328,1.023
			c0,0.651,0.852,0.904,1.768,1.183c1.062,0.319,2.207,0.731,2.207,1.994c0,1.303-1.078,2.06-2.445,2.06
			C660.404,43.753,659.314,43.368,658.543,42.744z"/>
	</g>
	<g>
		<path fill="#32445F" d="M866.778,162.82l0.758-0.678c0.718,0.877,1.582,1.382,2.725,1.382c1.13,0,2.033-0.718,2.033-1.834
			c0-1.156-1.076-1.794-2.604-1.794h-0.599l-0.212-0.625l2.937-3.31h-4.545v-0.943h5.94v0.771l-2.924,3.243
			c1.622,0.133,3.07,0.917,3.07,2.645c0,1.662-1.382,2.805-3.109,2.805C868.692,164.482,867.536,163.804,866.778,162.82z"/>
		<path fill="#32445F" d="M875.09,159.67c0-2.604,1.555-4.811,3.947-4.811c2.392,0,3.907,2.18,3.907,4.811
			c0,2.605-1.542,4.812-3.934,4.812C876.604,164.482,875.09,162.302,875.09,159.67z M881.854,159.67
			c0-2.033-1.116-3.854-2.844-3.854c-1.741,0-2.831,1.781-2.831,3.854c0,2.034,1.116,3.854,2.857,3.854
			S881.854,161.73,881.854,159.67z"/>
		<path fill="#32445F" d="M884.638,159.79h3.694v1.077h-3.694V159.79z"/>
		<path fill="#32445F" d="M894.688,155.976h-5.117v-0.957h6.313v0.784l-4.227,8.519h-1.17L894.688,155.976z"/>
		<path fill="#32445F" d="M897.15,159.67c0-2.604,1.555-4.811,3.947-4.811c2.392,0,3.907,2.18,3.907,4.811
			c0,2.605-1.542,4.812-3.934,4.812C898.665,164.482,897.15,162.302,897.15,159.67z M903.915,159.67
			c0-2.033-1.116-3.854-2.844-3.854c-1.741,0-2.831,1.781-2.831,3.854c0,2.034,1.116,3.854,2.857,3.854
			S903.915,161.73,903.915,159.67z"/>
		<path fill="#32445F" d="M906.525,157.292c0-1.263,0.851-2.379,2.126-2.379c1.249,0,2.087,1.103,2.087,2.379
			c0,1.263-0.851,2.379-2.113,2.379S906.525,158.567,906.525,157.292z M909.861,157.292c0-0.93-0.559-1.635-1.236-1.635
			c-0.731,0-1.209,0.731-1.209,1.635c0,0.931,0.544,1.635,1.235,1.635C909.369,158.926,909.861,158.208,909.861,157.292z
			 M914.313,155.019h0.943l-6.818,9.303h-0.956L914.313,155.019z M912.014,162.05c0-1.263,0.851-2.379,2.113-2.379
			s2.087,1.104,2.087,2.379c0,1.262-0.837,2.379-2.113,2.379C912.852,164.429,912.014,163.326,912.014,162.05z M915.337,162.05
			c0-0.931-0.545-1.635-1.236-1.635c-0.718,0-1.209,0.731-1.209,1.635c0,0.93,0.545,1.634,1.235,1.634
			C914.858,163.684,915.337,162.967,915.337,162.05z"/>
		<path fill="#32445F" d="M860.888,170.976h6.686v0.97h-5.636v3.323h5.037v0.957h-5.037v4.054h-1.05V170.976z"/>
		<path fill="#32445F" d="M869.332,177.674v-4.266h1.022v4.014c0,1.276,0.691,2.073,1.901,2.073c1.169,0,2.06-0.864,2.06-2.153
			v-3.934h1.01v6.871h-1.01v-1.196c-0.465,0.745-1.17,1.342-2.353,1.342C870.302,180.425,869.332,179.309,869.332,177.674z"/>
		<path fill="#32445F" d="M877.629,173.408h1.023v1.196c0.452-0.745,1.17-1.342,2.353-1.342c1.661,0,2.632,1.116,2.632,2.751v4.266
			h-1.023v-4.014c0-1.276-0.691-2.073-1.9-2.073c-1.183,0-2.061,0.864-2.061,2.153v3.934h-1.023V173.408z"/>
		<path fill="#32445F" d="M885.422,176.837c0-2.246,1.635-3.575,3.283-3.575c1.275,0,2.1,0.691,2.631,1.462v-4.147h1.023v9.702
			h-1.023v-1.382c-0.558,0.824-1.368,1.528-2.631,1.528C887.057,180.425,885.422,179.123,885.422,176.837z M891.376,176.824
			c0-1.582-1.209-2.645-2.485-2.645c-1.329,0-2.419,0.983-2.419,2.671c0,1.621,1.116,2.658,2.419,2.658
			C890.167,179.508,891.376,178.432,891.376,176.824z"/>
		<path fill="#32445F" d="M894.41,175.627c0-2.631,1.968-4.811,4.705-4.811c1.688,0,2.672,0.625,3.602,1.502l-0.69,0.744
			c-0.784-0.744-1.662-1.276-2.924-1.276c-2.061,0-3.603,1.675-3.603,3.841c0,2.153,1.556,3.841,3.603,3.841
			c1.275,0,2.112-0.492,3.003-1.342l0.691,0.731c-0.971,0.983-2.033,1.582-3.722,1.582
			C896.391,180.439,894.41,178.326,894.41,175.627z"/>
		<path fill="#32445F" d="M903.905,176.851c0-1.94,1.515-3.588,3.588-3.588c2.061,0,3.575,1.621,3.575,3.588
			c0,1.94-1.528,3.588-3.602,3.588C905.407,180.439,903.905,178.817,903.905,176.851z M910.019,176.851
			c0-1.476-1.103-2.685-2.552-2.685c-1.488,0-2.512,1.209-2.512,2.685c0,1.475,1.09,2.671,2.538,2.671
			C908.982,179.522,910.019,178.326,910.019,176.851z"/>
		<path fill="#32445F" d="M912.948,170.777h1.169v1.129h-1.169V170.777z M913.015,173.408h1.023v6.871h-1.023V173.408z"/>
		<path fill="#32445F" d="M916.418,173.408h1.023v1.196c0.452-0.745,1.17-1.342,2.353-1.342c1.661,0,2.632,1.116,2.632,2.751v4.266
			h-1.023v-4.014c0-1.276-0.691-2.073-1.9-2.073c-1.183,0-2.061,0.864-2.061,2.153v3.934h-1.023V173.408z"/>
		<path fill="#32445F" d="M861.553,186.933h3.961c1.063,0,1.914,0.292,2.432,0.824c0.386,0.399,0.599,0.891,0.599,1.515
			c0,1.209-0.744,1.834-1.476,2.153c1.104,0.332,1.994,0.97,1.994,2.272c0,1.595-1.343,2.539-3.376,2.539h-4.134V186.933z
			 M865.341,191.08c1.263,0,2.14-0.571,2.14-1.688c0-0.917-0.73-1.515-2.06-1.515h-2.831v3.203H865.341z M865.713,195.292
			c1.409,0,2.286-0.625,2.286-1.688c0-1.01-0.851-1.595-2.472-1.595h-2.938v3.283H865.713z"/>
		<path fill="#32445F" d="M870.875,193.631v-4.266h1.022v4.014c0,1.276,0.691,2.073,1.901,2.073c1.169,0,2.06-0.864,2.06-2.153
			v-3.934h1.01v6.871h-1.01v-1.196c-0.465,0.745-1.17,1.342-2.353,1.342C871.845,196.382,870.875,195.266,870.875,193.631z"/>
		<path fill="#32445F" d="M878.773,198.057l0.346-0.811c0.332,0.172,0.638,0.252,1.076,0.252c0.611,0,0.997-0.319,1.409-1.289
			l-3.123-6.845h1.13l2.498,5.728l2.206-5.728h1.09l-2.884,7.097c-0.585,1.422-1.249,1.94-2.286,1.94
			C879.664,198.403,879.238,198.283,878.773,198.057z"/>
		<path fill="#32445F" d="M886.553,191.704h3.694v1.077h-3.694V191.704z"/>
		<path fill="#32445F" d="M893.279,194.92v1.316h-1.023v-9.702h1.023v4.213c0.559-0.824,1.369-1.528,2.632-1.528
			c1.648,0,3.283,1.302,3.283,3.588c0,2.246-1.622,3.575-3.283,3.575C894.635,196.382,893.812,195.691,893.279,194.92z
			 M898.144,192.794c0-1.621-1.116-2.658-2.419-2.658c-1.275,0-2.485,1.076-2.485,2.671c0,1.595,1.21,2.658,2.485,2.658
			C897.054,195.465,898.144,194.482,898.144,192.794z"/>
		<path fill="#32445F" d="M900.568,194.216c0-1.476,1.195-2.246,2.937-2.246c0.878,0,1.489,0.12,2.101,0.292v-0.213
			c0-1.223-0.745-1.861-2.034-1.861c-0.811,0-1.448,0.2-2.086,0.492l-0.306-0.837c0.757-0.346,1.488-0.585,2.498-0.585
			c0.971,0,1.728,0.266,2.22,0.758c0.479,0.478,0.718,1.143,0.718,2.02v4.2h-1.01v-1.023c-0.479,0.611-1.263,1.169-2.473,1.169
			C901.844,196.382,900.568,195.651,900.568,194.216z M905.618,193.711v-0.638c-0.505-0.146-1.169-0.292-2.007-0.292
			c-1.275,0-2.007,0.558-2.007,1.409c0,0.864,0.798,1.369,1.728,1.369C904.595,195.559,905.618,194.801,905.618,193.711z"/>
		<path fill="#32445F" d="M908.36,192.808c0-1.94,1.515-3.588,3.521-3.588c1.303,0,2.113,0.544,2.752,1.223l-0.651,0.691
			c-0.545-0.571-1.184-1.01-2.113-1.01c-1.396,0-2.459,1.183-2.459,2.685c0,1.488,1.09,2.671,2.525,2.671
			c0.877,0,1.528-0.452,2.073-1.037l0.678,0.625c-0.691,0.771-1.516,1.329-2.805,1.329
			C909.875,196.396,908.36,194.761,908.36,192.808z"/>
		<path fill="#32445F" d="M916.378,186.534h1.023v6.699l3.708-3.868h1.276l-2.884,2.95l2.977,3.921h-1.223l-2.459-3.203
			l-1.396,1.409v1.794h-1.023V186.534z"/>
	</g>
	<g>
		<linearGradient id="SVGID_2_" gradientUnits="userSpaceOnUse" x1="946.7112" y1="222.5034" x2="1093.1064" y2="222.5034">
			<stop  offset="0" style="stop-color:#48BCE9"/>
			<stop  offset="1" style="stop-color:#3986C7"/>
		</linearGradient>
		<path fill="url(#SVGID_2_)" d="M1081.677,173.644l-50.338-29.063c-7.072-4.084-15.787-4.084-22.859,0l-50.338,29.063
			c-7.073,4.084-11.43,11.63-11.43,19.797v58.125c0,8.167,4.357,15.713,11.43,19.797l50.338,29.063
			c3.536,2.042,7.483,3.063,11.43,3.063c3.947,0,7.894-1.021,11.43-3.063l50.338-29.063c7.073-4.084,11.43-11.63,11.43-19.797
			v-58.125C1093.106,185.274,1088.75,177.728,1081.677,173.644z"/>
		<g>
			<path fill="#FFFFFF" d="M993.858,211.912c0-3.548,2.799-6.455,6.651-6.455c3.852,0,6.615,2.871,6.615,6.455
				c0,3.548-2.799,6.455-6.651,6.455C996.622,218.367,993.858,215.496,993.858,211.912z M1004.254,211.912
				c0-2.14-1.57-3.923-3.78-3.923c-2.211,0-3.744,1.748-3.744,3.923c0,2.14,1.569,3.922,3.78,3.922
				C1002.72,215.835,1004.254,214.088,1004.254,211.912z"/>
			<path fill="#FFFFFF" d="M1009.567,205.671h5.1c2.978,0,4.779,1.766,4.779,4.351c0,2.889-2.247,4.387-5.046,4.387h-2.086v3.744
				h-2.746V205.671z M1014.488,211.965c1.373,0,2.175-0.82,2.175-1.926c0-1.23-0.856-1.89-2.229-1.89h-2.122v3.816H1014.488z"/>
			<path fill="#FFFFFF" d="M1021.478,205.671h9.415v2.443h-6.686v2.532h5.884v2.443h-5.884v2.621h6.776v2.443h-9.504V205.671z"/>
			<path fill="#FFFFFF" d="M1033.424,205.671h2.532l5.848,7.685v-7.685h2.711v12.482h-2.336l-6.045-7.935v7.935h-2.71V205.671z"/>
			<path fill="#FFFFFF" d="M981.475,227.068h2.96l3.281,5.278l3.281-5.278h2.96v12.482h-2.728v-8.149l-3.513,5.332h-0.071
				l-3.477-5.278v8.095h-2.692V227.068z"/>
			<path fill="#FFFFFF" d="M1001.231,226.979h2.532l5.349,12.571h-2.871l-1.141-2.799h-5.278l-1.141,2.799h-2.8L1001.231,226.979z
				 M1004.12,234.326l-1.658-4.048l-1.659,4.048H1004.12z"/>
			<path fill="#FFFFFF" d="M1011.038,227.068h5.706c1.587,0,2.817,0.446,3.638,1.266c0.695,0.695,1.07,1.677,1.07,2.889
				c0,2.015-1.088,3.281-2.675,3.869l3.049,4.458h-3.21l-2.71-3.994h-2.122v3.994h-2.746V227.068z M1016.566,233.131
				c1.338,0,2.104-0.713,2.104-1.801c0-1.177-0.82-1.783-2.158-1.783h-2.728v3.584H1016.566z"/>
			<path fill="#FFFFFF" d="M1023.93,227.068h2.746v5.457l5.064-5.457h3.317l-5.082,5.296l5.313,7.186h-3.299l-3.869-5.313
				l-1.444,1.497v3.816h-2.746V227.068z"/>
			<path fill="#FFFFFF" d="M1036.946,227.068h9.415v2.443h-6.687v2.532h5.884v2.443h-5.884v2.621h6.776v2.443h-9.504V227.068z"/>
			<path fill="#FFFFFF" d="M1051.799,229.6h-3.798v-2.532h10.342v2.532h-3.798v9.95h-2.746V229.6z"/>
		</g>
	</g>
	<g>
		<linearGradient id="SVGID_3_" gradientUnits="userSpaceOnUse" x1="689.5446" y1="222.5034" x2="835.9398" y2="222.5034">
			<stop  offset="0" style="stop-color:#48BCE9"/>
			<stop  offset="1" style="stop-color:#3986C7"/>
		</linearGradient>
		<path fill="url(#SVGID_3_)" d="M824.51,173.644l-50.338-29.063c-7.072-4.084-15.787-4.084-22.859,0l-50.338,29.063
			c-7.073,4.084-11.43,11.63-11.43,19.797v58.125c0,8.167,4.357,15.713,11.43,19.797l50.338,29.063
			c3.536,2.042,7.483,3.063,11.43,3.063c3.947,0,7.894-1.021,11.43-3.063l50.338-29.063c7.073-4.084,11.43-11.63,11.43-19.797
			v-58.125C835.94,185.274,831.583,177.728,824.51,173.644z"/>
		<g>
			<path fill="#FFFFFF" d="M717.336,205.546h5.706c1.587,0,2.817,0.446,3.638,1.266c0.695,0.695,1.07,1.677,1.07,2.889
				c0,2.015-1.088,3.281-2.675,3.869l3.049,4.458h-3.21l-2.71-3.994h-2.122v3.994h-2.746V205.546z M722.864,211.609
				c1.338,0,2.104-0.713,2.104-1.801c0-1.177-0.82-1.783-2.158-1.783h-2.728v3.584H722.864z"/>
			<path fill="#FFFFFF" d="M730.228,205.546h9.415v2.443h-6.686v2.532h5.884v2.443h-5.884v2.621h6.776v2.443h-9.504V205.546z"/>
			<path fill="#FFFFFF" d="M746.454,205.457h2.532l5.349,12.571h-2.871l-1.141-2.799h-5.278l-1.141,2.799h-2.8L746.454,205.457z
				 M749.342,212.804l-1.658-4.048l-1.659,4.048H749.342z"/>
			<path fill="#FFFFFF" d="M756.261,205.546h2.746v9.986h6.223v2.496h-8.969V205.546z"/>
			<path fill="#FFFFFF" d="M767.423,205.546h2.746v12.482h-2.746V205.546z"/>
			<path fill="#FFFFFF" d="M772.433,216.209l1.623-1.944c1.123,0.927,2.3,1.516,3.727,1.516c1.123,0,1.801-0.446,1.801-1.213
				c0-0.695-0.428-1.052-2.514-1.587c-2.514-0.642-4.137-1.337-4.137-3.851c0-2.264,1.819-3.762,4.369-3.762
				c1.819,0,3.37,0.571,4.636,1.587l-1.426,2.068c-1.106-0.767-2.193-1.23-3.246-1.23c-1.052,0-1.605,0.481-1.605,1.123
				c0,0.82,0.535,1.087,2.692,1.64c2.532,0.66,3.959,1.57,3.959,3.78c0,2.479-1.89,3.869-4.583,3.869
				C775.839,218.206,773.931,217.546,772.433,216.209z"/>
			<path fill="#FFFFFF" d="M784.7,205.546h9.415v2.443h-6.686v2.532h5.884v2.443h-5.884v2.621h6.776v2.443H784.7V205.546z"/>
			<path fill="#FFFFFF" d="M796.647,205.546h4.868c3.923,0,6.633,2.693,6.633,6.241c0,3.513-2.71,6.241-6.633,6.241h-4.868V205.546z
				 M801.515,215.55c2.247,0,3.762-1.516,3.762-3.762c0-2.211-1.515-3.762-3.762-3.762h-2.122v7.525H801.515z"/>
			<path fill="#FFFFFF" d="M723.791,226.943h5.1c2.978,0,4.779,1.766,4.779,4.351c0,2.889-2.247,4.387-5.046,4.387h-2.086v3.744
				h-2.746V226.943z M728.712,233.238c1.373,0,2.175-0.82,2.175-1.926c0-1.23-0.856-1.89-2.229-1.89h-2.122v3.816H728.712z"/>
			<path fill="#FFFFFF" d="M735.702,226.943h5.706c1.587,0,2.817,0.446,3.638,1.266c0.695,0.695,1.07,1.677,1.07,2.889
				c0,2.015-1.088,3.281-2.675,3.869l3.049,4.458h-3.21l-2.71-3.994h-2.122v3.994h-2.746V226.943z M741.229,233.006
				c1.338,0,2.104-0.713,2.104-1.801c0-1.177-0.82-1.783-2.158-1.783h-2.728v3.584H741.229z"/>
			<path fill="#FFFFFF" d="M748.041,233.184c0-3.548,2.799-6.455,6.651-6.455c3.852,0,6.615,2.871,6.615,6.455
				c0,3.548-2.799,6.455-6.651,6.455S748.041,236.768,748.041,233.184z M758.437,233.184c0-2.14-1.57-3.923-3.78-3.923
				c-2.211,0-3.744,1.748-3.744,3.923c0,2.14,1.569,3.923,3.78,3.923C756.903,237.107,758.437,235.36,758.437,233.184z"/>
			<path fill="#FFFFFF" d="M763.75,226.943h9.504v2.496h-6.758v2.657h5.956v2.496h-5.956v4.832h-2.746V226.943z"/>
			<path fill="#FFFFFF" d="M775.571,226.943h2.746v12.482h-2.746V226.943z"/>
			<path fill="#FFFFFF" d="M784.344,229.475h-3.798v-2.532h10.342v2.532h-3.798v9.95h-2.746V229.475z"/>
			<path fill="#FFFFFF" d="M791.868,237.606l1.623-1.944c1.123,0.927,2.3,1.516,3.727,1.516c1.124,0,1.801-0.446,1.801-1.213
				c0-0.695-0.428-1.052-2.514-1.587c-2.514-0.642-4.137-1.337-4.137-3.851c0-2.264,1.819-3.762,4.369-3.762
				c1.819,0,3.37,0.571,4.636,1.587l-1.426,2.068c-1.106-0.767-2.193-1.23-3.246-1.23s-1.605,0.481-1.605,1.123
				c0,0.82,0.535,1.087,2.693,1.64c2.532,0.66,3.958,1.57,3.958,3.78c0,2.479-1.89,3.869-4.583,3.869
				C795.275,239.603,793.366,238.944,791.868,237.606z"/>
		</g>
	</g>
	<g>
		
			<linearGradient id="SVGID_4_" gradientUnits="userSpaceOnUse" x1="564.0136" y1="-126.2124" x2="874.9062" y2="-126.2124" gradientTransform="matrix(1 0 0 1 -294.7788 348.7156)">
			<stop  offset="0" style="stop-color:#48BCE9"/>
			<stop  offset="1" style="stop-color:#3986C7"/>
		</linearGradient>
		<path fill="url(#SVGID_4_)" d="M568.799,126.216L436.009,49.55c-7.01-4.048-15.646-4.048-22.656,0l-132.79,76.667
			c-7.01,4.047-11.328,11.526-11.328,19.621v153.332c0,8.095,4.318,15.574,11.328,19.621l132.79,76.667
			c3.505,2.024,7.416,3.036,11.328,3.036c3.912,0,7.823-1.012,11.328-3.036l132.79-76.667c7.01-4.047,11.328-11.526,11.328-19.621
			V145.837C580.127,137.743,575.809,130.263,568.799,126.216z"/>
		<g>
			<path opacity="0.54" fill="#94D9F3" d="M475.218,90.936l-46.565-26.884c-2.458-1.419-5.486-1.419-7.945,0l-46.565,26.884
				c-2.458,1.419-3.972,4.042-3.972,6.88v53.768c0,2.838,1.514,5.461,3.972,6.88l46.565,26.884c1.229,0.71,2.601,1.064,3.972,1.064
				c1.372,0,2.743-0.355,3.972-1.064l46.565-26.884c2.458-1.419,3.972-4.042,3.972-6.88V97.817
				C479.191,94.978,477.676,92.355,475.218,90.936z"/>
			<g>
				<path fill="#FFFFFF" d="M414.927,111.345h2.391l2.575,6.935l2.574-6.935h2.335l-3.981,9.918h-1.913L414.927,111.345z"/>
				<path fill="#FFFFFF" d="M425.25,116.269c0-2.799,2.11-5.093,5.135-5.093c1.857,0,2.898,0.704,3.812,1.604l-1.294,1.491
					c-0.759-0.689-1.407-1.098-2.532-1.098c-1.66,0-2.856,1.379-2.856,3.095c0,1.688,1.168,3.095,2.856,3.095
					c1.126,0,1.815-0.45,2.588-1.154l1.379,1.477c-1.013,1.083-2.138,1.674-4.037,1.674
					C427.403,121.362,425.25,119.125,425.25,116.269z"/>
				<path fill="#FFFFFF" d="M399.857,128.223h7.498v1.97h-5.331v2.096h4.698v1.97h-4.698v3.812h-2.166V128.223z"/>
				<path fill="#FFFFFF" d="M408.929,133.85v-5.627h2.166v5.571c0,1.603,0.802,2.434,2.124,2.434c1.322,0,2.124-0.802,2.124-2.364
					v-5.641h2.167v5.557c0,2.983-1.674,4.445-4.319,4.445C410.546,138.225,408.929,136.748,408.929,133.85z"/>
				<path fill="#FFFFFF" d="M419.716,128.223h1.997l4.614,6.063v-6.063h2.138v9.847h-1.843l-4.769-6.26v6.26h-2.138V128.223z"/>
				<path fill="#FFFFFF" d="M430.827,128.223h3.84c3.095,0,5.233,2.124,5.233,4.924c0,2.772-2.138,4.924-5.233,4.924h-3.84V128.223z
					 M434.667,136.115c1.773,0,2.968-1.196,2.968-2.968c0-1.744-1.195-2.968-2.968-2.968h-1.674v5.937H434.667z"/>
				<path fill="#FFFFFF" d="M447.367,130.347l-1.716,0.422l-0.45-1.773l2.827-0.844h1.477v9.918h-2.138V130.347z"/>
			</g>
		</g>
		<g>
			<path opacity="0.54" fill="#94D9F3" d="M475.218,286.541l-46.565-26.884c-2.458-1.419-5.486-1.419-7.945,0l-46.565,26.884
				c-2.458,1.419-3.972,4.042-3.972,6.88v53.768c0,2.838,1.514,5.461,3.972,6.88l46.565,26.884c1.229,0.71,2.601,1.064,3.972,1.064
				c1.372,0,2.743-0.355,3.972-1.064l46.565-26.884c2.458-1.419,3.972-4.042,3.972-6.88v-53.768
				C479.191,290.583,477.676,287.96,475.218,286.541z"/>
			<g>
				<path fill="#FFFFFF" d="M395.271,311.874c0-2.799,2.11-5.093,5.135-5.093c1.857,0,2.898,0.704,3.812,1.604l-1.294,1.491
					c-0.759-0.689-1.407-1.098-2.532-1.098c-1.66,0-2.856,1.379-2.856,3.095c0,1.688,1.168,3.095,2.856,3.095
					c1.126,0,1.815-0.45,2.588-1.154l1.379,1.477c-1.013,1.083-2.138,1.674-4.037,1.674
					C397.424,316.966,395.271,314.73,395.271,311.874z"/>
				<path fill="#FFFFFF" d="M406.087,306.95h4.502c1.252,0,2.223,0.351,2.869,0.999c0.549,0.549,0.845,1.322,0.845,2.279
					c0,1.59-0.858,2.588-2.111,3.052l2.406,3.517h-2.532l-2.139-3.151h-1.674v3.151h-2.166V306.95z M410.448,311.733
					c1.055,0,1.66-0.563,1.66-1.421c0-0.928-0.647-1.406-1.702-1.406h-2.152v2.828H410.448z"/>
				<path fill="#FFFFFF" d="M418.675,312.915l-3.784-5.965h2.532l2.35,3.953l2.391-3.953h2.462l-3.784,5.922v3.925h-2.166V312.915z"
					/>
				<path fill="#FFFFFF" d="M425.974,306.95h4.023c2.349,0,3.77,1.393,3.77,3.432c0,2.279-1.773,3.461-3.981,3.461h-1.646v2.954
					h-2.166V306.95z M429.856,311.916c1.083,0,1.716-0.647,1.716-1.519c0-0.971-0.675-1.491-1.759-1.491h-1.674v3.01H429.856z"/>
				<path fill="#FFFFFF" d="M437.662,308.948h-2.996v-1.997h8.159v1.997h-2.997v7.85h-2.166V308.948z"/>
				<path fill="#FFFFFF" d="M443.625,311.874c0-2.799,2.208-5.093,5.247-5.093c3.038,0,5.219,2.265,5.219,5.093
					c0,2.799-2.208,5.093-5.247,5.093C445.805,316.966,443.625,314.702,443.625,311.874z M451.826,311.874
					c0-1.688-1.238-3.095-2.983-3.095c-1.744,0-2.954,1.379-2.954,3.095c0,1.688,1.238,3.095,2.983,3.095
					S451.826,313.59,451.826,311.874z"/>
				<path fill="#FFFFFF" d="M398.415,323.828h7.498v1.97h-5.331v2.096h4.698v1.97h-4.698v3.812h-2.166V323.828z"/>
				<path fill="#FFFFFF" d="M407.487,329.455v-5.627h2.166v5.571c0,1.603,0.802,2.434,2.124,2.434c1.322,0,2.124-0.802,2.124-2.364
					v-5.641h2.167v5.557c0,2.983-1.674,4.445-4.319,4.445C409.104,333.83,407.487,332.353,407.487,329.455z"/>
				<path fill="#FFFFFF" d="M418.274,323.828h1.997l4.614,6.063v-6.063h2.138v9.847h-1.843l-4.769-6.26v6.26h-2.138V323.828z"/>
				<path fill="#FFFFFF" d="M429.385,323.828h3.84c3.095,0,5.233,2.124,5.233,4.924c0,2.772-2.138,4.924-5.233,4.924h-3.84V323.828z
					 M433.225,331.72c1.773,0,2.968-1.196,2.968-2.968c0-1.744-1.196-2.968-2.968-2.968h-1.674v5.937H433.225z"/>
				<path fill="#FFFFFF" d="M449.006,325.699h-4.629v-1.871h7.09v1.632l-4.418,8.216h-2.447L449.006,325.699z"/>
			</g>
		</g>
		<g>
			<path opacity="0.54" fill="#94D9F3" d="M475.218,188.739l-46.565-26.884c-2.458-1.419-5.486-1.419-7.945,0l-46.565,26.884
				c-2.458,1.419-3.972,4.042-3.972,6.88v53.768c0,2.838,1.514,5.461,3.972,6.88l46.565,26.884c1.229,0.71,2.601,1.064,3.972,1.064
				c1.372,0,2.743-0.355,3.972-1.064l46.565-26.884c2.458-1.419,3.972-4.042,3.972-6.88v-53.768
				C479.191,192.781,477.676,190.158,475.218,188.739z"/>
			<g>
				<path fill="#FFFFFF" d="M395.271,214.064c0-2.799,2.11-5.093,5.135-5.093c1.857,0,2.898,0.704,3.812,1.604l-1.294,1.491
					c-0.759-0.689-1.407-1.098-2.532-1.098c-1.66,0-2.856,1.379-2.856,3.095c0,1.688,1.168,3.095,2.856,3.095
					c1.126,0,1.815-0.45,2.588-1.154l1.379,1.477c-1.013,1.083-2.138,1.674-4.037,1.674
					C397.424,219.157,395.271,216.92,395.271,214.064z"/>
				<path fill="#FFFFFF" d="M406.087,209.141h4.502c1.252,0,2.223,0.351,2.869,0.999c0.549,0.549,0.845,1.322,0.845,2.279
					c0,1.59-0.858,2.588-2.111,3.052l2.406,3.517h-2.532l-2.139-3.151h-1.674v3.151h-2.166V209.141z M410.448,213.924
					c1.055,0,1.66-0.563,1.66-1.421c0-0.928-0.647-1.407-1.702-1.407h-2.152v2.828H410.448z"/>
				<path fill="#FFFFFF" d="M418.675,215.105l-3.784-5.965h2.532l2.35,3.953l2.391-3.953h2.462l-3.784,5.922v3.925h-2.166V215.105z"
					/>
				<path fill="#FFFFFF" d="M425.974,209.141h4.023c2.349,0,3.77,1.393,3.77,3.432c0,2.279-1.773,3.461-3.981,3.461h-1.646v2.954
					h-2.166V209.141z M429.856,214.106c1.083,0,1.716-0.647,1.716-1.519c0-0.971-0.675-1.491-1.759-1.491h-1.674v3.01H429.856z"/>
				<path fill="#FFFFFF" d="M437.662,211.138h-2.996v-1.997h8.159v1.997h-2.997v7.85h-2.166V211.138z"/>
				<path fill="#FFFFFF" d="M443.625,214.064c0-2.799,2.208-5.093,5.247-5.093c3.038,0,5.219,2.265,5.219,5.093
					c0,2.799-2.208,5.093-5.247,5.093C445.805,219.157,443.625,216.892,443.625,214.064z M451.826,214.064
					c0-1.688-1.238-3.095-2.983-3.095c-1.744,0-2.954,1.379-2.954,3.095c0,1.688,1.238,3.095,2.983,3.095
					S451.826,215.781,451.826,214.064z"/>
				<path fill="#FFFFFF" d="M398.113,226.018h7.498v1.97h-5.332v2.096h4.698v1.97h-4.698v3.812h-2.166V226.018z"/>
				<path fill="#FFFFFF" d="M407.184,231.646v-5.627h2.166v5.571c0,1.603,0.802,2.434,2.124,2.434s2.124-0.802,2.124-2.364v-5.641
					h2.167v5.557c0,2.983-1.674,4.445-4.319,4.445S407.184,234.543,407.184,231.646z"/>
				<path fill="#FFFFFF" d="M417.972,226.018h1.997l4.614,6.063v-6.063h2.138v9.847h-1.843l-4.769-6.26v6.26h-2.138V226.018z"/>
				<path fill="#FFFFFF" d="M429.082,226.018h3.84c3.095,0,5.233,2.124,5.233,4.924c0,2.772-2.138,4.924-5.233,4.924h-3.84V226.018z
					 M432.923,233.91c1.773,0,2.968-1.196,2.968-2.968c0-1.744-1.196-2.968-2.968-2.968h-1.674v5.937H432.923z"/>
				<path fill="#FFFFFF" d="M445.046,234.98c-0.718-0.718-1.168-1.773-1.168-3.756c0-3.039,1.379-5.374,4.319-5.374
					c1.337,0,2.208,0.394,3.081,1.083l-1.14,1.674c-0.647-0.493-1.168-0.788-2.012-0.788c-1.223,0-1.843,0.984-1.983,2.279
					c0.493-0.324,1.069-0.633,2.04-0.633c1.955,0,3.461,1.083,3.461,3.165c0,2.012-1.618,3.405-3.756,3.405
					C446.607,236.035,445.735,235.669,445.046,234.98z M449.491,232.701c0-0.83-0.647-1.435-1.716-1.435
					c-1.069,0-1.688,0.591-1.688,1.449c0,0.83,0.647,1.463,1.717,1.463C448.872,234.178,449.491,233.572,449.491,232.701z"/>
			</g>
		</g>
		<g>
			<path opacity="0.54" fill="#94D9F3" d="M388.832,140.614l-46.565-26.884c-2.458-1.419-5.487-1.419-7.945,0l-46.565,26.884
				c-2.458,1.419-3.972,4.042-3.972,6.88v53.768c0,2.838,1.514,5.461,3.972,6.88l46.565,26.884c1.229,0.71,2.601,1.064,3.972,1.064
				s2.743-0.355,3.972-1.064l46.565-26.884c2.458-1.419,3.972-4.042,3.972-6.88v-53.768
				C392.805,144.655,391.29,142.033,388.832,140.614z"/>
			<g>
				<path fill="#FFFFFF" d="M328.288,161.023h2.391l2.575,6.935l2.574-6.935h2.335l-3.981,9.918h-1.913L328.288,161.023z"/>
				<path fill="#FFFFFF" d="M338.611,165.946c0-2.799,2.11-5.093,5.135-5.093c1.857,0,2.898,0.704,3.812,1.604l-1.294,1.491
					c-0.759-0.689-1.406-1.098-2.532-1.098c-1.66,0-2.856,1.379-2.856,3.095c0,1.688,1.168,3.095,2.856,3.095
					c1.126,0,1.815-0.45,2.588-1.154l1.379,1.477c-1.013,1.083-2.138,1.674-4.037,1.674
					C340.763,171.039,338.611,168.802,338.611,165.946z"/>
				<path fill="#FFFFFF" d="M311.804,177.9h7.498v1.97h-5.331v2.096h4.698v1.97h-4.698v3.812h-2.166V177.9z"/>
				<path fill="#FFFFFF" d="M320.876,183.527V177.9h2.166v5.571c0,1.603,0.802,2.434,2.124,2.434c1.322,0,2.124-0.802,2.124-2.364
					V177.9h2.167v5.557c0,2.983-1.674,4.445-4.319,4.445C322.493,187.902,320.876,186.425,320.876,183.527z"/>
				<path fill="#FFFFFF" d="M331.663,177.9h1.997l4.614,6.063V177.9h2.138v9.847h-1.843l-4.769-6.26v6.26h-2.138V177.9z"/>
				<path fill="#FFFFFF" d="M342.774,177.9h3.84c3.095,0,5.233,2.124,5.233,4.924c0,2.772-2.138,4.924-5.233,4.924h-3.84V177.9z
					 M346.614,185.792c1.773,0,2.968-1.196,2.968-2.968c0-1.744-1.196-2.968-2.968-2.968h-1.674v5.937H346.614z"/>
				<path fill="#FFFFFF" d="M357.499,186.031l3.278-2.687c1.224-1.013,1.702-1.548,1.702-2.363c0-0.83-0.549-1.28-1.322-1.28
					c-0.76,0-1.28,0.422-2.012,1.322l-1.519-1.224c0.97-1.322,1.913-2.04,3.671-2.04c2.04,0,3.39,1.196,3.39,3.067
					c0,1.646-0.844,2.462-2.588,3.812l-1.604,1.238h4.291v1.871h-7.287V186.031z"/>
			</g>
		</g>
		<g>
			<path opacity="0.54" fill="#94D9F3" d="M388.832,236.864l-46.565-26.884c-2.458-1.419-5.487-1.419-7.945,0l-46.565,26.884
				c-2.458,1.419-3.972,4.042-3.972,6.88v53.768c0,2.838,1.514,5.461,3.972,6.88l46.565,26.884c1.229,0.71,2.601,1.064,3.972,1.064
				s2.743-0.355,3.972-1.064l46.565-26.884c2.458-1.419,3.972-4.042,3.972-6.88v-53.768
				C392.805,240.906,391.29,238.283,388.832,236.864z"/>
			<g>
				<path fill="#FFFFFF" d="M328.302,257.266h2.391l2.575,6.935l2.574-6.935h2.335l-3.981,9.918h-1.913L328.302,257.266z"/>
				<path fill="#FFFFFF" d="M338.625,262.19c0-2.799,2.11-5.093,5.135-5.093c1.857,0,2.898,0.704,3.812,1.604l-1.294,1.491
					c-0.759-0.689-1.407-1.098-2.532-1.098c-1.66,0-2.856,1.379-2.856,3.095c0,1.688,1.168,3.095,2.856,3.095
					c1.126,0,1.815-0.45,2.588-1.154l1.379,1.477c-1.013,1.083-2.138,1.674-4.037,1.674
					C340.777,267.282,338.625,265.045,338.625,262.19z"/>
				<path fill="#FFFFFF" d="M311.832,274.143h7.498v1.97h-5.331v2.096h4.698v1.97h-4.698v3.812h-2.166V274.143z"/>
				<path fill="#FFFFFF" d="M320.904,279.771v-5.627h2.166v5.571c0,1.603,0.802,2.434,2.124,2.434s2.124-0.802,2.124-2.364v-5.641
					h2.167v5.557c0,2.983-1.674,4.445-4.319,4.445C322.521,284.146,320.904,282.669,320.904,279.771z"/>
				<path fill="#FFFFFF" d="M331.691,274.143h1.997l4.614,6.063v-6.063h2.138v9.847h-1.843l-4.769-6.26v6.26h-2.138V274.143z"/>
				<path fill="#FFFFFF" d="M342.802,274.143h3.84c3.095,0,5.233,2.124,5.233,4.924c0,2.772-2.138,4.924-5.233,4.924h-3.84V274.143z
					 M346.642,282.035c1.773,0,2.968-1.196,2.968-2.968c0-1.744-1.195-2.968-2.968-2.968h-1.674v5.937H346.642z"/>
				<path fill="#FFFFFF" d="M357.373,282.458l1.491-1.421c0.675,0.759,1.379,1.181,2.377,1.181c0.816,0,1.393-0.464,1.393-1.223
					c0-0.802-0.718-1.252-1.928-1.252h-0.9l-0.338-1.379l2.35-2.363h-3.869v-1.857h6.654v1.632l-2.49,2.377
					c1.337,0.225,2.645,0.929,2.645,2.786c0,1.857-1.35,3.221-3.545,3.221C359.441,284.16,358.217,283.456,357.373,282.458z"/>
			</g>
		</g>
		<g>
			<path opacity="0.54" fill="#94D9F3" d="M561.604,140.614l-46.565-26.884c-2.458-1.419-5.486-1.419-7.945,0l-46.565,26.884
				c-2.458,1.419-3.972,4.042-3.972,6.88v53.768c0,2.838,1.514,5.461,3.972,6.88l46.565,26.884c1.229,0.71,2.601,1.064,3.972,1.064
				s2.743-0.355,3.972-1.064l46.565-26.884c2.458-1.419,3.972-4.042,3.972-6.88v-53.768
				C565.577,144.655,564.062,142.033,561.604,140.614z"/>
			<g>
				<path fill="#FFFFFF" d="M481.657,165.946c0-2.799,2.11-5.093,5.135-5.093c1.857,0,2.898,0.704,3.812,1.604l-1.294,1.491
					c-0.759-0.689-1.406-1.098-2.532-1.098c-1.66,0-2.856,1.379-2.856,3.095c0,1.688,1.168,3.095,2.856,3.095
					c1.126,0,1.815-0.45,2.588-1.154l1.379,1.477c-1.013,1.083-2.138,1.674-4.037,1.674
					C483.81,171.039,481.657,168.802,481.657,165.946z"/>
				<path fill="#FFFFFF" d="M492.473,161.023h4.502c1.252,0,2.223,0.351,2.869,0.999c0.549,0.549,0.845,1.322,0.845,2.279
					c0,1.59-0.858,2.588-2.111,3.052l2.406,3.517h-2.532l-2.139-3.151h-1.674v3.151h-2.166V161.023z M496.834,165.806
					c1.055,0,1.66-0.563,1.66-1.421c0-0.928-0.647-1.407-1.702-1.407h-2.152v2.828H496.834z"/>
				<path fill="#FFFFFF" d="M505.061,166.987l-3.784-5.965h2.532l2.35,3.953l2.391-3.953h2.462l-3.785,5.922v3.925h-2.166V166.987z"
					/>
				<path fill="#FFFFFF" d="M512.36,161.023h4.023c2.349,0,3.77,1.393,3.77,3.432c0,2.279-1.773,3.461-3.981,3.461h-1.646v2.954
					h-2.166V161.023z M516.242,165.988c1.083,0,1.716-0.647,1.716-1.519c0-0.971-0.675-1.491-1.759-1.491h-1.674v3.01H516.242z"/>
				<path fill="#FFFFFF" d="M524.048,163.02h-2.996v-1.997h8.159v1.997h-2.997v7.85h-2.166V163.02z"/>
				<path fill="#FFFFFF" d="M530.011,165.946c0-2.799,2.208-5.093,5.247-5.093c3.038,0,5.219,2.265,5.219,5.093
					c0,2.799-2.208,5.093-5.247,5.093C532.191,171.039,530.011,168.774,530.011,165.946z M538.212,165.946
					c0-1.688-1.238-3.095-2.983-3.095s-2.954,1.379-2.954,3.095c0,1.688,1.238,3.095,2.983,3.095
					C537.002,169.041,538.212,167.663,538.212,165.946z"/>
				<path fill="#FFFFFF" d="M484.309,177.9h7.498v1.97h-5.332v2.096h4.698v1.97h-4.698v3.812h-2.166V177.9z"/>
				<path fill="#FFFFFF" d="M493.38,183.527V177.9h2.166v5.571c0,1.603,0.802,2.434,2.124,2.434s2.124-0.802,2.124-2.364V177.9
					h2.167v5.557c0,2.983-1.674,4.445-4.319,4.445S493.38,186.425,493.38,183.527z"/>
				<path fill="#FFFFFF" d="M504.168,177.9h1.997l4.614,6.063V177.9h2.138v9.847h-1.843l-4.769-6.26v6.26h-2.138V177.9z"/>
				<path fill="#FFFFFF" d="M515.278,177.9h3.84c3.095,0,5.233,2.124,5.233,4.924c0,2.772-2.138,4.924-5.233,4.924h-3.84V177.9z
					 M519.118,185.792c1.773,0,2.968-1.196,2.968-2.968c0-1.744-1.195-2.968-2.968-2.968h-1.674v5.937H519.118z"/>
				<path fill="#FFFFFF" d="M534.913,185.623h-4.811l-0.352-1.533l5.402-6.26h1.828v6.035h1.322v1.759h-1.322v2.124h-2.068V185.623z
					 M534.913,183.865v-3.067l-2.616,3.067H534.913z"/>
			</g>
		</g>
		<g>
			<path opacity="0.54" fill="#94D9F3" d="M561.604,236.864L515.04,209.98c-2.458-1.419-5.486-1.419-7.945,0l-46.565,26.884
				c-2.458,1.419-3.972,4.042-3.972,6.88v53.768c0,2.838,1.514,5.461,3.972,6.88l46.565,26.884c1.229,0.71,2.601,1.064,3.972,1.064
				s2.743-0.355,3.972-1.064l46.565-26.884c2.458-1.419,3.972-4.042,3.972-6.88v-53.768
				C565.577,240.906,564.062,238.283,561.604,236.864z"/>
			<g>
				<path fill="#FFFFFF" d="M481.657,262.19c0-2.799,2.11-5.093,5.135-5.093c1.857,0,2.898,0.704,3.812,1.604l-1.294,1.491
					c-0.759-0.689-1.406-1.098-2.532-1.098c-1.66,0-2.856,1.379-2.856,3.095c0,1.688,1.168,3.095,2.856,3.095
					c1.126,0,1.815-0.45,2.588-1.154l1.379,1.477c-1.013,1.083-2.138,1.674-4.037,1.674
					C483.81,267.282,481.657,265.045,481.657,262.19z"/>
				<path fill="#FFFFFF" d="M492.473,257.266h4.502c1.252,0,2.223,0.351,2.869,0.999c0.549,0.549,0.845,1.322,0.845,2.279
					c0,1.59-0.858,2.588-2.111,3.052l2.406,3.517h-2.532l-2.139-3.151h-1.674v3.151h-2.166V257.266z M496.834,262.049
					c1.055,0,1.66-0.563,1.66-1.421c0-0.928-0.647-1.407-1.702-1.407h-2.152v2.828H496.834z"/>
				<path fill="#FFFFFF" d="M505.061,263.23l-3.784-5.965h2.532l2.35,3.953l2.391-3.953h2.462l-3.785,5.922v3.925h-2.166V263.23z"/>
				<path fill="#FFFFFF" d="M512.36,257.266h4.023c2.349,0,3.77,1.393,3.77,3.432c0,2.279-1.773,3.461-3.981,3.461h-1.646v2.954
					h-2.166V257.266z M516.242,262.232c1.083,0,1.716-0.647,1.716-1.519c0-0.971-0.675-1.491-1.759-1.491h-1.674v3.01H516.242z"/>
				<path fill="#FFFFFF" d="M524.048,259.263h-2.996v-1.997h8.159v1.997h-2.997v7.85h-2.166V259.263z"/>
				<path fill="#FFFFFF" d="M530.011,262.19c0-2.799,2.208-5.093,5.247-5.093c3.038,0,5.219,2.265,5.219,5.093
					c0,2.799-2.208,5.093-5.247,5.093C532.191,267.282,530.011,265.017,530.011,262.19z M538.212,262.19
					c0-1.688-1.238-3.095-2.983-3.095s-2.954,1.379-2.954,3.095c0,1.688,1.238,3.095,2.983,3.095S538.212,263.906,538.212,262.19z"
					/>
				<path fill="#FFFFFF" d="M484.724,274.143h7.498v1.97h-5.331v2.096h4.698v1.97h-4.698v3.812h-2.166V274.143z"/>
				<path fill="#FFFFFF" d="M493.795,279.771v-5.627h2.166v5.571c0,1.603,0.802,2.434,2.124,2.434c1.322,0,2.124-0.802,2.124-2.364
					v-5.641h2.167v5.557c0,2.983-1.674,4.445-4.319,4.445C495.413,284.146,493.795,282.669,493.795,279.771z"/>
				<path fill="#FFFFFF" d="M504.583,274.143h1.997l4.614,6.063v-6.063h2.138v9.847h-1.843l-4.769-6.26v6.26h-2.138V274.143z"/>
				<path fill="#FFFFFF" d="M515.693,274.143h3.84c3.095,0,5.233,2.124,5.233,4.924c0,2.772-2.138,4.924-5.233,4.924h-3.84V274.143z
					 M519.533,282.035c1.773,0,2.968-1.196,2.968-2.968c0-1.744-1.195-2.968-2.968-2.968h-1.674v5.937H519.533z"/>
				<path fill="#FFFFFF" d="M530.334,282.683l1.308-1.562c0.746,0.675,1.477,1.069,2.349,1.069c1.012,0,1.645-0.493,1.645-1.393
					c0-0.844-0.717-1.336-1.744-1.336c-0.619,0-1.181,0.168-1.646,0.366l-1.252-0.83l0.282-4.853h6.049v1.899h-4.192l-0.113,1.702
					c0.394-0.098,0.746-0.169,1.294-0.169c1.913,0,3.447,0.929,3.447,3.179c0,2.082-1.477,3.405-3.742,3.405
					C532.444,284.16,531.291,283.597,530.334,282.683z"/>
			</g>
		</g>
	</g>
</g>
</svg>
