<?xml version="1.0" encoding="utf-8"?>
<!-- Generator: Adobe Illustrator 17.0.0, SVG Export Plug-In . SVG Version: 6.00 Build 0)  -->
<!DOCTYPE svg PUBLIC "-//W3C//DTD SVG 1.1//EN" "http://www.w3.org/Graphics/SVG/1.1/DTD/svg11.dtd">
<svg version="1.1" id="Layer_1" xmlns="http://www.w3.org/2000/svg" xmlns:xlink="http://www.w3.org/1999/xlink" x="0px" y="0px"
	 width="609.45px" height="1984.25px" viewBox="0 0 609.45 1984.25" enable-background="new 0 0 609.45 1984.25"
	 xml:space="preserve">
<g>
	<g>
		<path fill="#8D96A6" d="M321.737,446.728l-0.727-0.688c18.649-19.745,29.307-45.587,30.007-72.765
			c0.701-27.179-8.61-53.535-26.218-74.215l0.762-0.648c17.768,20.867,27.163,47.464,26.456,74.889S340.556,426.803,321.737,446.728
			z"/>
		<circle fill="#8D96A6" cx="325.18" cy="298.737" r="4.879"/>
		<polygon fill="#8D96A6" points="331.412,443.861 320.167,447.874 322.314,436.129 		"/>
	</g>
	<g>
		<path fill="#8D96A6" d="M321.737,1691.243l-0.727-0.688c18.649-19.745,29.307-45.588,30.007-72.766
			c0.701-27.178-8.61-53.534-26.218-74.215l0.762-0.648c17.768,20.868,27.163,47.465,26.456,74.889
			C351.31,1645.241,340.556,1671.317,321.737,1691.243z"/>
		<circle fill="#8D96A6" cx="325.18" cy="1543.251" r="4.879"/>
		<polygon fill="#8D96A6" points="331.412,1688.375 320.167,1692.389 322.314,1680.643 		"/>
	</g>
	<g>
		<path fill="#8D96A6" d="M328.935,1240.241c-18.819-19.926-29.573-46.002-30.28-73.427s8.688-54.021,26.456-74.889l0.762,0.648
			c-17.607,20.68-26.919,47.036-26.218,74.215c0.7,27.178,11.357,53.02,30.007,72.765L328.935,1240.241z"/>
		<circle fill="#8D96A6" cx="325.491" cy="1092.25" r="4.879"/>
		<polygon fill="#8D96A6" points="319.259,1237.374 330.505,1241.387 328.357,1229.641 		"/>
	</g>
	<g>
		<circle fill="#8D96A6" cx="209.559" cy="1293.551" r="4.727"/>
		<polygon fill="#8D96A6" points="35.795,1080.56 41.586,1070.546 47.362,1080.568 		"/>
		<path fill="#8D96A6" d="M209.372,1294.038c-47.17-11.354-89.912-38.615-120.354-76.761c-31.363-39.3-47.94-86.706-47.94-137.094h1
			c0,50.158,16.502,97.35,47.722,136.47c30.304,37.973,72.852,65.109,119.807,76.412L209.372,1294.038z"/>
	</g>
	<g>
		<circle fill="#8D96A6" cx="444.23" cy="1293.261" r="4.892"/>
		<path fill="#8D96A6" d="M444.417,1293.748l-0.234-0.973c41.644-10.023,79.379-34.091,106.254-67.768
			c27.688-34.695,42.323-76.548,42.323-121.032c0-48.426-17.929-94.81-50.482-130.607l0.74-0.672
			c32.722,35.981,50.742,82.604,50.742,131.279c0,44.714-14.711,86.781-42.542,121.655
			C524.205,1259.481,486.276,1283.672,444.417,1293.748z"/>
		<polygon fill="#8D96A6" points="552.656,975.149 541.231,971.574 543.847,983.256 		"/>
	</g>
	<g>
		<linearGradient id="SVGID_1_" gradientUnits="userSpaceOnUse" x1="204.5248" y1="144.7741" x2="443.8012" y2="144.7741">
			<stop  offset="0" style="stop-color:#48BCE9"/>
			<stop  offset="1" style="stop-color:#3986C7"/>
		</linearGradient>
		<path fill="url(#SVGID_1_)" d="M425.12,64.916l-82.276-47.502c-11.559-6.675-25.804-6.675-37.363,0l-82.275,47.502
			c-11.56,6.674-18.681,19.009-18.681,32.357v95.003c0,13.348,7.121,25.682,18.681,32.357l82.275,47.502
			c5.78,3.338,12.23,5.006,18.681,5.006c6.451,0,12.902-1.668,18.681-5.006l82.276-47.502c11.56-6.674,18.681-19.009,18.681-32.357
			V97.273C443.801,83.925,436.68,71.591,425.12,64.916z"/>
		<g>
			<path fill="#FFFFFF" d="M243.872,134.573h15.534v4.08h-11.046v4.343h9.734v4.08h-9.734v7.898h-4.488V134.573z"/>
			<path fill="#FFFFFF" d="M262.67,146.232v-11.658h4.488v11.541c0,3.323,1.661,5.042,4.4,5.042s4.4-1.661,4.4-4.896v-11.688h4.488
				v11.513c0,6.179-3.468,9.209-8.947,9.209C266.022,155.295,262.67,152.236,262.67,146.232z"/>
			<path fill="#FFFFFF" d="M285.023,134.573h4.139l9.559,12.562v-12.562h4.431v20.401h-3.818l-9.88-12.969v12.969h-4.43V134.573z"/>
			<path fill="#FFFFFF" d="M308.046,134.573h7.956c6.412,0,10.842,4.401,10.842,10.201c0,5.741-4.43,10.2-10.842,10.2h-7.956
				V134.573z M316.002,150.924c3.673,0,6.149-2.478,6.149-6.149c0-3.614-2.477-6.149-6.149-6.149h-3.468v12.299H316.002z"/>
			<path fill="#FFFFFF" d="M329.933,144.775c0-5.8,4.371-10.551,10.638-10.551c3.847,0,6.004,1.457,7.897,3.322l-2.681,3.09
				c-1.574-1.428-2.915-2.273-5.246-2.273c-3.439,0-5.916,2.856-5.916,6.412c0,3.497,2.419,6.411,5.916,6.411
				c2.331,0,3.76-0.933,5.362-2.39l2.856,3.061c-2.099,2.244-4.43,3.468-8.364,3.468
				C334.392,155.324,329.933,150.691,329.933,144.775z"/>
			<path fill="#FFFFFF" d="M350.859,144.775c0-5.8,4.575-10.551,10.87-10.551c6.296,0,10.812,4.692,10.812,10.551
				c0,5.8-4.575,10.55-10.87,10.55C355.375,155.324,350.859,150.632,350.859,144.775z M367.85,144.775
				c0-3.498-2.565-6.412-6.179-6.412c-3.614,0-6.12,2.856-6.12,6.412c0,3.497,2.564,6.411,6.178,6.411
				C365.343,151.186,367.85,148.33,367.85,144.775z"/>
			<path fill="#FFFFFF" d="M376.738,134.573h4.488v20.401h-4.488V134.573z"/>
			<path fill="#FFFFFF" d="M386.326,134.573h4.139l9.559,12.562v-12.562h4.431v20.401h-3.818l-9.88-12.969v12.969h-4.43V134.573z"/>
		</g>
	</g>
	<g>
		<path fill="#32445F" d="M208.75,363.831h1.663v14.74h-1.663V363.831z"/>
		<path fill="#32445F" d="M214.454,367.684h1.622v1.896c0.716-1.18,1.853-2.127,3.727-2.127c2.633,0,4.17,1.769,4.17,4.358v6.76
			h-1.622v-6.359c0-2.021-1.095-3.285-3.011-3.285c-1.874,0-3.264,1.369-3.264,3.412v6.232h-1.622V367.684z"/>
		<path fill="#32445F" d="M225.929,367.684h1.79l3.663,9.033l3.686-9.033h1.747l-4.737,10.971h-1.432L225.929,367.684z"/>
		<path fill="#32445F" d="M243.529,377.413c1.495,0,2.548-0.61,3.432-1.537l1.011,0.905c-1.095,1.222-2.421,2.043-4.485,2.043
			c-2.989,0-5.433-2.296-5.433-5.686c0-3.159,2.211-5.686,5.223-5.686c3.222,0,5.074,2.569,5.074,5.77c0,0.147,0,0.316-0.021,0.568
			h-8.634C239.928,376.086,241.612,377.413,243.529,377.413z M246.709,372.485c-0.189-1.979-1.327-3.663-3.475-3.663
			c-1.874,0-3.307,1.558-3.538,3.663H246.709z"/>
		<path fill="#32445F" d="M250.286,377.181l0.821-1.158c1.18,0.885,2.484,1.39,3.77,1.39c1.306,0,2.253-0.674,2.253-1.769
			s-1.284-1.517-2.717-1.916c-1.705-0.484-3.601-1.074-3.601-3.117c0-1.874,1.559-3.116,3.706-3.116c1.327,0,2.801,0.463,3.917,1.2
			l-0.737,1.222c-1.011-0.653-2.169-1.053-3.222-1.053c-1.284,0-2.105,0.674-2.105,1.621c0,1.032,1.348,1.432,2.801,1.874
			c1.685,0.506,3.495,1.158,3.495,3.158c0,2.064-1.706,3.265-3.874,3.265C253.234,378.782,251.508,378.17,250.286,377.181z"/>
		<path fill="#32445F" d="M262.034,375.686v-6.57h-1.517v-1.432h1.517v-3.285h1.621v3.285h3.453v1.432h-3.453v6.359
			c0,1.327,0.737,1.812,1.832,1.812c0.547,0,1.011-0.105,1.579-0.379v1.39c-0.568,0.295-1.18,0.463-1.958,0.463
			C263.36,378.76,262.034,377.897,262.034,375.686z"/>
		<path fill="#32445F" d="M269.97,367.684h1.622v1.832c0.716-1.074,1.685-2.063,3.517-2.063c1.769,0,2.905,0.947,3.495,2.169
			c0.779-1.2,1.938-2.169,3.832-2.169c2.506,0,4.043,1.685,4.043,4.38v6.738h-1.621v-6.359c0-2.105-1.053-3.285-2.821-3.285
			c-1.643,0-3.012,1.222-3.012,3.369v6.275h-1.601v-6.401c0-2.043-1.073-3.243-2.8-3.243s-3.032,1.433-3.032,3.433v6.212h-1.622
			V367.684z"/>
		<path fill="#32445F" d="M294.793,377.413c1.495,0,2.548-0.61,3.432-1.537l1.011,0.905c-1.095,1.222-2.421,2.043-4.485,2.043
			c-2.989,0-5.433-2.296-5.433-5.686c0-3.159,2.211-5.686,5.223-5.686c3.222,0,5.074,2.569,5.074,5.77c0,0.147,0,0.316-0.021,0.568
			h-8.634C291.191,376.086,292.876,377.413,294.793,377.413z M297.973,372.485c-0.189-1.979-1.327-3.663-3.475-3.663
			c-1.874,0-3.307,1.558-3.538,3.663H297.973z"/>
		<path fill="#32445F" d="M302.454,367.684h1.622v1.896c0.716-1.18,1.853-2.127,3.727-2.127c2.633,0,4.17,1.769,4.17,4.358v6.76
			h-1.622v-6.359c0-2.021-1.095-3.285-3.011-3.285c-1.874,0-3.264,1.369-3.264,3.412v6.232h-1.622V367.684z"/>
		<path fill="#32445F" d="M315.992,375.686v-6.57h-1.517v-1.432h1.517v-3.285h1.621v3.285h3.453v1.432h-3.453v6.359
			c0,1.327,0.737,1.812,1.832,1.812c0.547,0,1.011-0.105,1.579-0.379v1.39c-0.568,0.295-1.179,0.463-1.958,0.463
			C317.318,378.76,315.992,377.897,315.992,375.686z"/>
		<path fill="#32445F" d="M323.022,377.181l0.821-1.158c1.18,0.885,2.484,1.39,3.77,1.39c1.306,0,2.253-0.674,2.253-1.769
			s-1.284-1.517-2.717-1.916c-1.705-0.484-3.601-1.074-3.601-3.117c0-1.874,1.559-3.116,3.706-3.116c1.327,0,2.801,0.463,3.917,1.2
			l-0.737,1.222c-1.011-0.653-2.169-1.053-3.222-1.053c-1.284,0-2.105,0.674-2.105,1.621c0,1.032,1.348,1.432,2.801,1.874
			c1.685,0.506,3.495,1.158,3.495,3.158c0,2.064-1.706,3.265-3.874,3.265C325.971,378.782,324.244,378.17,323.022,377.181z"/>
	</g>
	<g>
		<path fill="#32445F" d="M283.985,470.931h5.517c3.327,0,5.517,1.77,5.517,4.717c0,3.18-2.652,4.822-5.79,4.822h-3.58v5.201h-1.663
			V470.931z M289.291,478.955c2.443,0,4.043-1.306,4.043-3.285c0-2.105-1.579-3.201-3.958-3.201h-3.728v6.486H289.291z"/>
		<path fill="#32445F" d="M297.1,480.239c0-3.074,2.4-5.686,5.686-5.686c3.263,0,5.666,2.569,5.666,5.686
			c0,3.074-2.422,5.686-5.708,5.686C299.48,485.924,297.1,483.355,297.1,480.239z M306.787,480.239c0-2.338-1.748-4.254-4.043-4.254
			c-2.358,0-3.979,1.916-3.979,4.254c0,2.337,1.727,4.232,4.021,4.232C305.145,484.471,306.787,482.576,306.787,480.239z"/>
		<path fill="#32445F" d="M311.373,474.785h1.623v2.843c0.799-1.811,2.379-3.116,4.441-3.032v1.748h-0.125
			c-2.381,0-4.316,1.705-4.316,4.99v4.338h-1.623V474.785z"/>
		<path fill="#32445F" d="M320.469,482.787v-6.57h-1.516v-1.432h1.516V471.5h1.621v3.285h3.453v1.432h-3.453v6.359
			c0,1.327,0.738,1.812,1.832,1.812c0.547,0,1.012-0.105,1.58-0.379v1.39c-0.568,0.295-1.18,0.463-1.959,0.463
			C321.795,485.861,320.469,484.998,320.469,482.787z"/>
		<path fill="#32445F" d="M327.416,480.239c0-3.074,2.4-5.686,5.686-5.686c3.264,0,5.664,2.569,5.664,5.686
			c0,3.074-2.422,5.686-5.707,5.686C329.795,485.924,327.416,483.355,327.416,480.239z M337.102,480.239
			c0-2.338-1.748-4.254-4.043-4.254c-2.357,0-3.979,1.916-3.979,4.254c0,2.337,1.727,4.232,4.021,4.232
			C335.459,484.471,337.102,482.576,337.102,480.239z"/>
		<path fill="#32445F" d="M341.836,470.299h1.623v15.372h-1.623V470.299z"/>
		<path fill="#32445F" d="M347.268,470.616h1.854v1.79h-1.854V470.616z M347.373,474.785h1.623v10.887h-1.623V474.785z"/>
		<path fill="#32445F" d="M352.088,480.239c0-3.074,2.4-5.686,5.686-5.686c3.264,0,5.666,2.569,5.666,5.686
			c0,3.074-2.422,5.686-5.707,5.686C354.469,485.924,352.088,483.355,352.088,480.239z M361.775,480.239
			c0-2.338-1.748-4.254-4.043-4.254c-2.359,0-3.98,1.916-3.98,4.254c0,2.337,1.727,4.232,4.021,4.232
			C360.133,484.471,361.775,482.576,361.775,480.239z"/>
	</g>
	<g>
		<path fill="#32445F" d="M25.275,1015.429l-2.78,0.863l-0.399-1.348l3.601-1.243h1.222v14.846h-1.643V1015.429z"/>
		<path fill="#32445F" d="M30.348,1021.177c0-4.127,2.464-7.622,6.254-7.622s6.19,3.453,6.19,7.622c0,4.127-2.442,7.623-6.232,7.623
			C32.748,1028.8,30.348,1025.346,30.348,1021.177z M41.065,1021.177c0-3.222-1.769-6.106-4.506-6.106
			c-2.759,0-4.485,2.821-4.485,6.106c0,3.222,1.769,6.106,4.527,6.106S41.065,1024.44,41.065,1021.177z"/>
		<path fill="#32445F" d="M45.189,1017.407c0-2,1.348-3.769,3.369-3.769c1.979,0,3.307,1.747,3.307,3.769
			c0,2.001-1.348,3.77-3.349,3.77C46.517,1021.177,45.189,1019.429,45.189,1017.407z M50.475,1017.407
			c0-1.474-0.884-2.59-1.958-2.59c-1.158,0-1.916,1.158-1.916,2.59c0,1.475,0.863,2.591,1.958,2.591
			C49.696,1019.998,50.475,1018.86,50.475,1017.407z M57.529,1013.807h1.495l-10.803,14.74h-1.516L57.529,1013.807z
			 M53.887,1024.946c0-2.001,1.348-3.77,3.348-3.77s3.306,1.748,3.306,3.77c0,2-1.326,3.769-3.348,3.769
			C55.213,1028.715,53.887,1026.968,53.887,1024.946z M59.15,1024.946c0-1.475-0.863-2.59-1.958-2.59
			c-1.138,0-1.916,1.158-1.916,2.59c0,1.474,0.863,2.59,1.958,2.59C58.393,1027.536,59.15,1026.399,59.15,1024.946z"/>
		<path fill="#32445F" d="M15.917,1039.07h10.592v1.537H17.58v5.265h7.98v1.516h-7.98v6.423h-1.663V1039.07z"/>
		<path fill="#32445F" d="M29.728,1039.07h10.654v1.517h-8.991v5.032h8.044v1.517h-8.044v5.159h9.097v1.516h-10.76V1039.07z"/>
		<path fill="#32445F" d="M43.833,1039.07h10.654v1.517h-8.991v5.032h8.044v1.517h-8.044v5.159h9.097v1.516h-10.76V1039.07z"/>
		<path fill="#32445F" d="M56.97,1051.663l1.031-1.222c1.537,1.39,3.012,2.085,5.054,2.085c1.979,0,3.285-1.053,3.285-2.548
			c0-1.369-0.737-2.148-3.832-2.801c-3.391-0.737-4.948-1.832-4.948-4.296c0-2.316,2.042-4.021,4.843-4.021
			c2.147,0,3.685,0.61,5.18,1.811l-0.969,1.284c-1.368-1.115-2.737-1.6-4.253-1.6c-1.916,0-3.138,1.053-3.138,2.421
			c0,1.39,0.758,2.169,4.001,2.864c3.285,0.716,4.801,1.916,4.801,4.211c0,2.527-2.105,4.17-5.032,4.17
			C60.654,1054.021,58.738,1053.242,56.97,1051.663z"/>
	</g>
	<g>
		<path fill="#32445F" d="M476.74,1134.263l5.349-4.717c2.274-2.001,3.074-3.159,3.074-4.633c0-1.727-1.369-2.821-2.969-2.821
			c-1.685,0-2.78,0.884-3.959,2.526l-1.222-0.885c1.327-1.979,2.717-3.137,5.307-3.137c2.653,0,4.569,1.769,4.569,4.211
			c0,2.147-1.158,3.453-3.727,5.728l-3.938,3.496h7.812v1.516H476.74V1134.263z"/>
		<path fill="#32445F" d="M489.646,1128.177c0-4.127,2.464-7.622,6.254-7.622s6.19,3.453,6.19,7.622
			c0,4.127-2.442,7.623-6.232,7.623C492.046,1135.8,489.646,1132.346,489.646,1128.177z M500.363,1128.177
			c0-3.222-1.769-6.106-4.506-6.106c-2.759,0-4.485,2.821-4.485,6.106c0,3.222,1.769,6.106,4.527,6.106
			S500.363,1131.44,500.363,1128.177z"/>
		<path fill="#32445F" d="M504.762,1128.366h5.854v1.706h-5.854V1128.366z"/>
		<path fill="#32445F" d="M513.267,1128.556c0-4.485,2.274-8.001,6.128-8.001c1.769,0,3.074,0.631,4.358,1.684l-0.968,1.285
			c-1.096-0.927-2.127-1.453-3.475-1.453c-2.653,0-4.317,2.674-4.317,6.443v0.063c0.801-1.18,2.043-2.253,4.19-2.253
			c2.738,0,5.096,1.769,5.096,4.569c0,2.843-2.295,4.906-5.285,4.906C515.688,1135.8,513.267,1133.799,513.267,1128.556z
			 M522.574,1130.914c0-1.811-1.474-3.158-3.601-3.158c-2.211,0-3.686,1.579-3.686,3.264c0,1.874,1.559,3.306,3.728,3.306
			S522.574,1132.83,522.574,1130.914z"/>
		<path fill="#32445F" d="M526.908,1128.177c0-4.127,2.464-7.622,6.254-7.622s6.19,3.453,6.19,7.622
			c0,4.127-2.442,7.623-6.232,7.623C529.309,1135.8,526.908,1132.346,526.908,1128.177z M537.626,1128.177
			c0-3.222-1.769-6.106-4.506-6.106c-2.759,0-4.485,2.821-4.485,6.106c0,3.222,1.769,6.106,4.527,6.106
			S537.626,1131.44,537.626,1128.177z"/>
		<path fill="#32445F" d="M541.75,1124.407c0-2,1.348-3.769,3.369-3.769c1.979,0,3.307,1.747,3.307,3.769
			c0,2.001-1.348,3.77-3.349,3.77C543.077,1128.177,541.75,1126.429,541.75,1124.407z M547.035,1124.407
			c0-1.474-0.884-2.59-1.958-2.59c-1.158,0-1.916,1.158-1.916,2.59c0,1.475,0.863,2.591,1.958,2.591
			C546.257,1126.998,547.035,1125.86,547.035,1124.407z M554.09,1120.807h1.495l-10.803,14.74h-1.516L554.09,1120.807z
			 M550.447,1131.946c0-2.001,1.348-3.77,3.348-3.77s3.306,1.748,3.306,3.77c0,2-1.326,3.769-3.348,3.769
			C551.773,1135.715,550.447,1133.968,550.447,1131.946z M555.711,1131.946c0-1.475-0.863-2.59-1.958-2.59
			c-1.138,0-1.916,1.158-1.916,2.59c0,1.474,0.863,2.59,1.958,2.59C554.953,1134.536,555.711,1133.399,555.711,1131.946z"/>
		<path fill="#32445F" d="M490.099,1146.07h6.338c1.811,0,3.264,0.548,4.19,1.475c0.716,0.716,1.137,1.747,1.137,2.947
			c0,2.443-1.685,3.875-4.001,4.296l4.527,6.022h-2.042l-4.274-5.728h-4.212v5.728h-1.663V1146.07z M496.289,1153.588
			c2.211,0,3.79-1.137,3.79-3.074c0-1.811-1.39-2.906-3.769-2.906h-4.549v5.98H496.289z"/>
		<path fill="#32445F" d="M509.637,1159.652c1.495,0,2.548-0.61,3.432-1.537l1.011,0.905c-1.095,1.222-2.421,2.043-4.485,2.043
			c-2.989,0-5.433-2.296-5.433-5.686c0-3.159,2.211-5.686,5.223-5.686c3.222,0,5.074,2.569,5.074,5.77c0,0.147,0,0.316-0.021,0.568
			h-8.634C506.035,1158.326,507.72,1159.652,509.637,1159.652z M512.816,1154.725c-0.189-1.979-1.327-3.663-3.475-3.663
			c-1.874,0-3.307,1.558-3.538,3.663H512.816z"/>
		<path fill="#32445F" d="M517.34,1145.755h1.854v1.79h-1.854V1145.755z M517.445,1149.924h1.622v10.887h-1.622V1149.924z"/>
		<path fill="#32445F" d="M522.835,1149.924h1.622v1.896c0.716-1.18,1.853-2.127,3.727-2.127c2.633,0,4.17,1.769,4.17,4.358v6.76
			h-1.622v-6.359c0-2.021-1.095-3.285-3.011-3.285c-1.874,0-3.264,1.369-3.264,3.412v6.232h-1.622V1149.924z"/>
		<path fill="#32445F" d="M534.309,1149.924h1.789l3.664,9.033l3.686-9.033h1.748l-4.738,10.971h-1.432L534.309,1149.924z"/>
		<path fill="#32445F" d="M476.267,1184.684l0.821-1.158c1.18,0.885,2.484,1.39,3.77,1.39c1.306,0,2.253-0.674,2.253-1.769
			s-1.284-1.517-2.717-1.916c-1.705-0.484-3.601-1.074-3.601-3.117c0-1.874,1.559-3.116,3.706-3.116c1.327,0,2.801,0.464,3.917,1.2
			l-0.737,1.222c-1.011-0.653-2.169-1.053-3.222-1.053c-1.284,0-2.105,0.674-2.105,1.621c0,1.032,1.348,1.432,2.801,1.874
			c1.685,0.506,3.495,1.158,3.495,3.158c0,2.064-1.706,3.265-3.874,3.265C479.215,1186.284,477.488,1185.673,476.267,1184.684z"/>
		<path fill="#32445F" d="M488.015,1183.188v-6.57h-1.517v-1.432h1.517v-3.285h1.621v3.285h3.453v1.432h-3.453v6.359
			c0,1.327,0.737,1.812,1.832,1.812c0.547,0,1.011-0.105,1.579-0.379v1.39c-0.568,0.295-1.18,0.463-1.958,0.463
			C489.341,1186.263,488.015,1185.399,488.015,1183.188z"/>
		<path fill="#32445F" d="M495.95,1175.187h1.622v1.832c0.716-1.074,1.685-2.063,3.517-2.063c1.769,0,2.905,0.947,3.495,2.169
			c0.779-1.2,1.938-2.169,3.832-2.169c2.506,0,4.043,1.685,4.043,4.38v6.738h-1.621v-6.359c0-2.105-1.053-3.285-2.821-3.285
			c-1.643,0-3.012,1.222-3.012,3.369v6.275h-1.601v-6.401c0-2.043-1.073-3.243-2.8-3.243s-3.032,1.433-3.032,3.433v6.212h-1.622
			V1175.187z"/>
		<path fill="#32445F" d="M520.773,1184.915c1.495,0,2.548-0.61,3.432-1.537l1.011,0.905c-1.095,1.222-2.421,2.043-4.485,2.043
			c-2.989,0-5.433-2.296-5.433-5.686c0-3.158,2.211-5.686,5.223-5.686c3.222,0,5.074,2.569,5.074,5.77c0,0.147,0,0.316-0.021,0.568
			h-8.634C517.172,1183.589,518.856,1184.915,520.773,1184.915z M523.953,1179.987c-0.189-1.979-1.327-3.663-3.475-3.663
			c-1.874,0-3.307,1.558-3.538,3.663H523.953z"/>
		<path fill="#32445F" d="M528.435,1175.187h1.622v1.896c0.716-1.18,1.853-2.127,3.727-2.127c2.633,0,4.17,1.769,4.17,4.358v6.76
			h-1.622v-6.359c0-2.021-1.095-3.285-3.011-3.285c-1.874,0-3.264,1.369-3.264,3.411v6.233h-1.622V1175.187z"/>
		<path fill="#32445F" d="M541.973,1183.188v-6.57h-1.517v-1.432h1.517v-3.285h1.621v3.285h3.453v1.432h-3.453v6.359
			c0,1.327,0.737,1.812,1.832,1.812c0.547,0,1.011-0.105,1.579-0.379v1.39c-0.568,0.295-1.179,0.463-1.958,0.463
			C543.299,1186.263,541.973,1185.399,541.973,1183.188z"/>
		<path fill="#32445F" d="M549.003,1184.684l0.821-1.158c1.18,0.885,2.484,1.39,3.77,1.39c1.306,0,2.253-0.674,2.253-1.769
			s-1.284-1.517-2.717-1.916c-1.705-0.484-3.601-1.074-3.601-3.117c0-1.874,1.559-3.116,3.706-3.116c1.327,0,2.801,0.464,3.917,1.2
			l-0.737,1.222c-1.011-0.653-2.169-1.053-3.222-1.053c-1.284,0-2.105,0.674-2.105,1.621c0,1.032,1.348,1.432,2.801,1.874
			c1.685,0.506,3.495,1.158,3.495,3.158c0,2.064-1.706,3.265-3.874,3.265C551.951,1186.284,550.225,1185.673,549.003,1184.684z"/>
	</g>
	<g>
		<path fill="#32445F" d="M235.203,1593.5l1.2-1.073c1.138,1.39,2.506,2.189,4.316,2.189c1.79,0,3.223-1.137,3.223-2.905
			c0-1.832-1.706-2.843-4.128-2.843h-0.947l-0.337-0.99l4.653-5.243h-7.201v-1.495h9.412v1.222l-4.632,5.138
			c2.568,0.211,4.864,1.453,4.864,4.19c0,2.632-2.19,4.443-4.928,4.443C238.235,1596.133,236.403,1595.059,235.203,1593.5z"/>
		<path fill="#32445F" d="M248.361,1588.51c0-4.127,2.464-7.622,6.254-7.622s6.19,3.453,6.19,7.622c0,4.127-2.442,7.623-6.232,7.623
			C250.762,1596.133,248.361,1592.679,248.361,1588.51z M259.079,1588.51c0-3.222-1.769-6.106-4.506-6.106
			c-2.759,0-4.485,2.821-4.485,6.106c0,3.222,1.769,6.106,4.527,6.106S259.079,1591.773,259.079,1588.51z"/>
		<path fill="#32445F" d="M263.478,1588.699h5.854v1.706h-5.854V1588.699z"/>
		<path fill="#32445F" d="M279.395,1582.656h-8.107v-1.517h10.002v1.242l-6.695,13.498h-1.854L279.395,1582.656z"/>
		<path fill="#32445F" d="M283.288,1588.51c0-4.127,2.464-7.622,6.254-7.622s6.19,3.453,6.19,7.622c0,4.127-2.442,7.623-6.232,7.623
			C285.688,1596.133,283.288,1592.679,283.288,1588.51z M294.006,1588.51c0-3.222-1.769-6.106-4.506-6.106
			c-2.759,0-4.485,2.821-4.485,6.106c0,3.222,1.769,6.106,4.527,6.106S294.006,1591.773,294.006,1588.51z"/>
		<path fill="#32445F" d="M298.13,1584.74c0-2,1.348-3.769,3.369-3.769c1.979,0,3.307,1.747,3.307,3.769
			c0,2.001-1.348,3.77-3.349,3.77C299.457,1588.51,298.13,1586.762,298.13,1584.74z M303.415,1584.74c0-1.474-0.884-2.59-1.958-2.59
			c-1.158,0-1.916,1.158-1.916,2.59c0,1.475,0.863,2.591,1.958,2.591C302.637,1587.331,303.415,1586.193,303.415,1584.74z
			 M310.47,1581.14h1.495l-10.803,14.74h-1.516L310.47,1581.14z M306.827,1592.279c0-2.001,1.348-3.77,3.348-3.77
			s3.306,1.748,3.306,3.77c0,2-1.326,3.769-3.348,3.769C308.153,1596.048,306.827,1594.301,306.827,1592.279z M312.091,1592.279
			c0-1.475-0.863-2.59-1.958-2.59c-1.138,0-1.916,1.158-1.916,2.59c0,1.474,0.863,2.59,1.958,2.59
			C311.333,1594.869,312.091,1593.732,312.091,1592.279z"/>
		<path fill="#32445F" d="M225.877,1606.403h10.592v1.537h-8.929v5.265h7.98v1.516h-7.98v6.423h-1.663V1606.403z"/>
		<path fill="#32445F" d="M239.245,1617.017v-6.76h1.621v6.359c0,2.021,1.095,3.285,3.012,3.285c1.853,0,3.264-1.369,3.264-3.411
			v-6.233h1.601v10.887h-1.601v-1.896c-0.737,1.18-1.854,2.127-3.728,2.127C240.782,1621.375,239.245,1619.606,239.245,1617.017z"/>
		<path fill="#32445F" d="M252.382,1610.257h1.622v1.896c0.716-1.18,1.853-2.127,3.727-2.127c2.633,0,4.17,1.769,4.17,4.358v6.76
			h-1.622v-6.359c0-2.021-1.095-3.285-3.011-3.285c-1.874,0-3.264,1.369-3.264,3.412v6.232h-1.622V1610.257z"/>
		<path fill="#32445F" d="M264.718,1615.689c0-3.559,2.591-5.664,5.201-5.664c2.021,0,3.327,1.095,4.17,2.316v-6.57h1.621v15.372
			h-1.621v-2.189c-0.885,1.305-2.169,2.421-4.17,2.421C267.309,1621.375,264.718,1619.312,264.718,1615.689z M274.151,1615.669
			c0-2.506-1.916-4.19-3.938-4.19c-2.105,0-3.832,1.558-3.832,4.232c0,2.569,1.769,4.211,3.832,4.211
			C272.235,1619.922,274.151,1618.217,274.151,1615.669z"/>
		<path fill="#32445F" d="M278.949,1613.773c0-4.169,3.116-7.622,7.454-7.622c2.675,0,4.232,0.989,5.707,2.379l-1.095,1.18
			c-1.243-1.18-2.633-2.021-4.633-2.021c-3.264,0-5.707,2.652-5.707,6.085c0,3.411,2.464,6.086,5.707,6.086
			c2.021,0,3.348-0.779,4.759-2.127l1.095,1.158c-1.537,1.558-3.222,2.506-5.896,2.506
			C282.087,1621.396,278.949,1618.048,278.949,1613.773z"/>
		<path fill="#32445F" d="M293.981,1615.711c0-3.074,2.4-5.686,5.686-5.686c3.264,0,5.665,2.569,5.665,5.686
			c0,3.074-2.422,5.686-5.707,5.686C296.361,1621.396,293.981,1618.827,293.981,1615.711z M303.668,1615.711
			c0-2.338-1.748-4.254-4.043-4.254c-2.358,0-3.979,1.916-3.979,4.254c0,2.337,1.727,4.232,4.021,4.232
			C302.025,1619.943,303.668,1618.048,303.668,1615.711z"/>
		<path fill="#32445F" d="M308.298,1606.088h1.853v1.79h-1.853V1606.088z M308.402,1610.257h1.622v10.887h-1.622V1610.257z"/>
		<path fill="#32445F" d="M313.792,1610.257h1.622v1.896c0.716-1.18,1.853-2.127,3.727-2.127c2.633,0,4.17,1.769,4.17,4.358v6.76
			h-1.622v-6.359c0-2.021-1.095-3.285-3.011-3.285c-1.874,0-3.264,1.369-3.264,3.412v6.232h-1.622V1610.257z"/>
		<path fill="#32445F" d="M226.931,1631.666h6.274c1.685,0,3.032,0.464,3.854,1.306c0.611,0.632,0.948,1.411,0.948,2.4
			c0,1.916-1.18,2.906-2.338,3.411c1.748,0.526,3.158,1.537,3.158,3.602c0,2.526-2.126,4.021-5.348,4.021h-6.549V1631.666z
			 M232.932,1638.236c2,0,3.391-0.905,3.391-2.675c0-1.453-1.158-2.4-3.265-2.4h-4.484v5.075H232.932z M233.521,1644.911
			c2.231,0,3.622-0.989,3.622-2.674c0-1.601-1.348-2.527-3.917-2.527h-4.653v5.201H233.521z"/>
		<path fill="#32445F" d="M241.688,1642.279v-6.76h1.621v6.359c0,2.021,1.095,3.285,3.012,3.285c1.853,0,3.264-1.369,3.264-3.411
			v-6.233h1.601v10.887h-1.601v-1.896c-0.737,1.18-1.854,2.127-3.728,2.127C243.226,1646.638,241.688,1644.869,241.688,1642.279z"/>
		<path fill="#32445F" d="M254.192,1649.291l0.548-1.284c0.526,0.273,1.011,0.399,1.706,0.399c0.969,0,1.579-0.505,2.231-2.042
			l-4.948-10.845h1.79l3.959,9.076l3.495-9.076h1.727l-4.569,11.245c-0.927,2.253-1.979,3.074-3.622,3.074
			C255.604,1649.839,254.93,1649.649,254.192,1649.291z"/>
		<path fill="#32445F" d="M266.509,1639.226h5.854v1.706h-5.854V1639.226z"/>
		<path fill="#32445F" d="M277.162,1644.321v2.085h-1.622v-15.372h1.622v6.676c0.884-1.306,2.169-2.422,4.169-2.422
			c2.611,0,5.201,2.063,5.201,5.686c0,3.559-2.569,5.664-5.201,5.664C279.31,1646.638,278.004,1645.543,277.162,1644.321z
			 M284.869,1640.952c0-2.568-1.77-4.211-3.833-4.211c-2.021,0-3.938,1.705-3.938,4.232c0,2.526,1.916,4.211,3.938,4.211
			C283.142,1645.185,284.869,1643.627,284.869,1640.952z"/>
		<path fill="#32445F" d="M288.697,1643.206c0-2.338,1.896-3.56,4.654-3.56c1.39,0,2.358,0.19,3.327,0.464v-0.337
			c0-1.938-1.18-2.948-3.222-2.948c-1.285,0-2.296,0.316-3.307,0.779l-0.484-1.327c1.2-0.547,2.358-0.926,3.959-0.926
			c1.537,0,2.737,0.421,3.517,1.2c0.758,0.758,1.137,1.811,1.137,3.2v6.654h-1.6v-1.621c-0.759,0.969-2.001,1.853-3.917,1.853
			C290.719,1646.638,288.697,1645.479,288.697,1643.206z M296.699,1642.405v-1.011c-0.8-0.231-1.853-0.463-3.18-0.463
			c-2.021,0-3.18,0.884-3.18,2.231c0,1.369,1.264,2.169,2.737,2.169C295.078,1645.332,296.699,1644.132,296.699,1642.405z"/>
		<path fill="#32445F" d="M301.034,1640.974c0-3.074,2.4-5.686,5.58-5.686c2.064,0,3.349,0.863,4.359,1.938l-1.032,1.095
			c-0.863-0.905-1.874-1.601-3.348-1.601c-2.211,0-3.896,1.874-3.896,4.254c0,2.358,1.727,4.232,4.001,4.232
			c1.39,0,2.421-0.716,3.284-1.643l1.074,0.99c-1.095,1.221-2.4,2.105-4.443,2.105
			C303.435,1646.659,301.034,1644.069,301.034,1640.974z"/>
		<path fill="#32445F" d="M313.729,1631.034h1.622v10.613l5.875-6.128h2.021l-4.569,4.675l4.717,6.212h-1.938l-3.896-5.075
			l-2.211,2.232v2.843h-1.622V1631.034z"/>
	</g>
	<g>
		<linearGradient id="SVGID_2_" gradientUnits="userSpaceOnUse" x1="204.5248" y1="1840.4221" x2="443.8012" y2="1840.4221">
			<stop  offset="0" style="stop-color:#48BCE9"/>
			<stop  offset="1" style="stop-color:#3986C7"/>
		</linearGradient>
		<path fill="url(#SVGID_2_)" d="M425.12,1760.564l-82.275-47.503c-11.559-6.675-25.804-6.675-37.363,0l-82.276,47.503
			c-11.56,6.674-18.681,19.009-18.681,32.357v95.003c0,13.348,7.121,25.682,18.681,32.357l82.276,47.502
			c5.78,3.338,12.23,5.006,18.681,5.006s12.902-1.668,18.681-5.006l82.275-47.502c11.56-6.674,18.681-19.009,18.681-32.357v-95.003
			C443.801,1779.573,436.68,1767.239,425.12,1760.564z"/>
		<g>
			<path fill="#FFFFFF" d="M281.584,1823.111c0-5.8,4.575-10.551,10.87-10.551c6.296,0,10.812,4.692,10.812,10.551
				c0,5.8-4.575,10.55-10.87,10.55S281.584,1828.969,281.584,1823.111z M298.576,1823.111c0-3.498-2.565-6.412-6.179-6.412
				c-3.614,0-6.12,2.856-6.12,6.412c0,3.497,2.564,6.411,6.178,6.411C296.069,1829.522,298.576,1826.667,298.576,1823.111z"/>
			<path fill="#FFFFFF" d="M307.259,1812.91h8.335c4.867,0,7.811,2.886,7.811,7.111c0,4.722-3.672,7.17-8.247,7.17h-3.41v6.12
				h-4.488V1812.91z M315.303,1823.198c2.244,0,3.556-1.341,3.556-3.147c0-2.011-1.399-3.089-3.644-3.089h-3.468v6.236H315.303z"/>
			<path fill="#FFFFFF" d="M326.728,1812.91h15.388v3.993h-10.929v4.139h9.617v3.992h-9.617v4.284h11.075v3.993h-15.534V1812.91z"/>
			<path fill="#FFFFFF" d="M346.253,1812.91h4.139l9.559,12.562v-12.562h4.431v20.401h-3.818l-9.88-12.969v12.969h-4.43V1812.91z"/>
			<path fill="#FFFFFF" d="M261.344,1847.883h4.838l5.362,8.627l5.362-8.627h4.838v20.401h-4.459v-13.319l-5.741,8.715h-0.116
				l-5.684-8.627v13.231h-4.4V1847.883z"/>
			<path fill="#FFFFFF" d="M293.635,1847.737h4.139l8.743,20.547h-4.692l-1.865-4.575h-8.626l-1.865,4.575h-4.576L293.635,1847.737z
				 M298.357,1859.745l-2.71-6.616l-2.711,6.616H298.357z"/>
			<path fill="#FFFFFF" d="M309.664,1847.883h9.326c2.594,0,4.604,0.729,5.945,2.069c1.137,1.137,1.749,2.74,1.749,4.722
				c0,3.293-1.778,5.362-4.372,6.324l4.983,7.286h-5.246l-4.43-6.528h-3.468v6.528h-4.488V1847.883z M318.699,1857.792
				c2.187,0,3.439-1.165,3.439-2.943c0-1.924-1.341-2.914-3.526-2.914h-4.459v5.857H318.699z"/>
			<path fill="#FFFFFF" d="M330.735,1847.883h4.488v8.919l8.276-8.919h5.421l-8.306,8.656l8.685,11.745h-5.392l-6.324-8.685
				l-2.36,2.447v6.237h-4.488V1847.883z"/>
			<path fill="#FFFFFF" d="M352.009,1847.883h15.388v3.993h-10.929v4.139h9.617v3.992h-9.617v4.284h11.075v3.993h-15.534V1847.883z"
				/>
			<path fill="#FFFFFF" d="M376.286,1852.021h-6.207v-4.139h16.903v4.139h-6.208v16.263h-4.488V1852.021z"/>
		</g>
	</g>
	<g>
		<linearGradient id="SVGID_3_" gradientUnits="userSpaceOnUse" x1="204.5248" y1="1390.0914" x2="443.8012" y2="1390.0914">
			<stop  offset="0" style="stop-color:#48BCE9"/>
			<stop  offset="1" style="stop-color:#3986C7"/>
		</linearGradient>
		<path fill="url(#SVGID_3_)" d="M425.12,1310.234l-82.275-47.502c-11.559-6.675-25.804-6.675-37.363,0l-82.276,47.502
			c-11.56,6.674-18.681,19.009-18.681,32.357v95.003c0,13.348,7.121,25.682,18.681,32.357l82.276,47.502
			c5.78,3.338,12.23,5.006,18.681,5.006s12.902-1.668,18.681-5.006l82.275-47.502c11.56-6.674,18.681-19.009,18.681-32.357v-95.003
			C443.801,1329.242,436.68,1316.908,425.12,1310.234z"/>
		<g>
			<path fill="#FFFFFF" d="M249.949,1362.375h9.326c2.594,0,4.604,0.729,5.945,2.069c1.137,1.137,1.749,2.74,1.749,4.722
				c0,3.293-1.778,5.362-4.372,6.324l4.983,7.286h-5.246l-4.43-6.528h-3.468v6.528h-4.488V1362.375z M258.983,1372.284
				c2.187,0,3.439-1.165,3.439-2.943c0-1.924-1.341-2.914-3.526-2.914h-4.459v5.857H258.983z"/>
			<path fill="#FFFFFF" d="M271.019,1362.375h15.388v3.993h-10.929v4.139h9.617v3.992h-9.617v4.284h11.075v3.993h-15.534V1362.375z"
				/>
			<path fill="#FFFFFF" d="M297.54,1362.23h4.139l8.743,20.547h-4.692l-1.865-4.575h-8.626l-1.865,4.575h-4.576L297.54,1362.23z
				 M302.262,1374.237l-2.71-6.616l-2.711,6.616H302.262z"/>
			<path fill="#FFFFFF" d="M313.569,1362.375h4.488v16.321h10.171v4.08h-14.659V1362.375z"/>
			<path fill="#FFFFFF" d="M331.813,1362.375h4.488v20.401h-4.488V1362.375z"/>
			<path fill="#FFFFFF" d="M340.002,1379.804l2.652-3.177c1.836,1.516,3.76,2.478,6.092,2.478c1.836,0,2.943-0.729,2.943-1.982
				c0-1.137-0.7-1.719-4.109-2.594c-4.109-1.049-6.762-2.186-6.762-6.295c0-3.701,2.973-6.149,7.141-6.149
				c2.973,0,5.508,0.933,7.577,2.594l-2.331,3.381c-1.808-1.253-3.585-2.011-5.305-2.011s-2.623,0.786-2.623,1.836
				c0,1.341,0.874,1.777,4.4,2.681c4.139,1.079,6.471,2.565,6.471,6.179c0,4.052-3.09,6.324-7.49,6.324
				C345.569,1383.068,342.45,1381.989,340.002,1379.804z"/>
			<path fill="#FFFFFF" d="M360.053,1362.375h15.388v3.993h-10.929v4.139h9.617v3.992h-9.617v4.284h11.075v3.993h-15.534V1362.375z"
				/>
			<path fill="#FFFFFF" d="M379.579,1362.375h7.956c6.412,0,10.842,4.401,10.842,10.201c0,5.741-4.43,10.2-10.842,10.2h-7.956
				V1362.375z M387.535,1378.726c3.673,0,6.149-2.478,6.149-6.149c0-3.614-2.477-6.149-6.149-6.149h-3.468v12.299H387.535z"/>
			<path fill="#FFFFFF" d="M260.499,1397.348h8.335c4.867,0,7.811,2.886,7.811,7.111c0,4.722-3.672,7.17-8.247,7.17h-3.41v6.12
				h-4.488V1397.348z M268.543,1407.636c2.244,0,3.556-1.341,3.556-3.147c0-2.011-1.399-3.089-3.644-3.089h-3.468v6.236H268.543z"/>
			<path fill="#FFFFFF" d="M279.967,1397.348h9.326c2.594,0,4.604,0.729,5.945,2.069c1.137,1.137,1.749,2.74,1.749,4.722
				c0,3.293-1.778,5.362-4.372,6.324l4.983,7.286h-5.246l-4.43-6.528h-3.468v6.528h-4.488V1397.348z M289.001,1407.257
				c2.187,0,3.439-1.165,3.439-2.943c0-1.924-1.341-2.914-3.526-2.914h-4.459v5.857H289.001z"/>
			<path fill="#FFFFFF" d="M300.135,1407.549c0-5.8,4.575-10.551,10.87-10.551c6.296,0,10.812,4.692,10.812,10.551
				c0,5.8-4.575,10.55-10.87,10.55S300.135,1413.406,300.135,1407.549z M317.126,1407.549c0-3.498-2.565-6.412-6.179-6.412
				c-3.614,0-6.12,2.856-6.12,6.412c0,3.497,2.564,6.411,6.178,6.411C314.619,1413.96,317.126,1411.105,317.126,1407.549z"/>
			<path fill="#FFFFFF" d="M325.81,1397.348h15.534v4.08h-11.046v4.343h9.734v4.08h-9.734v7.898h-4.488V1397.348z"/>
			<path fill="#FFFFFF" d="M345.132,1397.348h4.488v20.401h-4.488V1397.348z"/>
			<path fill="#FFFFFF" d="M359.47,1401.486h-6.207v-4.139h16.903v4.139h-6.208v16.263h-4.488V1401.486z"/>
			<path fill="#FFFFFF" d="M371.768,1414.776l2.652-3.177c1.836,1.516,3.76,2.478,6.091,2.478c1.837,0,2.944-0.729,2.944-1.982
				c0-1.137-0.7-1.719-4.109-2.594c-4.109-1.049-6.762-2.186-6.762-6.295c0-3.701,2.973-6.149,7.141-6.149
				c2.973,0,5.508,0.933,7.577,2.594l-2.331,3.381c-1.808-1.253-3.585-2.011-5.305-2.011s-2.623,0.786-2.623,1.836
				c0,1.341,0.874,1.777,4.401,2.681c4.138,1.079,6.47,2.565,6.47,6.179c0,4.052-3.09,6.324-7.49,6.324
				C377.336,1418.04,374.217,1416.962,371.768,1414.776z"/>
		</g>
	</g>
	<g>
		
			<linearGradient id="SVGID_4_" gradientUnits="userSpaceOnUse" x1="372.0453" y1="442.8482" x2="865.8384" y2="442.8482" gradientTransform="matrix(1 0 0 1 -294.7788 348.7156)">
			<stop  offset="0" style="stop-color:#48BCE9"/>
			<stop  offset="1" style="stop-color:#3986C7"/>
		</linearGradient>
		<path fill="url(#SVGID_4_)" d="M553.067,638.631l-210.911-121.77c-11.135-6.429-24.851-6.429-35.985,0L95.259,638.631
			c-11.134,6.427-17.993,18.307-17.993,31.164v243.539c0,12.857,6.859,24.736,17.993,31.164l210.911,121.77
			c5.567,3.215,11.78,4.821,17.993,4.821c6.213,0,12.425-1.607,17.993-4.821l210.911-121.77
			c11.134-6.427,17.993-18.307,17.993-31.164V669.795C571.06,656.938,564.201,645.058,553.067,638.631z"/>
		<g>
			<path opacity="0.54" fill="#94D9F3" d="M404.432,582.595l-73.959-42.701c-3.905-2.255-8.714-2.255-12.619,0l-73.959,42.701
				c-3.904,2.254-6.309,6.42-6.309,10.928v85.401c0,4.508,2.405,8.674,6.309,10.928l73.959,42.701
				c1.952,1.127,4.131,1.691,6.309,1.691s4.357-0.563,6.309-1.691l73.959-42.701c3.904-2.254,6.309-6.42,6.309-10.928v-85.401
				C410.741,589.015,408.336,584.849,404.432,582.595z"/>
			<g>
				<path fill="#FFFFFF" d="M308.671,615.011h3.798l4.09,11.016l4.089-11.016h3.709l-6.323,15.753h-3.039L308.671,615.011z"/>
				<path fill="#FFFFFF" d="M325.067,622.831c0-4.446,3.351-8.089,8.155-8.089c2.949,0,4.603,1.117,6.055,2.547l-2.056,2.369
					c-1.206-1.095-2.234-1.744-4.022-1.744c-2.636,0-4.536,2.19-4.536,4.916c0,2.681,1.855,4.916,4.536,4.916
					c1.788,0,2.883-0.715,4.111-1.833l2.19,2.346c-1.609,1.721-3.396,2.66-6.412,2.66
					C328.486,630.92,325.067,627.367,325.067,622.831z"/>
				<path fill="#FFFFFF" d="M284.735,641.818h11.909v3.128h-8.468v3.329h7.463v3.128h-7.463v6.055h-3.441V641.818z"/>
				<path fill="#FFFFFF" d="M299.143,650.756v-8.938h3.441v8.848c0,2.547,1.274,3.865,3.374,3.865s3.373-1.274,3.373-3.754v-8.959
					h3.442v8.826c0,4.737-2.659,7.061-6.86,7.061C301.713,657.704,299.143,655.358,299.143,650.756z"/>
				<path fill="#FFFFFF" d="M316.277,641.818h3.173l7.329,9.63v-9.63h3.396v15.641h-2.927l-7.575-9.943v9.943h-3.396V641.818z"/>
				<path fill="#FFFFFF" d="M333.924,641.818h6.099c4.916,0,8.312,3.374,8.312,7.82c0,4.402-3.396,7.82-8.312,7.82h-6.099V641.818z
					 M340.024,654.353c2.816,0,4.715-1.9,4.715-4.715c0-2.771-1.899-4.715-4.715-4.715h-2.659v9.429H340.024z"/>
				<path fill="#FFFFFF" d="M360.195,645.192l-2.726,0.67l-0.715-2.816l4.491-1.341h2.346v15.753h-3.396V645.192z"/>
			</g>
		</g>
		<g>
			<path opacity="0.54" fill="#94D9F3" d="M404.432,893.276l-73.959-42.701c-3.905-2.254-8.714-2.254-12.619,0l-73.959,42.701
				c-3.904,2.254-6.309,6.42-6.309,10.928v85.401c0,4.508,2.405,8.674,6.309,10.928l73.959,42.701
				c1.952,1.127,4.131,1.691,6.309,1.691s4.357-0.563,6.309-1.691l73.959-42.701c3.904-2.254,6.309-6.42,6.309-10.928v-85.401
				C410.741,899.696,408.336,895.53,404.432,893.276z"/>
			<g>
				<path fill="#FFFFFF" d="M277.451,933.512c0-4.446,3.351-8.089,8.155-8.089c2.949,0,4.603,1.117,6.055,2.547l-2.056,2.369
					c-1.206-1.095-2.234-1.744-4.022-1.744c-2.636,0-4.536,2.19-4.536,4.916c0,2.681,1.855,4.916,4.536,4.916
					c1.788,0,2.883-0.715,4.111-1.833l2.19,2.346c-1.609,1.721-3.396,2.659-6.412,2.659
					C280.87,941.601,277.451,938.048,277.451,933.512z"/>
				<path fill="#FFFFFF" d="M294.63,925.692h7.15c1.988,0,3.53,0.558,4.557,1.586c0.872,0.872,1.342,2.1,1.342,3.62
					c0,2.525-1.363,4.111-3.352,4.848l3.821,5.586h-4.022l-3.397-5.005h-2.659v5.005h-3.441V925.692z M301.556,933.289
					c1.676,0,2.637-0.894,2.637-2.258c0-1.474-1.028-2.234-2.704-2.234h-3.418v4.492H301.556z"/>
				<path fill="#FFFFFF" d="M314.623,935.165l-6.01-9.473h4.022l3.732,6.278l3.798-6.278h3.911l-6.011,9.407v6.234h-3.441V935.165z"
					/>
				<path fill="#FFFFFF" d="M326.217,925.692h6.39c3.731,0,5.988,2.212,5.988,5.452c0,3.62-2.816,5.497-6.323,5.497h-2.614v4.692
					h-3.441V925.692z M332.383,933.579c1.721,0,2.726-1.028,2.726-2.413c0-1.542-1.072-2.369-2.793-2.369h-2.659v4.781H332.383z"/>
				<path fill="#FFFFFF" d="M344.781,928.864h-4.759v-3.173h12.96v3.173h-4.76v12.468h-3.441V928.864z"/>
				<path fill="#FFFFFF" d="M354.251,933.512c0-4.446,3.508-8.089,8.334-8.089c4.826,0,8.289,3.597,8.289,8.089
					c0,4.446-3.508,8.089-8.334,8.089C357.715,941.601,354.251,938.003,354.251,933.512z M367.278,933.512
					c0-2.681-1.967-4.916-4.737-4.916c-2.771,0-4.692,2.19-4.692,4.916c0,2.681,1.967,4.916,4.737,4.916
					C365.356,938.428,367.278,936.238,367.278,933.512z"/>
				<path fill="#FFFFFF" d="M282.445,952.498h11.909v3.128h-8.468v3.329h7.463v3.128h-7.463v6.055h-3.441V952.498z"/>
				<path fill="#FFFFFF" d="M296.853,961.436v-8.938h3.441v8.848c0,2.547,1.274,3.865,3.374,3.865s3.373-1.274,3.373-3.754v-8.959
					h3.442v8.826c0,4.737-2.659,7.061-6.86,7.061C299.422,968.385,296.853,966.039,296.853,961.436z"/>
				<path fill="#FFFFFF" d="M313.987,952.498h3.173l7.329,9.63v-9.63h3.396v15.641h-2.927l-7.575-9.943v9.943h-3.396V952.498z"/>
				<path fill="#FFFFFF" d="M331.634,952.498h6.099c4.916,0,8.312,3.374,8.312,7.82c0,4.402-3.396,7.82-8.312,7.82h-6.099V952.498z
					 M337.733,965.033c2.816,0,4.715-1.9,4.715-4.715c0-2.771-1.899-4.715-4.715-4.715h-2.659v9.429H337.733z"/>
				<path fill="#FFFFFF" d="M362.798,955.471h-7.352v-2.972h11.261v2.592l-7.016,13.049h-3.887L362.798,955.471z"/>
			</g>
		</g>
		<g>
			<path opacity="0.54" fill="#94D9F3" d="M404.432,737.936l-73.959-42.701c-3.905-2.255-8.714-2.255-12.619,0l-73.959,42.701
				c-3.904,2.254-6.309,6.42-6.309,10.928v85.401c0,4.508,2.405,8.674,6.309,10.928l73.959,42.701
				c1.952,1.127,4.131,1.691,6.309,1.691s4.357-0.563,6.309-1.691l73.959-42.701c3.904-2.254,6.309-6.42,6.309-10.928v-85.401
				C410.741,744.355,408.336,740.19,404.432,737.936z"/>
			<g>
				<path fill="#FFFFFF" d="M277.451,778.16c0-4.446,3.351-8.089,8.155-8.089c2.949,0,4.603,1.117,6.055,2.547l-2.056,2.369
					c-1.206-1.095-2.234-1.743-4.022-1.743c-2.636,0-4.536,2.19-4.536,4.916c0,2.681,1.855,4.916,4.536,4.916
					c1.788,0,2.883-0.716,4.111-1.833l2.19,2.346c-1.609,1.721-3.396,2.659-6.412,2.659
					C280.87,786.249,277.451,782.696,277.451,778.16z"/>
				<path fill="#FFFFFF" d="M294.63,770.34h7.15c1.988,0,3.53,0.558,4.557,1.586c0.872,0.872,1.342,2.1,1.342,3.62
					c0,2.525-1.363,4.111-3.352,4.848l3.821,5.586h-4.022l-3.397-5.005h-2.659v5.005h-3.441V770.34z M301.556,777.937
					c1.676,0,2.637-0.894,2.637-2.258c0-1.474-1.028-2.234-2.704-2.234h-3.418v4.492H301.556z"/>
				<path fill="#FFFFFF" d="M314.623,779.814l-6.01-9.474h4.022l3.732,6.278l3.798-6.278h3.911l-6.011,9.407v6.234h-3.441V779.814z"
					/>
				<path fill="#FFFFFF" d="M326.217,770.34h6.39c3.731,0,5.988,2.212,5.988,5.452c0,3.62-2.816,5.497-6.323,5.497h-2.614v4.692
					h-3.441V770.34z M332.383,778.227c1.721,0,2.726-1.028,2.726-2.413c0-1.542-1.072-2.369-2.793-2.369h-2.659v4.781H332.383z"/>
				<path fill="#FFFFFF" d="M344.781,773.513h-4.759v-3.173h12.96v3.173h-4.76v12.468h-3.441V773.513z"/>
				<path fill="#FFFFFF" d="M354.251,778.16c0-4.446,3.508-8.089,8.334-8.089c4.826,0,8.289,3.597,8.289,8.089
					c0,4.446-3.508,8.089-8.334,8.089C357.715,786.249,354.251,782.652,354.251,778.16z M367.278,778.16
					c0-2.681-1.967-4.916-4.737-4.916c-2.771,0-4.692,2.19-4.692,4.916c0,2.681,1.967,4.916,4.737,4.916
					C365.356,783.077,367.278,780.887,367.278,778.16z"/>
				<path fill="#FFFFFF" d="M281.964,797.147h11.909v3.128h-8.468v3.329h7.463v3.128h-7.463v6.055h-3.441V797.147z"/>
				<path fill="#FFFFFF" d="M296.373,806.085v-8.938h3.441v8.848c0,2.547,1.274,3.865,3.374,3.865c2.1,0,3.373-1.274,3.373-3.754
					v-8.959h3.442v8.826c0,4.737-2.659,7.061-6.86,7.061C298.942,813.033,296.373,810.687,296.373,806.085z"/>
				<path fill="#FFFFFF" d="M313.507,797.147h3.173l7.329,9.63v-9.63h3.396v15.641h-2.927l-7.575-9.943v9.943h-3.396V797.147z"/>
				<path fill="#FFFFFF" d="M331.154,797.147h6.099c4.916,0,8.312,3.374,8.312,7.82c0,4.402-3.396,7.82-8.312,7.82h-6.099V797.147z
					 M337.253,809.682c2.816,0,4.715-1.9,4.715-4.715c0-2.771-1.899-4.715-4.715-4.715h-2.659v9.429H337.253z"/>
				<path fill="#FFFFFF" d="M356.509,811.38c-1.14-1.14-1.855-2.816-1.855-5.966c0-4.827,2.19-8.536,6.859-8.536
					c2.123,0,3.508,0.626,4.893,1.721l-1.81,2.659c-1.027-0.782-1.855-1.251-3.195-1.251c-1.943,0-2.927,1.564-3.15,3.62
					c0.782-0.514,1.698-1.005,3.239-1.005c3.106,0,5.497,1.72,5.497,5.027c0,3.195-2.569,5.407-5.966,5.407
					C358.988,813.056,357.604,812.475,356.509,811.38z M363.569,807.76c0-1.319-1.028-2.279-2.726-2.279s-2.681,0.939-2.681,2.301
					c0,1.319,1.028,2.324,2.726,2.324C362.586,810.106,363.569,809.145,363.569,807.76z"/>
			</g>
		</g>
		<g>
			<path opacity="0.54" fill="#94D9F3" d="M267.224,661.498l-73.959-42.701c-3.905-2.255-8.714-2.255-12.619,0l-73.959,42.701
				c-3.904,2.254-6.309,6.42-6.309,10.928v85.401c0,4.508,2.405,8.674,6.309,10.928l73.959,42.701
				c1.952,1.127,4.131,1.691,6.309,1.691c2.179,0,4.357-0.563,6.309-1.691l73.959-42.701c3.904-2.254,6.309-6.42,6.309-10.928
				v-85.401C273.533,667.918,271.128,663.752,267.224,661.498z"/>
			<g>
				<path fill="#FFFFFF" d="M171.061,693.914h3.798l4.09,11.016l4.089-11.016h3.709l-6.323,15.753h-3.039L171.061,693.914z"/>
				<path fill="#FFFFFF" d="M187.457,701.734c0-4.446,3.351-8.089,8.155-8.089c2.949,0,4.603,1.117,6.055,2.547l-2.056,2.369
					c-1.206-1.095-2.234-1.744-4.022-1.744c-2.636,0-4.536,2.19-4.536,4.916c0,2.681,1.855,4.916,4.536,4.916
					c1.788,0,2.883-0.715,4.111-1.833l2.19,2.346c-1.609,1.721-3.396,2.66-6.412,2.66
					C190.876,709.823,187.457,706.27,187.457,701.734z"/>
				<path fill="#FFFFFF" d="M144.88,720.721h11.909v3.128h-8.468v3.329h7.463v3.128h-7.463v6.055h-3.441V720.721z"/>
				<path fill="#FFFFFF" d="M159.288,729.658v-8.938h3.441v8.848c0,2.547,1.274,3.865,3.374,3.865c2.1,0,3.373-1.274,3.373-3.754
					v-8.959h3.442v8.826c0,4.737-2.66,7.061-6.86,7.061C161.857,736.607,159.288,734.261,159.288,729.658z"/>
				<path fill="#FFFFFF" d="M176.422,720.721h3.173l7.329,9.63v-9.63h3.396v15.641h-2.927l-7.575-9.943v9.943h-3.396V720.721z"/>
				<path fill="#FFFFFF" d="M194.069,720.721h6.099c4.916,0,8.312,3.374,8.312,7.82c0,4.402-3.396,7.82-8.312,7.82h-6.099V720.721z
					 M200.168,733.256c2.816,0,4.715-1.9,4.715-4.715c0-2.771-1.899-4.715-4.715-4.715h-2.659v9.429H200.168z"/>
				<path fill="#FFFFFF" d="M217.457,733.635l5.206-4.267c1.944-1.609,2.704-2.458,2.704-3.753c0-1.319-0.872-2.034-2.1-2.034
					c-1.207,0-2.033,0.67-3.195,2.1l-2.413-1.944c1.541-2.1,3.038-3.239,5.831-3.239c3.24,0,5.385,1.899,5.385,4.871
					c0,2.614-1.341,3.91-4.111,6.055l-2.547,1.966h6.815v2.972h-11.574V733.635z"/>
			</g>
		</g>
		<g>
			<path opacity="0.54" fill="#94D9F3" d="M267.224,814.373l-73.959-42.701c-3.905-2.254-8.714-2.254-12.619,0l-73.959,42.701
				c-3.904,2.254-6.309,6.42-6.309,10.928v85.401c0,4.508,2.405,8.674,6.309,10.928l73.959,42.701
				c1.952,1.127,4.131,1.691,6.309,1.691c2.179,0,4.357-0.563,6.309-1.691l73.959-42.701c3.904-2.254,6.309-6.42,6.309-10.928
				v-85.401C273.533,820.793,271.128,816.627,267.224,814.373z"/>
			<g>
				<path fill="#FFFFFF" d="M171.083,846.778h3.798l4.09,11.016l4.089-11.016h3.709l-6.323,15.753h-3.039L171.083,846.778z"/>
				<path fill="#FFFFFF" d="M187.479,854.598c0-4.446,3.351-8.089,8.155-8.089c2.949,0,4.603,1.117,6.055,2.547l-2.056,2.369
					c-1.206-1.095-2.234-1.744-4.022-1.744c-2.636,0-4.536,2.19-4.536,4.916c0,2.681,1.855,4.916,4.536,4.916
					c1.788,0,2.883-0.715,4.111-1.833l2.19,2.346c-1.609,1.721-3.396,2.66-6.412,2.66
					C190.898,862.687,187.479,859.134,187.479,854.598z"/>
				<path fill="#FFFFFF" d="M144.924,873.585h11.909v3.128h-8.468v3.329h7.463v3.128h-7.463v6.055h-3.441V873.585z"/>
				<path fill="#FFFFFF" d="M159.333,882.522v-8.938h3.441v8.848c0,2.547,1.274,3.865,3.374,3.865s3.373-1.274,3.373-3.754v-8.959
					h3.442v8.826c0,4.737-2.66,7.061-6.86,7.061C161.902,889.471,159.333,887.125,159.333,882.522z"/>
				<path fill="#FFFFFF" d="M176.467,873.585h3.173l7.329,9.63v-9.63h3.396v15.641h-2.927l-7.575-9.943v9.943h-3.396V873.585z"/>
				<path fill="#FFFFFF" d="M194.113,873.585h6.099c4.916,0,8.312,3.374,8.312,7.82c0,4.402-3.396,7.82-8.312,7.82h-6.099V873.585z
					 M200.213,886.12c2.816,0,4.715-1.9,4.715-4.715c0-2.771-1.899-4.715-4.715-4.715h-2.659v9.429H200.213z"/>
				<path fill="#FFFFFF" d="M217.256,886.79l2.369-2.257c1.072,1.206,2.19,1.876,3.776,1.876c1.295,0,2.212-0.737,2.212-1.943
					c0-1.274-1.14-1.989-3.061-1.989h-1.43l-0.537-2.19l3.732-3.753h-6.145v-2.949h10.568v2.592l-3.955,3.776
					c2.123,0.358,4.201,1.475,4.201,4.425c0,2.949-2.145,5.117-5.631,5.117C220.541,889.494,218.597,888.376,217.256,886.79z"/>
			</g>
		</g>
		<g>
			<path opacity="0.54" fill="#94D9F3" d="M541.639,661.498l-73.959-42.701c-3.905-2.255-8.714-2.255-12.619,0l-73.959,42.701
				c-3.904,2.254-6.309,6.42-6.309,10.928v85.401c0,4.508,2.405,8.674,6.309,10.928l73.959,42.701
				c1.952,1.127,4.131,1.691,6.309,1.691s4.357-0.563,6.309-1.691l73.959-42.701c3.904-2.254,6.309-6.42,6.309-10.928v-85.401
				C547.949,667.918,545.543,663.752,541.639,661.498z"/>
			<g>
				<path fill="#FFFFFF" d="M414.659,701.734c0-4.446,3.351-8.089,8.155-8.089c2.949,0,4.603,1.117,6.055,2.547l-2.056,2.369
					c-1.206-1.095-2.234-1.744-4.022-1.744c-2.636,0-4.536,2.19-4.536,4.916c0,2.681,1.855,4.916,4.536,4.916
					c1.788,0,2.883-0.715,4.111-1.833l2.19,2.346c-1.609,1.721-3.396,2.66-6.412,2.66
					C418.077,709.823,414.659,706.27,414.659,701.734z"/>
				<path fill="#FFFFFF" d="M431.838,693.914h7.15c1.988,0,3.53,0.558,4.557,1.586c0.872,0.872,1.342,2.1,1.342,3.62
					c0,2.525-1.363,4.111-3.352,4.848l3.821,5.586h-4.022l-3.397-5.005h-2.659v5.005h-3.441V693.914z M438.764,701.511
					c1.676,0,2.637-0.894,2.637-2.258c0-1.474-1.028-2.234-2.704-2.234h-3.418v4.492H438.764z"/>
				<path fill="#FFFFFF" d="M451.831,703.387l-6.01-9.473h4.022l3.732,6.278l3.798-6.278h3.911l-6.011,9.407v6.234h-3.441V703.387z"
					/>
				<path fill="#FFFFFF" d="M463.424,693.914h6.39c3.731,0,5.988,2.212,5.988,5.452c0,3.62-2.816,5.497-6.323,5.497h-2.614v4.692
					h-3.441V693.914z M469.591,701.801c1.721,0,2.726-1.028,2.726-2.413c0-1.542-1.072-2.369-2.793-2.369h-2.659v4.781H469.591z"/>
				<path fill="#FFFFFF" d="M481.988,697.086h-4.759v-3.173h12.96v3.173h-4.76v12.468h-3.441V697.086z"/>
				<path fill="#FFFFFF" d="M491.459,701.734c0-4.446,3.508-8.089,8.334-8.089c4.826,0,8.289,3.597,8.289,8.089
					c0,4.446-3.508,8.089-8.334,8.089C494.922,709.823,491.459,706.226,491.459,701.734z M504.485,701.734
					c0-2.681-1.967-4.916-4.737-4.916s-4.692,2.19-4.692,4.916c0,2.681,1.967,4.916,4.737,4.916
					C502.564,706.65,504.485,704.461,504.485,701.734z"/>
				<path fill="#FFFFFF" d="M418.87,720.721h11.909v3.128h-8.468v3.329h7.463v3.128h-7.463v6.055h-3.441V720.721z"/>
				<path fill="#FFFFFF" d="M433.278,729.658v-8.938h3.441v8.848c0,2.547,1.274,3.865,3.374,3.865c2.1,0,3.373-1.274,3.373-3.754
					v-8.959h3.442v8.826c0,4.737-2.659,7.061-6.86,7.061C435.847,736.607,433.278,734.261,433.278,729.658z"/>
				<path fill="#FFFFFF" d="M450.412,720.721h3.173l7.329,9.63v-9.63h3.396v15.641h-2.927l-7.575-9.943v9.943h-3.396V720.721z"/>
				<path fill="#FFFFFF" d="M468.059,720.721h6.099c4.916,0,8.312,3.374,8.312,7.82c0,4.402-3.396,7.82-8.312,7.82h-6.099V720.721z
					 M474.158,733.256c2.816,0,4.715-1.9,4.715-4.715c0-2.771-1.899-4.715-4.715-4.715H471.5v9.429H474.158z"/>
				<path fill="#FFFFFF" d="M499.245,732.987h-7.641l-0.558-2.435l8.58-9.943h2.904v9.586h2.1v2.793h-2.1v3.374h-3.285V732.987z
					 M499.245,730.194v-4.871l-4.155,4.871H499.245z"/>
			</g>
		</g>
		<g>
			<path opacity="0.54" fill="#94D9F3" d="M541.639,814.373l-73.959-42.701c-3.905-2.254-8.714-2.254-12.619,0l-73.959,42.701
				c-3.904,2.254-6.309,6.42-6.309,10.928v85.401c0,4.508,2.405,8.674,6.309,10.928l73.959,42.701
				c1.952,1.127,4.131,1.691,6.309,1.691s4.357-0.563,6.309-1.691l73.959-42.701c3.904-2.254,6.309-6.42,6.309-10.928v-85.401
				C547.949,820.793,545.543,816.627,541.639,814.373z"/>
			<g>
				<path fill="#FFFFFF" d="M414.659,854.598c0-4.446,3.351-8.089,8.155-8.089c2.949,0,4.603,1.117,6.055,2.547l-2.056,2.369
					c-1.206-1.095-2.234-1.744-4.022-1.744c-2.636,0-4.536,2.19-4.536,4.916c0,2.681,1.855,4.916,4.536,4.916
					c1.788,0,2.883-0.715,4.111-1.833l2.19,2.346c-1.609,1.721-3.396,2.66-6.412,2.66
					C418.077,862.687,414.659,859.134,414.659,854.598z"/>
				<path fill="#FFFFFF" d="M431.838,846.778h7.15c1.988,0,3.53,0.558,4.557,1.586c0.872,0.872,1.342,2.1,1.342,3.62
					c0,2.525-1.363,4.111-3.352,4.848l3.821,5.586h-4.022l-3.397-5.005h-2.659v5.005h-3.441V846.778z M438.764,854.375
					c1.676,0,2.637-0.894,2.637-2.258c0-1.474-1.028-2.234-2.704-2.234h-3.418v4.492H438.764z"/>
				<path fill="#FFFFFF" d="M451.831,856.251l-6.01-9.473h4.022l3.732,6.278l3.798-6.278h3.911l-6.011,9.407v6.234h-3.441V856.251z"
					/>
				<path fill="#FFFFFF" d="M463.424,846.778h6.39c3.731,0,5.988,2.212,5.988,5.452c0,3.62-2.816,5.497-6.323,5.497h-2.614v4.692
					h-3.441V846.778z M469.591,854.665c1.721,0,2.726-1.028,2.726-2.413c0-1.542-1.072-2.369-2.793-2.369h-2.659v4.781H469.591z"/>
				<path fill="#FFFFFF" d="M481.988,849.95h-4.759v-3.173h12.96v3.173h-4.76v12.468h-3.441V849.95z"/>
				<path fill="#FFFFFF" d="M491.459,854.598c0-4.446,3.508-8.089,8.334-8.089c4.826,0,8.289,3.597,8.289,8.089
					c0,4.446-3.508,8.089-8.334,8.089C494.922,862.687,491.459,859.09,491.459,854.598z M504.485,854.598
					c0-2.681-1.967-4.916-4.737-4.916c-2.771,0-4.692,2.19-4.692,4.916c0,2.681,1.967,4.916,4.737,4.916
					C502.564,859.514,504.485,857.324,504.485,854.598z"/>
				<path fill="#FFFFFF" d="M419.529,873.585h11.909v3.128h-8.468v3.329h7.463v3.128h-7.463v6.055h-3.441V873.585z"/>
				<path fill="#FFFFFF" d="M433.937,882.522v-8.938h3.441v8.848c0,2.547,1.274,3.865,3.374,3.865s3.373-1.274,3.373-3.754v-8.959
					h3.442v8.826c0,4.737-2.66,7.061-6.86,7.061S433.937,887.125,433.937,882.522z"/>
				<path fill="#FFFFFF" d="M451.071,873.585h3.173l7.329,9.63v-9.63h3.396v15.641h-2.927l-7.575-9.943v9.943h-3.396V873.585z"/>
				<path fill="#FFFFFF" d="M468.718,873.585h6.099c4.916,0,8.312,3.374,8.312,7.82c0,4.402-3.396,7.82-8.312,7.82h-6.099V873.585z
					 M474.817,886.12c2.816,0,4.715-1.9,4.715-4.715c0-2.771-1.899-4.715-4.715-4.715h-2.659v9.429H474.817z"/>
				<path fill="#FFFFFF" d="M491.973,887.148l2.078-2.481c1.184,1.072,2.346,1.698,3.732,1.698c1.608,0,2.613-0.782,2.613-2.212
					c0-1.341-1.139-2.122-2.771-2.122c-0.983,0-1.876,0.267-2.614,0.581l-1.988-1.319l0.447-7.708h9.608v3.016h-6.659l-0.179,2.704
					c0.625-0.156,1.184-0.268,2.055-0.268c3.039,0,5.474,1.475,5.474,5.05c0,3.307-2.346,5.408-5.943,5.408
					C495.324,889.494,493.492,888.599,491.973,887.148z"/>
			</g>
		</g>
	</g>
</g>
</svg>
