<?xml version="1.0" encoding="utf-8"?>
<!-- Generator: Adobe Illustrator 17.0.0, SVG Export Plug-In . SVG Version: 6.00 Build 0)  -->
<!DOCTYPE svg PUBLIC "-//W3C//DTD SVG 1.1//EN" "http://www.w3.org/Graphics/SVG/1.1/DTD/svg11.dtd">
<svg version="1.1" id="Layer_1" xmlns="http://www.w3.org/2000/svg" xmlns:xlink="http://www.w3.org/1999/xlink" x="0px" y="0px"
	 width="113.39px" height="113.39px" viewBox="0 0 113.39 113.39" enable-background="new 0 0 113.39 113.39" xml:space="preserve">
<g>
	<linearGradient id="SVGID_1_" gradientUnits="userSpaceOnUse" x1="56.6804" y1="25.6667" x2="56.6804" y2="90.3411">
		<stop  offset="0" style="stop-color:#0586CB"/>
		<stop  offset="1" style="stop-color:#04C2EF"/>
	</linearGradient>
	<path fill="url(#SVGID_1_)" d="M37.989,88.947c-0.622,0-1.241-0.193-1.764-0.573c-0.924-0.671-1.387-1.809-1.194-2.935
		l3.303-19.258L24.343,52.542c-0.817-0.797-1.112-1.989-0.759-3.076c0.353-1.086,1.292-1.877,2.422-2.042l19.336-2.81l8.647-17.522
		c0.505-1.024,1.548-1.672,2.69-1.672s2.185,0.648,2.69,1.672l8.648,17.522l19.337,2.81c1.13,0.164,2.069,0.956,2.421,2.042
		c0.353,1.086,0.059,2.278-0.759,3.076L75.026,66.181l3.303,19.258c0.193,1.125-0.27,2.263-1.194,2.935
		c-0.923,0.671-2.148,0.759-3.159,0.228L56.68,79.509l-17.295,9.093C38.946,88.833,38.466,88.947,37.989,88.947z M56.68,73.12
		c0.479,0,0.959,0.115,1.396,0.345l13.312,6.998l-2.542-14.822c-0.167-0.973,0.156-1.966,0.863-2.656l10.769-10.497l-14.882-2.163
		c-0.978-0.142-1.822-0.755-2.259-1.641L56.68,35.199l-6.655,13.486c-0.437,0.885-1.282,1.499-2.259,1.641l-14.882,2.163
		l10.769,10.497c0.707,0.689,1.029,1.683,0.863,2.656l-2.542,14.822l13.311-6.998C55.721,73.235,56.201,73.12,56.68,73.12z"/>
</g>
</svg>
