<?xml version="1.0" encoding="utf-8"?>
<!-- Generator: Adobe Illustrator 17.0.0, SVG Export Plug-In . SVG Version: 6.00 Build 0)  -->
<!DOCTYPE svg PUBLIC "-//W3C//DTD SVG 1.1//EN" "http://www.w3.org/Graphics/SVG/1.1/DTD/svg11.dtd">
<svg version="1.1" id="Layer_1" xmlns="http://www.w3.org/2000/svg" xmlns:xlink="http://www.w3.org/1999/xlink" x="0px" y="0px"
	 width="113.39px" height="113.39px" viewBox="0 0 113.39 113.39" enable-background="new 0 0 113.39 113.39" xml:space="preserve">
<g>
	<linearGradient id="SVGID_1_" gradientUnits="userSpaceOnUse" x1="56.7034" y1="30" x2="56.7034" y2="87.0088">
		<stop  offset="0" style="stop-color:#0586CB"/>
		<stop  offset="1" style="stop-color:#04C2EF"/>
	</linearGradient>
	<path fill="url(#SVGID_1_)" d="M84.76,27.357H28.647c-3.093,0-5.611,2.517-5.611,5.611v44.89c0,3.095,2.518,5.611,5.611,5.611
		h2.806v2.806h11.223V83.47h28.056v2.806h11.223V83.47h2.806c3.091,0,5.611-2.517,5.611-5.611v-44.89
		C90.371,29.874,87.851,27.357,84.76,27.357z M84.752,77.859H28.647v-44.89H84.76L84.752,77.859z M76.343,72.247
		c1.551,0,2.806-1.256,2.806-2.806V41.385c0-1.549-1.255-2.806-2.806-2.806s-2.806,1.256-2.806,2.806v28.056
		C73.537,70.991,74.792,72.247,76.343,72.247z M48.286,69.442c7.726,0,14.028-6.284,14.028-14.032c0-0.001,0-0.001,0-0.001
		c0-0.004,0-0.005,0-0.008c-0.008-7.728-6.296-14.014-14.028-14.014c-7.735,0-14.028,6.294-14.028,14.028
		S40.552,69.442,48.286,69.442z M48.286,46.997c3.65,0,6.735,2.349,7.896,5.605h-5.091c-1.551,0-2.806,1.256-2.806,2.806
		c0,1.549,1.255,2.806,2.806,2.806h5.096c-1.162,3.262-4.247,5.618-7.902,5.618c-4.641,0-8.417-3.776-8.417-8.417
		S43.645,46.997,48.286,46.997z"/>
</g>
</svg>
