<?xml version="1.0" encoding="utf-8"?>
<!-- Generator: Adobe Illustrator 17.0.0, SVG Export Plug-In . SVG Version: 6.00 Build 0)  -->
<!DOCTYPE svg PUBLIC "-//W3C//DTD SVG 1.1//EN" "http://www.w3.org/Graphics/SVG/1.1/DTD/svg11.dtd">
<svg version="1.1" id="Layer_1" xmlns="http://www.w3.org/2000/svg" xmlns:xlink="http://www.w3.org/1999/xlink" x="0px" y="0px"
	 width="113.39px" height="113.39px" viewBox="0 0 113.39 113.39" enable-background="new 0 0 113.39 113.39" xml:space="preserve">
<g>
	<linearGradient id="SVGID_1_" gradientUnits="userSpaceOnUse" x1="56.6822" y1="30" x2="56.6822" y2="87.0088">
		<stop  offset="0" style="stop-color:#0586CB"/>
		<stop  offset="1" style="stop-color:#04C2EF"/>
	</linearGradient>
	<path fill="url(#SVGID_1_)" d="M55.367,90.484l-0.951-0.191C37.048,83.547,25.82,69.459,25.82,54.405v-5.962
		c0-1.549,1.255-2.806,2.806-2.806c1.551,0,2.806,1.256,2.806,2.806v5.962c0,12.454,9.412,24.249,24.067,30.277
		c15.856-5.731,26.435-18.156,26.435-31.174v-17.79c-7.524-4.299-16.22-6.958-25.251-6.958c-8.192,0-16.138,2.267-23.166,5.833
		l33.418,28.913c1.173,1.014,1.299,2.786,0.285,3.958c-1.014,1.173-2.784,1.3-3.957,0.286l-35.86-31.027
		c-0.778-0.628-1.25-1.681-1.178-2.759c0.104-1.155,0.721-2.121,1.652-2.672c8.543-5.069,18.505-8.144,28.804-8.144
		c11.62,0,21.363,3.562,30.862,9.403v20.956c0,15.684-12.543,30.485-31.207,36.827L55.367,90.484z"/>
</g>
</svg>
