<?xml version="1.0" encoding="utf-8"?>
<!-- Generator: Adobe Illustrator 17.0.0, SVG Export Plug-In . SVG Version: 6.00 Build 0)  -->
<!DOCTYPE svg PUBLIC "-//W3C//DTD SVG 1.1//EN" "http://www.w3.org/Graphics/SVG/1.1/DTD/svg11.dtd">
<svg version="1.1" id="Layer_1" xmlns="http://www.w3.org/2000/svg" xmlns:xlink="http://www.w3.org/1999/xlink" x="0px" y="0px"
	 width="113.39px" height="113.39px" viewBox="0 0 113.39 113.39" enable-background="new 0 0 113.39 113.39" xml:space="preserve">
<g>
	<linearGradient id="SVGID_1_" gradientUnits="userSpaceOnUse" x1="56.6592" y1="25.6667" x2="56.6592" y2="90.3411">
		<stop  offset="0" style="stop-color:#0586CB"/>
		<stop  offset="1" style="stop-color:#04C2EF"/>
	</linearGradient>
	<path fill="url(#SVGID_1_)" d="M86.519,59.897c0.255,0,0.427-0.048,0.562-0.114c1.222-0.265,2.141-1.298,2.141-2.6
		c0-17.961-14.628-32.562-32.541-32.562c-11.066,0-21.274,5.536-27.3,14.829c-3.498,5.393-5.279,11.549-5.284,17.734
		c-0.005,4.5,0.93,9.018,2.83,13.271c0.45,1.007,1.441,1.606,2.48,1.606c0.368,0,0.742-0.074,1.105-0.236
		c1.365-0.612,1.982-2.215,1.37-3.585c-3.755-8.405-2.986-18.065,2.057-25.837C38.46,35.43,45.81,31.024,53.956,30.207V56.06
		L33.639,76.377c-0.951,0.949-0.999,2.404-0.246,3.464c0.021,0.063,0.085,0.146,0.148,0.228c0.042,0.045,0.058,0.103,0.098,0.146
		c0.018,0.018,0.04,0.024,0.061,0.04c6.137,6.118,14.294,9.492,22.97,9.492c13.509,0,25.421-8.133,30.342-20.72
		c0.546-1.397-0.143-2.971-1.539-3.516c-1.402-0.549-2.971,0.143-3.516,1.539c-4.1,10.491-14.029,17.27-25.286,17.27
		c-6.339,0-12.341-2.16-17.172-6.124l18.295-18.298H86.519z M59.383,30.186c3.514,0.35,6.826,1.386,9.815,2.952l-9.815,9.815V30.186
		z M70.9,54.47l9.815-9.815c1.566,2.992,2.602,6.302,2.952,9.815H70.9z M77.671,40.026L63.226,54.47h-3.842v-3.842l14.445-14.442
		C75.233,37.336,76.518,38.621,77.671,40.026z"/>
</g>
</svg>
