<?xml version="1.0" encoding="utf-8"?>
<!-- Generator: Adobe Illustrator 17.0.0, SVG Export Plug-In . SVG Version: 6.00 Build 0)  -->
<!DOCTYPE svg PUBLIC "-//W3C//DTD SVG 1.1//EN" "http://www.w3.org/Graphics/SVG/1.1/DTD/svg11.dtd">
<svg version="1.1" id="Layer_1" xmlns="http://www.w3.org/2000/svg" xmlns:xlink="http://www.w3.org/1999/xlink" x="0px" y="0px"
	 width="113.39px" height="113.39px" viewBox="0 0 113.39 113.39" enable-background="new 0 0 113.39 113.39" xml:space="preserve">
<linearGradient id="SVGID_1_" gradientUnits="userSpaceOnUse" x1="56.6169" y1="24.5796" x2="56.6169" y2="89.7881">
	<stop  offset="0" style="stop-color:#0586CB"/>
	<stop  offset="1" style="stop-color:#04C2EF"/>
</linearGradient>
<path fill="url(#SVGID_1_)" d="M88.547,63.791c0.012-0.053,0.022-0.107,0.031-0.162c0.42-2.085,0.643-4.24,0.643-6.446
	c0-2.207-0.223-4.362-0.643-6.447c-0.009-0.054-0.019-0.107-0.031-0.159c-2.621-12.685-12.633-22.699-25.317-25.323
	c-0.058-0.013-0.115-0.024-0.174-0.034c-2.083-0.419-4.236-0.642-6.44-0.642s-4.357,0.223-6.44,0.642
	c-0.059,0.01-0.117,0.02-0.174,0.034C37.321,27.879,27.31,37.89,24.688,50.571c-0.013,0.057-0.023,0.114-0.033,0.172
	c-0.419,2.083-0.642,4.236-0.642,6.44c0,2.204,0.223,4.357,0.642,6.44c0.01,0.059,0.02,0.117,0.034,0.174
	c2.623,12.681,12.633,22.692,25.315,25.315c0.058,0.013,0.115,0.024,0.174,0.034c2.083,0.419,4.236,0.642,6.44,0.642
	s4.357-0.223,6.44-0.642c0.059-0.01,0.117-0.02,0.174-0.034C75.914,86.489,85.926,76.476,88.547,63.791z M65.548,82.241V71.28
	c2.079-1.322,3.843-3.086,5.165-5.165h10.961C78.994,73.611,73.044,79.561,65.548,82.241z M45.909,57.184
	c0-5.904,4.804-10.708,10.708-10.708c5.905,0,10.708,4.804,10.708,10.708c0,5.905-4.804,10.708-10.708,10.708
	C50.712,67.892,45.909,63.088,45.909,57.184z M30.013,57.184c0-0.991,0.059-1.968,0.165-2.931h10.005
	c-0.17,0.953-0.274,1.93-0.274,2.931c0,1.002,0.104,1.978,0.274,2.932H30.178C30.072,59.152,30.013,58.175,30.013,57.184z
	 M83.221,57.184c0,0.991-0.059,1.968-0.165,2.932H73.051c0.17-0.954,0.274-1.93,0.274-2.932c0-1.002-0.104-1.978-0.274-2.931h10.005
	C83.162,55.216,83.221,56.193,83.221,57.184z M81.674,48.252H70.713c-1.322-2.079-3.086-3.843-5.165-5.165V32.127
	C73.044,34.806,78.995,40.757,81.674,48.252z M59.548,30.745V40.75c-0.954-0.17-1.93-0.274-2.932-0.274s-1.978,0.104-2.932,0.274
	V30.745c0.963-0.106,1.941-0.165,2.932-0.165S58.585,30.639,59.548,30.745z M47.685,32.127v10.961
	c-2.079,1.322-3.843,3.086-5.165,5.165H31.56C34.239,40.757,40.19,34.806,47.685,32.127z M31.56,66.115h10.961
	c1.322,2.079,3.086,3.843,5.164,5.165v10.961C40.19,79.561,34.239,73.611,31.56,66.115z M53.685,83.623V73.618
	c0.954,0.17,1.93,0.274,2.932,0.274s1.978-0.104,2.932-0.274v10.005c-0.963,0.106-1.941,0.165-2.932,0.165
	S54.648,83.729,53.685,83.623z"/>
</svg>
