<?xml version="1.0" encoding="utf-8"?>
<!-- Generator: Adobe Illustrator 17.0.0, SVG Export Plug-In . SVG Version: 6.00 Build 0)  -->
<!DOCTYPE svg PUBLIC "-//W3C//DTD SVG 1.1//EN" "http://www.w3.org/Graphics/SVG/1.1/DTD/svg11.dtd">
<svg version="1.1" id="Layer_1" xmlns="http://www.w3.org/2000/svg" xmlns:xlink="http://www.w3.org/1999/xlink" x="0px" y="0px"
	 width="113.39px" height="113.39px" viewBox="0 0 113.39 113.39" enable-background="new 0 0 113.39 113.39" xml:space="preserve">
<linearGradient id="SVGID_1_" gradientUnits="userSpaceOnUse" x1="56.6379" y1="21.0783" x2="56.6379" y2="93.4859">
	<stop  offset="0" style="stop-color:#0586CB"/>
	<stop  offset="1" style="stop-color:#04C2EF"/>
</linearGradient>
<path fill="url(#SVGID_1_)" d="M87.53,71.555l-4.389-2.534c1.622-3.618,2.533-7.622,2.533-11.837c0-4.215-0.91-8.219-2.533-11.837
	l4.389-2.534c1.435-0.829,1.926-2.663,1.098-4.098c-0.828-1.434-2.664-1.925-4.098-1.098l-4.396,2.538
	c-4.728-6.505-12.082-10.984-20.496-11.851v-5.059c0-1.657-1.343-3-3-3s-3,1.343-3,3v5.059c-8.414,0.868-15.768,5.346-20.496,11.851
	l-4.396-2.538c-1.436-0.828-3.27-0.336-4.098,1.098c-0.828,1.435-0.337,3.27,1.098,4.098l4.389,2.534
	c-1.622,3.618-2.533,7.622-2.533,11.837c0,4.215,0.91,8.219,2.533,11.837l-4.39,2.534c-1.435,0.829-1.926,2.663-1.098,4.098
	c0.556,0.962,1.564,1.5,2.601,1.5c0.509,0,1.024-0.13,1.497-0.402l4.397-2.538c4.728,6.505,12.082,10.984,20.496,11.851v5.059
	c0,1.657,1.343,3,3,3s3-1.343,3-3v-5.059c8.414-0.868,15.768-5.346,20.496-11.851l4.396,2.538c0.473,0.273,0.988,0.402,1.497,0.402
	c1.037,0,2.045-0.538,2.601-1.5C89.457,74.218,88.965,72.384,87.53,71.555z M79.674,57.184c0,3.123-0.628,6.102-1.759,8.82
	l-9.828-5.674c0.276-1.004,0.436-2.056,0.436-3.146c0-1.09-0.16-2.142-0.436-3.146l9.828-5.674
	C79.046,51.082,79.674,54.061,79.674,57.184z M56.638,63.069c-3.245,0-5.885-2.64-5.885-5.885c0-3.245,2.64-5.885,5.885-5.885
	s5.885,2.64,5.885,5.885C62.523,60.429,59.883,63.069,56.638,63.069z M74.905,43.173L65.09,48.84
	c-1.479-1.498-3.355-2.594-5.452-3.143V34.35C65.837,35.161,71.267,38.441,74.905,43.173z M53.638,34.35v11.347
	c-2.097,0.548-3.973,1.645-5.452,3.143l-9.816-5.667C42.009,38.441,47.439,35.161,53.638,34.35z M33.603,57.184
	c0-3.123,0.628-6.101,1.759-8.82l9.828,5.674c-0.276,1.004-0.436,2.055-0.436,3.146c0,1.091,0.16,2.142,0.436,3.146l-9.828,5.674
	C34.23,63.285,33.603,60.307,33.603,57.184z M38.371,71.194l9.815-5.667c1.479,1.498,3.355,2.595,5.452,3.143v11.347
	C47.439,79.207,42.009,75.926,38.371,71.194z M59.638,80.017V68.67c2.097-0.548,3.973-1.645,5.451-3.143l9.815,5.667
	C71.267,75.926,65.837,79.207,59.638,80.017z"/>
</svg>
