<?xml version="1.0" encoding="utf-8"?>
<!-- Generator: Adobe Illustrator 17.0.0, SVG Export Plug-In . SVG Version: 6.00 Build 0)  -->
<!DOCTYPE svg PUBLIC "-//W3C//DTD SVG 1.1//EN" "http://www.w3.org/Graphics/SVG/1.1/DTD/svg11.dtd">
<svg version="1.1" id="Layer_1" xmlns="http://www.w3.org/2000/svg" xmlns:xlink="http://www.w3.org/1999/xlink" x="0px" y="0px"
	 width="113.39px" height="113.39px" viewBox="0 0 113.39 113.39" enable-background="new 0 0 113.39 113.39" xml:space="preserve">
<g>
	<linearGradient id="SVGID_1_" gradientUnits="userSpaceOnUse" x1="56.6186" y1="30" x2="56.6186" y2="87.0088">
		<stop  offset="0" style="stop-color:#0586CB"/>
		<stop  offset="1" style="stop-color:#04C2EF"/>
	</linearGradient>
	<path fill="url(#SVGID_1_)" d="M39.785,55.413h5.611v-5.611h-5.611V55.413z M87.481,58.219h-2.973
		c-1.044-9.705-7.458-17.283-16.853-20.601c0.099-0.603,0.186-1.212,0.186-1.844c0-6.188-5.033-11.223-11.223-11.223
		c-6.19,0-11.223,5.034-11.223,11.223c0,0.578,0.088,1.134,0.17,1.689c-0.945,0.296-1.869,0.633-2.767,1.001
		c-1.479-2.723-4.072-4.736-7.211-5.421c-1.501-0.332-3.008,0.63-3.337,2.144c-0.332,1.514,0.627,3.008,2.142,3.339
		c1.469,0.32,2.674,1.259,3.398,2.515c-3.65,2.299-6.702,5.255-8.82,8.761h-3.214c-1.551,0-2.806,1.256-2.806,2.806v16.834
		c0,1.549,1.255,2.806,2.806,2.806c0.715,0,2.447,1.623,3.836,2.928c2.17,2.037,5.069,4.747,9.244,6.98l-1.515,2.777
		c-0.743,1.36-0.244,3.065,1.121,3.807c0.425,0.233,0.882,0.343,1.34,0.343c0.995,0,1.956-0.529,2.466-1.462l1.773-3.251
		c3.48,1.151,7.611,1.907,12.598,1.907c4.521,0,8.68-0.848,12.357-2.349l2.014,3.693c0.507,0.933,1.471,1.462,2.469,1.462
		c0.452,0,0.912-0.11,1.337-0.343c1.362-0.742,1.863-2.447,1.121-3.807l-1.986-3.64c5.915-3.989,9.806-10.11,10.592-17.461h2.959
		c1.551,0,2.806-1.256,2.806-2.806S89.031,58.219,87.481,58.219z M56.619,30.163c3.091,0,5.611,2.517,5.611,5.611
		c0,3.095-2.521,5.611-5.611,5.611c-3.093,0-5.611-2.517-5.611-5.611C51.007,32.679,53.525,30.163,56.619,30.163z M56.619,80.664
		c-12.976,0-18.878-5.537-23.185-9.58c-1.671-1.568-3.195-2.996-4.871-3.79v-11.88h2.058c1.058,0,2.025-0.595,2.507-1.538
		c2.704-5.347,8.107-9.314,14.702-11.208c2.055,2.615,5.211,4.329,8.79,4.329c3.532,0,6.647-1.671,8.707-4.229
		c8.368,2.74,13.738,9.465,13.738,18.257C79.064,72.589,69.833,80.664,56.619,80.664z"/>
</g>
</svg>
