<?xml version="1.0" encoding="utf-8"?>
<!-- Generator: Adobe Illustrator 17.0.0, SVG Export Plug-In . SVG Version: 6.00 Build 0)  -->
<!DOCTYPE svg PUBLIC "-//W3C//DTD SVG 1.1//EN" "http://www.w3.org/Graphics/SVG/1.1/DTD/svg11.dtd">
<svg version="1.1" id="Layer_1" xmlns="http://www.w3.org/2000/svg" xmlns:xlink="http://www.w3.org/1999/xlink" x="0px" y="0px"
	 width="651.97px" height="2026.77px" viewBox="0 0 651.97 2026.77" enable-background="new 0 0 651.97 2026.77"
	 xml:space="preserve">
<path fill="#231F20" d="M436.366,94.195l-82.275-47.502c-11.559-6.675-25.804-6.675-37.363,0l-82.276,47.502
	c-11.56,6.674-18.681,19.009-18.681,32.357v95.003c0,13.348,7.121,25.682,18.681,32.357l82.276,47.502
	c5.78,3.338,12.23,5.006,18.681,5.006s12.902-1.668,18.681-5.006l82.275-47.502c11.56-6.674,18.681-19.009,18.681-32.357v-95.003
	C455.048,113.204,447.926,100.87,436.366,94.195z"/>
<path fill="#231F20" d="M436.366,1324.513l-82.275-47.502c-11.559-6.675-25.804-6.675-37.363,0l-82.276,47.502
	c-11.56,6.674-18.681,19.009-18.681,32.357v95.003c0,13.348,7.121,25.682,18.681,32.357l82.276,47.502
	c5.78,3.338,12.23,5.006,18.681,5.006s12.902-1.668,18.681-5.006l82.275-47.502c11.56-6.674,18.681-19.009,18.681-32.357v-95.003
	C455.048,1343.522,447.926,1331.187,436.366,1324.513z"/>
<path fill="#231F20" d="M436.366,1774.844l-82.275-47.502c-11.559-6.675-25.804-6.675-37.363,0l-82.276,47.502
	c-11.56,6.674-18.681,19.009-18.681,32.357v95.003c0,13.348,7.121,25.682,18.681,32.357l82.276,47.502
	c5.78,3.338,12.23,5.006,18.681,5.006s12.902-1.668,18.681-5.006l82.275-47.502c11.56-6.674,18.681-19.009,18.681-32.357V1807.2
	C455.048,1793.852,447.926,1781.518,436.366,1774.844z"/>
<path fill="#231F20" d="M565.664,652.984L354.629,531.143c-11.141-6.433-24.865-6.433-36.006,0L107.588,652.984
	c-11.14,6.431-18.003,18.318-18.003,31.182v243.681c0,12.864,6.863,24.751,18.003,31.182l211.035,121.841
	c5.571,3.216,11.786,4.824,18.003,4.824c6.217,0,12.433-1.608,18.003-4.824L565.664,959.03c11.14-6.431,18.003-18.318,18.003-31.182
	V684.166C583.667,671.302,576.804,659.415,565.664,652.984z"/>
<g>
	<path fill="#231F20" d="M333.251,476.008l-0.727-0.687c18.649-19.746,29.307-45.588,30.008-72.766
		c0.701-27.178-8.61-53.535-26.219-74.215l0.762-0.648c17.768,20.868,27.164,47.464,26.457,74.889
		C362.824,430.006,352.07,456.083,333.251,476.008z"/>
	<circle fill="#231F20" cx="336.694" cy="328.016" r="4.879"/>
	<polygon fill="#231F20" points="342.927,473.141 331.681,477.154 333.829,465.408 	"/>
</g>
<g>
	<path fill="#231F20" d="M333.251,1705.522l-0.727-0.688c18.649-19.745,29.307-45.587,30.008-72.766
		c0.701-27.177-8.61-53.534-26.219-74.215l0.762-0.648c17.768,20.869,27.164,47.465,26.457,74.889
		C362.824,1659.521,352.07,1685.598,333.251,1705.522z"/>
	<circle fill="#231F20" cx="336.694" cy="1557.531" r="4.879"/>
	<polygon fill="#231F20" points="342.927,1702.655 331.681,1706.668 333.829,1694.922 	"/>
</g>
<g>
	<path fill="#231F20" d="M340.449,1254.521c-18.82-19.926-29.574-46.002-30.281-73.427s8.689-54.021,26.457-74.889l0.762,0.648
		c-17.608,20.681-26.919,47.037-26.218,74.215c0.701,27.177,11.357,53.02,30.007,72.765L340.449,1254.521z"/>
	<circle fill="#231F20" cx="337.006" cy="1106.529" r="4.879"/>
	<polygon fill="#231F20" points="330.774,1251.653 342.019,1255.666 339.872,1243.921 	"/>
</g>
<g>
	<circle fill="#231F20" cx="221.073" cy="1307.831" r="4.727"/>
	<polygon fill="#231F20" points="47.31,1094.839 53.1,1084.826 58.877,1094.847 	"/>
	<path fill="#231F20" d="M220.887,1308.317c-47.17-11.354-89.912-38.615-120.354-76.761c-31.363-39.3-47.94-86.706-47.94-137.094h1
		c0,50.158,16.502,97.35,47.722,136.47c30.303,37.973,72.851,65.109,119.806,76.412L220.887,1308.317z"/>
</g>
<g>
	<circle fill="#231F20" cx="455.744" cy="1307.541" r="4.892"/>
	<path fill="#231F20" d="M455.932,1308.027l-0.234-0.973c41.644-10.023,79.379-34.091,106.254-67.768
		c27.688-34.695,42.323-76.548,42.323-121.032c0-48.426-17.929-94.81-50.482-130.607l0.74-0.673
		c32.722,35.982,50.742,82.604,50.742,131.28c0,44.714-14.711,86.781-42.542,121.655
		C535.72,1273.761,497.79,1297.951,455.932,1308.027z"/>
	<polygon fill="#231F20" points="564.17,989.428 552.745,985.853 555.362,997.535 	"/>
</g>
</svg>
