<?xml version="1.0" encoding="UTF-8"?>
<!-- Generator: Adobe Illustrator 15.0.0, SVG Export Plug-In . SVG Version: 6.00 Build 0)  -->
<!DOCTYPE svg PUBLIC "-//W3C//DTD SVG 1.1//EN" "http://www.w3.org/Graphics/SVG/1.1/DTD/svg11.dtd">
<svg version="1.1" xmlns="http://www.w3.org/2000/svg" xmlns:xlink="http://www.w3.org/1999/xlink" x="0px" y="0px" width="1280px" height="449.31px" viewBox="0 0 1280 449.31" enable-background="new 0 0 1280 449.31" xml:space="preserve">
<g id="Слой_6" display="none">
	<rect display="inline" width="1280" height="449.31"/>
</g>
<g id="Слой_3">
	<path fill="#FFFFFF" d="M526.4,5c-2.133,0-20.845,0.347-20.845,12.308c0,11.96,18.712,12.307,20.845,12.307   c2.133,0,20.848-0.346,20.848-12.307C547.249,5.347,528.534,5,526.4,5 M526.4,21.978c-8.362,0-13.874-2.799-15.183-4.669   c1.31-1.877,6.821-4.668,15.183-4.668c8.363,0,13.879,2.799,15.186,4.668C540.28,19.179,534.763,21.978,526.4,21.978"/>
	<path fill="#FFCC33" d="M124.654,135.121c0.785,0.791,1.178,1.885,1.178,3.295c0,1.57-1.178,3.569-3.531,6.003   c-2.355,2.432-5.492,4.822-9.412,7.179c-3.922,2.35-8.432,4.35-13.531,5.999c-1.961,0.635-4.001,1.034-6.042,1.425v-91.9   c1.105,0.209,2.263,0.323,3.338,0.585c5.49,1.333,10.272,2.905,14.354,4.708c4.076,1.805,7.291,3.683,9.645,5.646   c2.355,1.962,3.531,3.569,3.531,4.822c0,1.256-0.392,2.273-1.176,3.061l3.058,1.409l14.59-25.179l-2.825-1.879   c-0.47,0.628-0.863,1.139-1.176,1.526c-0.317,0.396-1.098,0.591-2.352,0.591c-1.099,0-3.1-0.666-6.001-1.999   c-2.904-1.331-6.628-2.784-11.176-4.357c-4.553-1.565-9.885-3.017-16.001-4.351c-2.432-0.53-5.105-0.871-7.808-1.19V30.182H81.167   v19.571c-0.343-0.002-0.639-0.044-0.986-0.044c-3.173,0-6.231,0.163-9.222,0.423v-19.95H58.81v21.863   c-3.138,0.72-6.2,1.544-9.1,2.603c-9.024,3.296-16.708,7.729-23.062,13.29C20.295,73.51,15.433,79.904,12.06,87.122   C8.684,94.337,7,101.947,7,109.95c0,9.568,1.803,18.388,5.412,26.465c3.608,8.086,8.667,15.064,15.178,20.945   c6.509,5.883,14.314,10.394,23.412,13.531c2.523,0.868,5.136,1.591,7.807,2.218v25.095h12.149v-23.145   c3.305,0.321,6.669,0.535,10.164,0.535c0.015,0,0.029,0,0.044,0v22.61h12.149v-23.203c4.775-0.471,9.137-1.208,12.986-2.272   c6.897-1.914,12.588-4.102,17.058-6.57c4.473-2.464,7.918-4.729,10.354-6.777c2.432-2.056,4.038-3.082,4.821-3.082   c1.414,0,2.592,0.554,3.531,1.647l3.059-2.118l-17.412-22.587L124.654,135.121z M43.942,146.688   c-5.333-4.226-9.607-9.273-12.825-15.146c-3.215-5.864-4.821-12.315-4.821-19.362c0-8.135,1.565-15.139,4.706-21.005   c3.139-5.865,7.176-10.672,12.118-14.433c4.608-3.506,9.856-6.117,15.69-7.921v86.253   C53.387,152.866,48.347,150.175,43.942,146.688 M70.958,158.847V66.283c2.689-0.325,5.373-0.574,8.048-0.574   c0.74,0,1.425,0.098,2.16,0.119v94.151C77.718,159.871,74.315,159.496,70.958,158.847"/>
	<path fill="#FFCC33" d="M245.777,69.979c-5.182-4.784-11.416-8.593-18.709-11.418c-7.291-2.821-15.489-4.229-24.592-4.229   c-9.091,0-17.289,1.408-24.583,4.229c-7.292,2.825-13.532,6.634-18.708,11.418c-5.179,4.785-9.143,10.393-11.886,16.823   c-2.745,6.432-4.118,13.335-4.118,20.71c0,7.373,1.373,14.271,4.118,20.702c2.744,6.438,6.708,12.046,11.886,16.829   c5.176,4.785,11.416,8.468,18.708,11.059c7.293,2.584,15.491,3.881,24.583,3.881c9.103,0,17.301-1.297,24.592-3.881   c7.293-2.591,13.528-6.274,18.709-11.059c5.179-4.783,9.142-10.391,11.881-16.829c2.743-6.43,4.113-13.329,4.113-20.702   c0-7.375-1.37-14.278-4.113-20.71C254.919,80.373,250.957,74.764,245.777,69.979 M243.188,123.04   c-2.038,4.866-4.942,9.098-8.7,12.706c-3.773,3.609-8.363,6.471-13.771,8.586c-5.417,2.12-11.49,3.182-18.241,3.182   c-6.742,0-12.826-1.062-18.233-3.182c-5.407-2.116-9.995-4.978-13.768-8.586c-3.759-3.607-6.667-7.839-8.705-12.706   c-2.041-4.86-3.058-10.121-3.058-15.767c0-5.487,1.018-10.664,3.058-15.528c2.037-4.861,4.946-9.096,8.705-12.707   c3.773-3.608,8.361-6.43,13.768-8.473c5.407-2.038,11.491-3.056,18.233-3.056c6.751,0,12.823,1.018,18.241,3.056   c5.408,2.043,9.998,4.865,13.771,8.473c3.758,3.61,6.662,7.845,8.7,12.707c2.037,4.864,3.055,10.042,3.055,15.528   C246.243,112.919,245.225,118.18,243.188,123.04"/>
	<path fill="#FFCC33" d="M279.325,58.562c2.508,0,4.118,0.436,4.829,1.297c0.704,0.865,1.056,2.627,1.056,5.294v84.712   c0,2.669-0.353,4.434-1.056,5.293c-0.711,0.862-2.321,1.295-4.829,1.295v2.823h26.353v-2.823c-2.509,0-4.117-0.433-4.821-1.295   c-0.704-0.859-1.056-2.625-1.056-5.293V65.152c0-2.667,0.352-4.429,1.056-5.294c0.704-0.861,2.312-1.297,4.821-1.297V55.74h-26.353   V58.562z"/>
	<path fill="#FFCC33" d="M410.183,58.562c2.509,0,4.194,0.436,5.06,1.297c0.86,0.865,1.296,2.627,1.296,5.294v72.712l-63.773-73.186   c-1.728-2.194-2.584-3.525-2.584-4c0-0.621,0.427-1.136,1.288-1.526c0.864-0.392,2.555-0.592,5.063-0.592V55.74h-34.359v2.821   c2.508,0,4.201,0.436,5.063,1.297c0.862,0.865,1.293,2.627,1.293,5.294v84.712c0,2.669-0.431,4.434-1.293,5.293   c-0.862,0.862-2.555,1.295-5.063,1.295v2.823h25.892v-2.823c-2.517,0-4.201-0.433-5.063-1.295   c-0.861-0.859-1.293-2.625-1.293-5.293V74.097l66.595,76.001c0.779,0.942,1.445,1.692,2,2.239c0.546,0.551,0.823,1.212,0.823,2   c0,0.784-0.32,1.331-0.943,1.647c-0.629,0.314-2.509,0.469-5.646,0.469v2.823h31.529v-2.823c-2.507,0-4.199-0.433-5.06-1.295   c-0.862-0.859-1.291-2.625-1.291-5.293V65.152c0-2.667,0.429-4.429,1.291-5.294c0.86-0.861,2.553-1.297,5.06-1.297V55.74h-25.882   V58.562z"/>
	<path fill="#FFCC33" d="M514.089,42.007c2.195,0,3.683,0.517,4.47,1.535c0.784,1.018,1.176,2.386,1.176,4.118v106.829   c0,1.725-0.392,3.1-1.176,4.12c-0.788,1.018-2.275,1.527-4.47,1.527v2.821h24.625v-2.821c-2.201,0-3.688-0.509-4.474-1.527   c-0.788-1.02-1.177-2.395-1.177-4.12V47.66c0-1.731,0.389-3.1,1.177-4.118c0.786-1.018,2.273-1.535,4.474-1.535v-2.824h-24.625   V42.007z"/>
	<path fill="#FFCC33" d="M657.108,69.151c-4.315-4.625-9.847-8.273-16.591-10.942c-6.748-2.666-14.743-4-23.996-4h-56.947v2.821   c2.508,0,4.118,0.435,4.823,1.297c0.703,0.867,1.056,2.628,1.056,5.294v84.714c0,2.667-0.354,4.432-1.056,5.292   c-0.705,0.861-2.315,1.294-4.823,1.294v2.823h56.947c9.253,0,17.248-1.333,23.996-3.998c6.744-2.665,12.275-6.312,16.591-10.947   c4.311-4.621,7.488-10.114,9.531-16.47c2.036-6.35,3.06-13.133,3.06-20.348c0-7.376-1.023-14.196-3.06-20.477   C664.597,79.237,661.419,73.78,657.108,69.151 M651.933,120.918c-1.497,4.634-3.847,8.706-7.062,12.239   c-3.217,3.526-7.371,6.313-12.47,8.35c-5.101,2.042-11.337,3.062-18.711,3.062h-33.648V67.386h33.648   c7.374,0,13.61,1.025,18.711,3.06c5.099,2.039,9.253,4.825,12.47,8.356c3.215,3.527,5.564,7.607,7.062,12.234   c1.49,4.628,2.232,9.614,2.232,14.946C654.165,111.31,653.423,116.297,651.933,120.918"/>
	<path fill="#FFCC33" d="M783.669,68.448c-5.171-4.784-11.405-8.592-18.703-11.417c-7.298-2.821-15.495-4.229-24.59-4.229   c-9.098,0-17.299,1.408-24.588,4.229c-7.295,2.826-13.53,6.634-18.71,11.417c-5.175,4.785-9.142,10.394-11.879,16.824   c-2.75,6.432-4.121,13.334-4.121,20.71c0,7.372,1.371,14.27,4.121,20.701c2.737,6.438,6.704,12.045,11.879,16.828   c5.18,4.786,11.415,8.469,18.71,11.06c7.289,2.583,15.49,3.881,24.588,3.881c9.095,0,17.292-1.298,24.59-3.881   c7.298-2.591,13.532-6.274,18.703-11.06c5.186-4.783,9.143-10.39,11.886-16.828c2.748-6.431,4.115-13.329,4.115-20.701   c0-7.376-1.367-14.279-4.115-20.71C792.812,78.842,788.854,73.233,783.669,68.448 M781.089,121.509   c-2.045,4.866-4.943,9.098-8.708,12.706c-3.767,3.609-8.355,6.47-13.769,8.586c-5.41,2.12-11.492,3.183-18.236,3.183   c-6.747,0-12.824-1.063-18.233-3.183c-5.413-2.116-10.002-4.977-13.768-8.586c-3.763-3.607-6.669-7.839-8.706-12.706   c-2.044-4.86-3.063-10.121-3.063-15.767c0-5.487,1.019-10.664,3.063-15.529c2.037-4.86,4.943-9.096,8.706-12.706   c3.766-3.608,8.354-6.43,13.768-8.473c5.409-2.04,11.486-3.057,18.233-3.057c6.744,0,12.826,1.017,18.236,3.057   c5.413,2.043,10.002,4.865,13.769,8.473c3.765,3.609,6.663,7.846,8.708,12.706c2.038,4.865,3.056,10.042,3.056,15.529   C784.145,111.389,783.127,116.649,781.089,121.509"/>
	<path fill="#FFCC33" d="M914.919,137.508c0,2.674-0.39,4.514-1.175,5.536c-0.787,1.016-2.351,1.525-4.711,1.525H835.15V63.62   c0-2.665,0.356-4.426,1.058-5.291c0.705-0.861,2.313-1.298,4.822-1.298v-2.819h-26.354v2.819c2.51,0,4.118,0.437,4.828,1.298   c0.707,0.865,1.058,2.626,1.058,5.291v84.714c0,2.665-0.351,4.434-1.058,5.294c-0.71,0.861-2.318,1.296-4.828,1.296v2.821h94.356   c2.36,0,3.924,0.312,4.711,0.943c0.785,0.624,1.175,1.799,1.175,3.527h2.824v-24.708H914.919z"/>
	<path fill="#FFFFFF" d="M943.773,138.466c3.527,0,6.501,1.17,8.931,3.511c2.425,2.341,3.64,5.192,3.64,8.557   c0,3.269-1.24,6.071-3.717,8.412c-2.479,2.34-5.431,3.511-8.854,3.511c-3.475,0-6.437-1.182-8.889-3.546   c-2.453-2.364-3.678-5.206-3.678-8.521c0-3.266,1.212-6.058,3.639-8.375C937.273,139.697,940.248,138.515,943.773,138.466z"/>
	<path fill="#FFCC33" d="M1041.946,130.57l11.431,19.899l-1.556,1.369c-1.083-0.913-1.939-1.369-2.57-1.369   c-0.767,0-2.547,0.995-5.344,2.981c-6.179,4.296-11.636,7.278-16.371,8.941c-4.735,1.665-10.191,2.499-16.37,2.499   c-12.357,0-22.437-3.517-30.236-10.554c-4.422-4.028-7.939-9.077-10.553-15.146c-2.799-6.551-4.196-13.667-4.196-21.348   c0-10.58,2.571-19.923,7.713-28.034c8.071-12.674,20.45-19.011,37.137-19.011c6.179,0,11.669,0.833,16.471,2.496   c4.806,1.666,10.273,4.647,16.406,8.943c2.797,1.988,4.577,2.98,5.344,2.98c0.631,0,1.487-0.456,2.57-1.369l1.556,1.45   l-11.431,19.737l-1.488-1.282c0.042-0.644,0.089-1.044,0.134-1.205c0.045-0.481,0.069-0.828,0.069-1.042   c0-2.619-3.045-5.584-9.134-8.9c-5.773-3.153-11.59-4.731-17.453-4.731c-8.207,0-14.971,2.573-20.293,7.714   c-6.088,5.785-9.132,13.203-9.132,22.253c0,9.106,3.044,16.551,9.132,22.336c5.365,5.088,12.131,7.632,20.293,7.632   c6.404,0,12.785-1.906,19.145-5.719c4.962-3.007,7.442-5.638,7.442-7.895c0-0.107-0.069-0.858-0.203-2.256L1041.946,130.57z"/>
	<path fill="#FFCC33" d="M1109.478,70.797c13.04,0,23.908,3.652,32.602,10.957c10.401,8.808,15.604,21.079,15.604,36.814   c0,14.771-5.202,26.558-15.604,35.366c-8.598,7.304-19.416,10.957-32.455,10.957s-23.857-3.653-32.454-10.957   c-10.452-8.808-15.676-20.838-15.676-36.091c0-15.413,5.224-27.443,15.676-36.089C1085.816,74.61,1096.585,70.957,1109.478,70.797z    M1109.553,87.875c-8.455,0-15.346,2.981-20.672,8.943c-4.936,5.586-7.403,12.595-7.403,21.025c0,8.38,2.468,15.361,7.403,20.946   c5.326,6.015,12.24,9.022,20.743,9.022c8.454,0,15.344-3.008,20.671-9.022c4.936-5.531,7.404-12.379,7.404-20.543   c0-8.86-2.469-16.003-7.404-21.428C1124.919,90.964,1118.004,87.982,1109.553,87.875z"/>
	<path fill="#FFCC33" d="M1217.184,162.957l-29.904-59.353v51.057c0,1.663,0.342,2.939,1.026,3.825   c0.683,0.886,1.902,1.623,3.66,2.214v2.256h-27.231V160.7c1.707-0.483,2.915-1.18,3.624-2.094c0.706-0.912,1.061-2.202,1.061-3.867   V80.947c0-1.664-0.342-2.94-1.024-3.826c-0.686-0.886-1.904-1.597-3.66-2.135V72.73h34.638v2.255   c-2.294,0.807-3.441,2.336-3.441,4.592c0,2.203,0.83,4.888,2.49,8.056l20.448,40.815l20.595-40.251   c2.342-4.242,3.514-7.25,3.514-9.023c0-2.201-1.196-3.597-3.589-4.189V72.73h33.759v2.255c-1.756,0.536-2.978,1.248-3.66,2.133   c-0.685,0.886-1.024,2.16-1.024,3.823v73.724c0,1.664,0.34,2.951,1.024,3.863c0.683,0.912,1.904,1.635,3.66,2.172v2.256h-28.987   V160.7c1.706-0.483,2.915-1.182,3.622-2.096c0.707-0.916,1.062-2.204,1.062-3.871v-51.129L1217.184,162.957z"/>
	<path fill="#FFFFFF" stroke="#FFFFFF" stroke-width="3" stroke-miterlimit="10" d="M296.221,236.551   c8.723,2.934,13.085,8.981,13.085,18.145c0,4.436-1.173,8.339-3.519,11.711c-2.31,3.336-5.425,5.69-9.347,7.065   c-3.923,1.374-9.512,2.062-16.77,2.062H235.96v-1.76c1.393-0.365,2.328-0.86,2.804-1.484c0.476-0.623,0.715-1.704,0.715-3.244   v-62.074c0-1.54-0.239-2.63-0.715-3.271c-0.477-0.642-1.411-1.127-2.804-1.457v-1.759h44.755c4.399,0,8.036,0.348,10.914,1.044   c2.877,0.696,5.416,1.852,7.615,3.464c5.058,3.629,7.587,8.834,7.587,15.615C306.833,227.828,303.295,233.142,296.221,236.551z    M248.112,232.867h28.92c4.105,0,7.175-0.128,9.209-0.385c2.034-0.256,3.912-0.733,5.636-1.43c2.125-0.88,3.775-2.235,4.948-4.068   c1.173-1.833,1.759-3.959,1.759-6.378c0-3.226-1.044-5.975-3.134-8.248c-1.687-1.795-3.876-3.032-6.57-3.711   c-2.694-0.678-6.827-1.018-12.398-1.018h-28.371V232.867z M248.112,268.386h30.13c4.325,0,7.533-0.138,9.622-0.412   c2.089-0.275,4.032-0.815,5.828-1.622c2.199-1.026,3.912-2.565,5.141-4.619c1.228-2.052,1.842-4.435,1.842-7.147   c0-3.592-1.082-6.652-3.244-9.182c-1.796-2.09-4.088-3.51-6.873-4.262c-2.786-0.751-7.074-1.127-12.866-1.127h-29.58V268.386z"/>
	<path fill="#FFFFFF" stroke="#FFFFFF" stroke-width="3" stroke-miterlimit="10" d="M335.753,268.386h47.944   c1.54,0,2.629-0.238,3.271-0.715c0.641-0.476,1.127-1.411,1.457-2.805h1.759v14.186h-1.759c-0.33-1.394-0.816-2.328-1.457-2.804   c-0.642-0.477-1.732-0.715-3.271-0.715h-60.096v-1.76c1.43-0.365,2.373-0.86,2.832-1.484c0.458-0.623,0.687-1.704,0.687-3.244   v-62.074c0-1.54-0.239-2.62-0.715-3.244c-0.477-0.622-1.411-1.118-2.804-1.484v-1.759h15.67v1.759   c-1.393,0.366-2.328,0.862-2.804,1.484c-0.477,0.624-0.715,1.704-0.715,3.244V268.386z"/>
	<path fill="#FFFFFF" stroke="#FFFFFF" stroke-width="3" stroke-miterlimit="10" d="M439.504,199.163   c13.232,0,23.898,3.464,32,10.392c4.544,3.849,7.954,8.56,10.227,14.131c1.87,4.582,2.804,9.512,2.804,14.79   c0,7.147-2.034,13.837-6.103,20.068c-4.473,6.892-10.686,11.857-18.639,14.9c-5.938,2.271-12.665,3.408-20.179,3.408   c-13.16,0-23.771-3.464-31.834-10.392c-4.509-3.885-7.917-8.595-10.227-14.13c-1.87-4.545-2.804-9.328-2.804-14.351   c0-7.44,2.016-14.295,6.048-20.563c4.399-6.78,10.63-11.729,18.694-14.845C425.135,200.409,431.807,199.272,439.504,199.163z    M439.504,206.696c-11.253,0-20.16,3.152-26.721,9.456c-6.012,5.792-9.017,13.068-9.017,21.828c0,8.797,3.005,16.092,9.017,21.883   c6.524,6.305,15.468,9.457,26.831,9.457c11.399,0,20.379-3.152,26.941-9.457c5.974-5.791,8.962-12.938,8.962-21.443   c0-9.199-2.988-16.622-8.962-22.268c-3.593-3.372-7.441-5.735-11.546-7.093C450.463,207.521,445.295,206.732,439.504,206.696z"/>
	<path fill="#FFFFFF" stroke="#FFFFFF" stroke-width="3" stroke-miterlimit="10" d="M578.278,206.971l-8.137,13.58l-1.484-0.879   c0.33-1.1,0.495-1.961,0.495-2.585c0-1.502-2.346-3.39-7.038-5.663c-6.452-3.151-13.489-4.728-21.113-4.728   c-10.263,0-18.583,2.838-24.961,8.514c-6.488,5.787-9.732,13.275-9.732,22.468c0,9.156,3.372,16.755,10.117,22.798   c6.524,5.897,14.57,8.845,24.137,8.845c9.347,0,17.594-2.722,24.742-8.165c3.225-2.455,4.838-4.196,4.838-5.224   c0-0.513-0.312-1.355-0.935-2.528l1.319-1.045l9.787,11.876l-1.375,1.103c-1.027-0.918-1.87-1.377-2.529-1.377   c-0.404,0-1.1,0.386-2.089,1.156c-3.373,2.535-6.167,4.436-8.385,5.703c-2.218,1.268-4.646,2.342-7.285,3.224   c-5.462,1.872-11.473,2.81-18.034,2.81c-12.646,0-22.927-3.519-30.845-10.557c-8.321-7.367-12.481-16.77-12.481-28.205   c0-9.018,2.602-16.825,7.808-23.423c8.137-10.337,20.324-15.505,36.563-15.505c10.739,0,21.131,2.842,31.175,8.522   c0.66,0.366,1.118,0.55,1.375,0.55c0.476,0,1.337-0.695,2.584-2.09L578.278,206.971z"/>
	<path fill="#FFFFFF" stroke="#FFFFFF" stroke-width="3" stroke-miterlimit="10" d="M604.725,246.723v22.322   c0,1.504,0.238,2.576,0.715,3.217c0.476,0.642,1.411,1.146,2.804,1.512v1.76h-15.67v-1.76c1.393-0.365,2.328-0.86,2.804-1.484   c0.476-0.623,0.715-1.704,0.715-3.244v-62.074c0-1.54-0.239-2.63-0.715-3.271c-0.477-0.642-1.411-1.127-2.804-1.457v-1.759h15.67   v1.759c-1.393,0.366-2.328,0.862-2.804,1.485c-0.477,0.623-0.715,1.706-0.715,3.246v31.191l40.503-31.689   c1.426-1.1,2.14-1.997,2.14-2.693c0-0.807-0.695-1.32-2.085-1.54v-1.759h19.813v1.759c-2.2,0.147-4.363,1.044-6.488,2.694   l-30.496,23.651l33.575,42.492c0.806,1.026,1.558,1.714,2.254,2.062c0.696,0.349,1.76,0.56,3.189,0.632v1.76h-18.31v-1.76   c1.576-0.365,2.364-0.897,2.364-1.594c0-0.44-0.807-1.705-2.419-3.794l-27.171-34.742L604.725,246.723z"/>
	<path fill="#FFFFFF" stroke="#FFFFFF" stroke-width="3" stroke-miterlimit="10" d="M750.372,206.971l-8.137,13.58l-1.485-0.879   c0.33-1.1,0.495-1.961,0.495-2.585c0-1.502-2.346-3.39-7.037-5.663c-6.452-3.151-13.49-4.728-21.113-4.728   c-10.264,0-18.584,2.838-24.962,8.514c-6.488,5.787-9.732,13.275-9.732,22.468c0,9.156,3.372,16.755,10.117,22.798   c6.523,5.897,14.57,8.845,24.137,8.845c9.348,0,17.595-2.722,24.742-8.165c3.225-2.455,4.839-4.196,4.839-5.224   c0-0.513-0.313-1.355-0.936-2.528l1.32-1.045l9.786,11.876l-1.374,1.103c-1.026-0.918-1.869-1.377-2.529-1.377   c-0.404,0-1.1,0.386-2.089,1.156c-3.373,2.535-6.168,4.436-8.385,5.703c-2.219,1.268-4.646,2.342-7.285,3.224   c-5.463,1.872-11.474,2.81-18.034,2.81c-12.646,0-22.928-3.519-30.846-10.557c-8.32-7.367-12.48-16.77-12.48-28.205   c0-9.018,2.603-16.825,7.808-23.423c8.137-10.337,20.324-15.505,36.563-15.505c10.74,0,21.132,2.842,31.175,8.522   c0.66,0.366,1.118,0.55,1.375,0.55c0.476,0,1.338-0.695,2.584-2.09L750.372,206.971z"/>
	<path fill="#FFFFFF" stroke="#FFFFFF" stroke-width="3" stroke-miterlimit="10" d="M828.227,240.51h-51.408v28.535   c0,1.54,0.229,2.621,0.688,3.244c0.458,0.624,1.401,1.119,2.831,1.484v1.76h-15.67v-1.76c1.43-0.365,2.373-0.86,2.832-1.484   c0.458-0.623,0.688-1.704,0.688-3.244v-62.074c0-1.54-0.239-2.63-0.715-3.271c-0.478-0.642-1.412-1.127-2.805-1.457v-1.759h15.67   v1.759c-1.394,0.366-2.328,0.862-2.804,1.484c-0.477,0.624-0.715,1.704-0.715,3.244v26.392h51.408v-26.392   c0-1.54-0.239-2.63-0.715-3.271c-0.477-0.642-1.411-1.127-2.804-1.457v-1.759h15.67v1.759c-1.394,0.366-2.329,0.862-2.805,1.484   c-0.477,0.624-0.715,1.704-0.715,3.244v62.074c0,1.504,0.238,2.576,0.715,3.217c0.476,0.642,1.411,1.146,2.805,1.512v1.76h-15.67   v-1.76c1.393-0.365,2.327-0.86,2.804-1.484c0.476-0.623,0.715-1.704,0.715-3.244V240.51z"/>
	<path fill="#FFFFFF" stroke="#FFFFFF" stroke-width="3" stroke-miterlimit="10" d="M910.119,254.475h-40.144l-6.599,14.241   c-0.624,1.356-0.936,2.309-0.936,2.858c0,1.1,1.085,1.834,3.256,2.199v1.76h-16.742v-1.76c1.502-0.256,2.647-0.806,3.437-1.649   c0.787-0.843,1.822-2.675,3.106-5.498l27.49-59.326c0.66-1.429,0.99-2.399,0.99-2.913c0-0.953-0.898-1.668-2.694-2.145v-1.759   h18.254v1.759c-1.796,0.587-2.694,1.356-2.694,2.31c0,0.403,0.33,1.319,0.99,2.748l26.336,57.182   c1.942,4.216,3.226,6.69,3.849,7.423c0.623,0.733,1.979,1.356,4.069,1.869v1.76h-17.814v-1.76c2.133-0.293,3.198-1.1,3.198-2.419   c0-0.586-0.403-1.723-1.209-3.409L910.119,254.475z M906.947,247.327l-16.899-37.084l-16.881,37.084H906.947z"/>
	<path fill="#FFFFFF" stroke="#FFFFFF" stroke-width="3" stroke-miterlimit="10" d="M943.415,269.045v-62.074   c0-1.54-0.239-2.63-0.715-3.271c-0.478-0.642-1.412-1.127-2.805-1.457v-1.759h15.67v1.759c-1.394,0.366-2.328,0.862-2.804,1.484   c-0.477,0.624-0.715,1.704-0.715,3.244v62.074c0,1.54,0.229,2.621,0.688,3.244c0.458,0.624,1.401,1.119,2.831,1.484v1.76h-15.67   v-1.76c1.43-0.365,2.373-0.86,2.832-1.484C943.186,271.666,943.415,270.585,943.415,269.045z"/>
	<path fill="#FFFFFF" stroke="#FFFFFF" stroke-width="3" stroke-miterlimit="10" d="M983.496,209.995v59.05   c0,1.504,0.237,2.576,0.715,3.217c0.476,0.642,1.41,1.146,2.804,1.512v1.76h-14.9v-1.76c1.43-0.365,2.373-0.86,2.832-1.484   c0.458-0.623,0.688-1.704,0.688-3.244v-62.074c0-1.54-0.239-2.63-0.715-3.271c-0.478-0.642-1.412-1.127-2.805-1.457v-1.759h21.563   v1.759c-1.724,0.587-2.585,1.411-2.585,2.474c0,0.734,0.861,2.109,2.585,4.124l45.24,52.893v-54.762c0-1.54-0.239-2.63-0.715-3.271   c-0.477-0.642-1.412-1.127-2.805-1.457v-1.759h14.9v1.759c-1.394,0.33-2.328,0.815-2.804,1.457   c-0.478,0.642-0.715,1.731-0.715,3.271v62.074c0,1.54,0.237,2.621,0.715,3.244c0.476,0.624,1.41,1.119,2.804,1.484v1.76h-17.325   v-1.76c1.687-0.439,2.53-1.19,2.53-2.254c0-0.806-0.771-2.125-2.311-3.959L983.496,209.995z"/>
	<path fill="#FFFFFF" stroke="#FFFFFF" stroke-width="4" stroke-miterlimit="10" d="M372.634,307.265v38.985   c0,0.992,0.157,1.7,0.472,2.123c0.314,0.424,0.931,0.757,1.851,0.999v1.161h-9.837v-1.161c0.944-0.242,1.566-0.568,1.87-0.98   c0.302-0.411,0.454-1.125,0.454-2.142v-40.981c0-1.017-0.158-1.736-0.472-2.16c-0.314-0.423-0.932-0.744-1.851-0.962v-1.161h14.236   v1.161c-1.138,0.388-1.707,0.933-1.707,1.634c0,0.484,0.569,1.392,1.707,2.723l29.867,34.919v-36.153   c0-1.017-0.158-1.736-0.472-2.16c-0.315-0.423-0.932-0.744-1.852-0.962v-1.161h9.837v1.161c-0.92,0.218-1.537,0.539-1.851,0.962   c-0.315,0.424-0.472,1.144-0.472,2.16v40.981c0,1.017,0.157,1.73,0.472,2.142c0.314,0.412,0.931,0.738,1.851,0.98v1.161h-11.438   v-1.161c1.113-0.291,1.67-0.786,1.67-1.488c0-0.532-0.509-1.403-1.525-2.614L372.634,307.265z"/>
	<path fill="#FFFFFF" stroke="#FFFFFF" stroke-width="4" stroke-miterlimit="10" d="M435.649,327.411v18.403h31.762   c1.016,0,1.736-0.157,2.16-0.472c0.423-0.314,0.744-0.932,0.962-1.852h1.162v9.365h-1.162c-0.242-0.92-0.575-1.537-0.998-1.852   c-0.423-0.314-1.143-0.472-2.158-0.472h-39.75v-1.161c0.944-0.242,1.566-0.568,1.87-0.98c0.302-0.411,0.454-1.125,0.454-2.142   v-40.981c0-1.017-0.158-1.729-0.472-2.142c-0.314-0.411-0.932-0.738-1.851-0.98v-1.161h39.312c1.017,0,1.73-0.155,2.142-0.465   c0.411-0.31,0.738-0.929,0.98-1.858h1.162v9.365h-1.162c-0.218-0.91-0.539-1.524-0.962-1.844s-1.143-0.479-2.16-0.479h-31.29   v16.988h20.509c1.017,0,1.736-0.157,2.16-0.473c0.423-0.313,0.744-0.931,0.962-1.851h1.162v9.365h-1.162   c-0.218-0.92-0.539-1.537-0.962-1.852s-1.143-0.472-2.16-0.472H435.649z"/>
	<path fill="#FFFFFF" stroke="#FFFFFF" stroke-width="4" stroke-miterlimit="10" d="M515.289,308.399l-12.552,36.217   c-0.485,1.429-0.728,2.42-0.728,2.977c0,0.799,0.69,1.392,2.071,1.779v1.161h-12.044v-1.161c1.38-0.267,2.071-0.859,2.071-1.779   c0-0.508-0.267-1.5-0.801-2.977l-13.26-36.48c-0.92-2.491-1.629-4.059-2.125-4.7c-0.497-0.641-1.326-1.071-2.488-1.289v-1.161   h11.636v1.161c-1.453,0.17-2.179,0.787-2.179,1.852c0,0.388,0.327,1.513,0.981,3.376l12.339,35.01l12.246-35.01   c0.704-2.057,1.056-3.242,1.056-3.558c0-0.871-0.691-1.428-2.072-1.67v-1.161H522.1v1.161c-1.381,0.34-2.072,0.957-2.072,1.852   c0,0.363,0.327,1.488,0.983,3.376l12.009,35.01l11.883-35.01c0.583-1.742,0.875-2.892,0.875-3.448c0-0.92-0.679-1.513-2.037-1.779   v-1.161h10.967v1.161c-1.187,0.242-2.053,0.708-2.598,1.397c-0.545,0.69-1.217,2.221-2.016,4.592l-12.679,36.48   c-0.484,1.404-0.727,2.336-0.727,2.795c0,0.969,0.69,1.622,2.07,1.961v1.161h-11.842v-1.161c1.379-0.314,2.07-0.98,2.07-1.997   c0-0.314-0.242-1.137-0.727-2.468L515.289,308.399z"/>
	<path fill="#FFFFFF" stroke="#FFFFFF" stroke-width="4" stroke-miterlimit="10" d="M604.947,304.063l-5.19,9.372l-1.017-0.544   c0.411-1.089,0.617-1.767,0.617-2.033c0-0.726-0.896-1.512-2.686-2.359c-4.864-2.274-10.019-3.412-15.463-3.412   c-4.477,0-8.373,0.833-11.688,2.5c-1.597,0.821-2.862,1.883-3.793,3.188c-0.932,1.304-1.397,2.681-1.397,4.129   c0,1.208,0.363,2.349,1.089,3.423c0.726,1.075,1.682,1.878,2.868,2.41c1.307,0.603,2.85,1.02,4.628,1.249   c1.779,0.229,4.677,0.405,8.694,0.525c5.565,0.169,9.546,0.43,11.942,0.78c2.396,0.351,4.368,0.962,5.917,1.833   c4.114,2.299,6.171,5.796,6.171,10.49c0,4.478-1.864,8.144-5.59,10.999c-4.138,3.194-9.837,4.791-17.097,4.791   c-4.187,0-7.84-0.424-10.962-1.271s-6.849-2.407-11.18-4.683c-1.21-0.557-1.924-0.835-2.142-0.835   c-0.363,0-0.932,0.436-1.706,1.307l-0.98-0.616l5.445-9.111l1.016,0.581c-0.46,0.968-0.689,1.621-0.689,1.96   c0,0.774,1.548,1.973,4.646,3.594c2.783,1.451,5.463,2.499,8.041,3.14c2.577,0.642,5.378,0.962,8.403,0.962   c6.122,0,10.769-1.343,13.939-4.029c2.105-1.791,3.158-3.92,3.158-6.389c0-3.242-1.803-5.481-5.409-6.715   c-1.162-0.412-2.366-0.672-3.612-0.781c-1.247-0.108-4.786-0.271-10.617-0.489c-4.163-0.169-7.423-0.484-9.783-0.944   c-2.359-0.459-4.459-1.21-6.298-2.25c-1.718-0.968-3.08-2.323-4.083-4.065c-1.004-1.743-1.506-3.643-1.506-5.699   c0-3.509,1.307-6.521,3.92-9.038c1.936-1.839,4.61-3.285,8.022-4.338c3.412-1.053,7.151-1.579,11.216-1.579   c3.315,0,6.394,0.329,9.238,0.987c2.843,0.658,6.056,1.792,9.637,3.4c0.799,0.341,1.294,0.512,1.488,0.512   c0.436,0,1.028-0.487,1.779-1.463L604.947,304.063z"/>
	<path fill="#FFFFFF" stroke="#FFFFFF" stroke-width="4" stroke-miterlimit="10" d="M660.956,300.114   c8.735,0,15.777,2.287,21.126,6.86c3,2.541,5.25,5.65,6.751,9.329c1.234,3.025,1.852,6.279,1.852,9.764   c0,4.72-1.343,9.136-4.029,13.249c-2.953,4.551-7.055,7.829-12.306,9.838c-3.92,1.5-8.361,2.25-13.321,2.25   c-8.688,0-15.694-2.287-21.017-6.86c-2.977-2.564-5.228-5.675-6.752-9.329c-1.234-3-1.852-6.158-1.852-9.474   c0-4.912,1.331-9.438,3.993-13.576c2.904-4.477,7.018-7.743,12.342-9.801C651.469,300.938,655.874,300.187,660.956,300.114z    M660.956,305.087c-7.43,0-13.311,2.082-17.642,6.243c-3.969,3.824-5.953,8.628-5.953,14.411c0,5.808,1.984,10.624,5.953,14.447   c4.307,4.162,10.212,6.243,17.714,6.243c7.525,0,13.454-2.081,17.786-6.243c3.944-3.823,5.917-8.543,5.917-14.157   c0-6.073-1.973-10.974-5.917-14.701c-2.372-2.226-4.913-3.786-7.622-4.683C668.191,305.632,664.779,305.111,660.956,305.087z"/>
	<path fill="#FFFFFF" stroke="#FFFFFF" stroke-width="4" stroke-miterlimit="10" d="M707.382,305.269v27.405   c0,3.243,0.17,5.524,0.509,6.843c0.339,1.319,1.04,2.463,2.105,3.43c2.589,2.323,7.417,3.485,14.483,3.485   c7.695,0,12.74-1.367,15.136-4.102c0.799-0.92,1.331-2.015,1.598-3.285c0.266-1.271,0.399-3.395,0.399-6.371v-27.405   c0-0.992-0.158-1.7-0.472-2.123c-0.315-0.424-0.933-0.757-1.852-0.999v-1.161h9.837v1.161c-0.92,0.218-1.537,0.539-1.852,0.962   c-0.314,0.424-0.472,1.144-0.472,2.16V333.8c0,3.509-0.339,6.183-1.017,8.021c-1.258,3.291-3.624,5.712-7.096,7.26   c-3.474,1.549-8.283,2.323-14.429,2.323c-9.196,0-15.488-1.778-18.876-5.336c-1.379-1.428-2.341-3.055-2.886-4.882   c-0.544-1.827-0.816-4.289-0.816-7.387v-28.531c0-1.017-0.158-1.736-0.472-2.16c-0.315-0.423-0.933-0.744-1.852-0.962v-1.161   h10.345v1.161c-0.92,0.242-1.537,0.575-1.851,0.999C707.539,303.568,707.382,304.276,707.382,305.269z"/>
	<path fill="#FFFFFF" stroke="#FFFFFF" stroke-width="4" stroke-miterlimit="10" d="M781.069,305.704v40.546   c0,0.992,0.157,1.7,0.472,2.123c0.314,0.424,0.932,0.757,1.852,0.999v1.161h-10.346v-1.161c0.92-0.242,1.536-0.568,1.852-0.98   c0.314-0.411,0.472-1.125,0.472-2.142v-40.546H758.6c-1.016,0-1.736,0.153-2.159,0.461c-0.424,0.308-0.744,0.928-0.962,1.862   h-1.162v-9.365h1.162c0.218,0.93,0.538,1.549,0.962,1.858c0.423,0.31,1.144,0.465,2.159,0.465h39.239   c1.017,0,1.736-0.155,2.16-0.465c0.423-0.31,0.744-0.929,0.962-1.858h1.161v9.365h-1.161c-0.218-0.935-0.539-1.555-0.962-1.862   c-0.424-0.308-1.144-0.461-2.16-0.461H781.069z"/>
	<path fill="#FFFFFF" stroke="#FFFFFF" stroke-width="4" stroke-miterlimit="10" d="M816.351,345.814h31.652   c1.017,0,1.736-0.157,2.16-0.472c0.423-0.314,0.744-0.932,0.962-1.852h1.161v9.365h-1.161c-0.218-0.92-0.539-1.537-0.962-1.852   c-0.424-0.314-1.144-0.472-2.16-0.472h-39.675v-1.161c0.944-0.242,1.567-0.568,1.87-0.98c0.302-0.411,0.453-1.125,0.453-2.142   v-40.981c0-1.017-0.157-1.729-0.472-2.142c-0.314-0.411-0.932-0.738-1.852-0.98v-1.161h10.346v1.161   c-0.92,0.242-1.537,0.569-1.852,0.98c-0.314,0.412-0.472,1.125-0.472,2.142V345.814z"/>
	<path fill="#FFFFFF" stroke="#FFFFFF" stroke-width="4" stroke-miterlimit="10" d="M866.77,327.411v18.403h31.762   c1.017,0,1.736-0.157,2.159-0.472c0.424-0.314,0.744-0.932,0.962-1.852h1.162v9.365h-1.162c-0.241-0.92-0.574-1.537-0.997-1.852   s-1.143-0.472-2.157-0.472h-39.751v-1.161c0.944-0.242,1.567-0.568,1.87-0.98c0.302-0.411,0.453-1.125,0.453-2.142v-40.981   c0-1.017-0.157-1.729-0.472-2.142c-0.314-0.411-0.932-0.738-1.852-0.98v-1.161h39.313c1.016,0,1.729-0.155,2.142-0.465   c0.411-0.31,0.737-0.929,0.979-1.858h1.162v9.365h-1.162c-0.218-0.91-0.539-1.524-0.962-1.844   c-0.424-0.319-1.144-0.479-2.159-0.479h-31.29v16.988h20.509c1.017,0,1.736-0.157,2.16-0.473c0.423-0.313,0.744-0.931,0.962-1.851   h1.161v9.365H890.4c-0.218-0.92-0.539-1.537-0.962-1.852c-0.424-0.314-1.144-0.472-2.16-0.472H866.77z"/>
	<path fill="#FFFFFF" stroke="#FFFFFF" stroke-width="4" stroke-miterlimit="10" d="M934.286,305.704v40.546   c0,0.992,0.157,1.7,0.472,2.123c0.314,0.424,0.932,0.757,1.852,0.999v1.161h-10.346v-1.161c0.92-0.242,1.536-0.568,1.852-0.98   c0.314-0.411,0.472-1.125,0.472-2.142v-40.546h-16.771c-1.016,0-1.736,0.153-2.159,0.461c-0.424,0.308-0.744,0.928-0.962,1.862   h-1.162v-9.365h1.162c0.218,0.93,0.538,1.549,0.962,1.858c0.423,0.31,1.144,0.465,2.159,0.465h39.239   c1.017,0,1.736-0.155,2.16-0.465c0.423-0.31,0.744-0.929,0.962-1.858h1.161v9.365h-1.161c-0.218-0.935-0.539-1.555-0.962-1.862   c-0.424-0.308-1.144-0.461-2.16-0.461H934.286z"/>
	<rect x="89.406" y="238.718" fill="#FFFFFF" width="122.443" height="8.746"/>
	<rect x="1071.131" y="238.718" fill="#FFFFFF" width="122.443" height="8.746"/>
</g>
<g id="Слой_5">
</g>
<style xmlns="http://www.w3.org/1999/xhtml" charset="utf-8" type="text/css" class="firebugResetStyles">/* See license.txt for terms of usage */
/** reset styling **/
.firebugResetStyles {
    z-index: 2147483646 !important;
    top: 0 !important;
    left: 0 !important;
    display: block !important;
    border: 0 none !important;
    margin: 0 !important;
    padding: 0 !important;
    outline: 0 !important;
    min-width: 0 !important;
    max-width: none !important;
    min-height: 0 !important;
    max-height: none !important;
    position: fixed !important;
    transform: rotate(0deg) !important;
    transform-origin: 50% 50% !important;
    border-radius: 0 !important;
    box-shadow: none !important;
    background: transparent none !important;
    pointer-events: none !important;
    white-space: normal !important;
}
style.firebugResetStyles {
    display: none !important;
}

.firebugBlockBackgroundColor {
    background-color: transparent !important;
}

.firebugResetStyles:before, .firebugResetStyles:after {
    content: "" !important;
}
/**actual styling to be modified by firebug theme**/
.firebugCanvas {
    display: none !important;
}

/* * * * * * * * * * * * * * * * * * * * * * * * * * * * * * * * * * * * * * * * * * * * * * * * */
.firebugLayoutBox {
    width: auto !important;
    position: static !important;
}

.firebugLayoutBoxOffset {
    opacity: 0.8 !important;
    position: fixed !important;
}

.firebugLayoutLine {
    opacity: 0.4 !important;
    background-color: #000000 !important;
}

.firebugLayoutLineLeft, .firebugLayoutLineRight {
    width: 1px !important;
    height: 100% !important;
}

.firebugLayoutLineTop, .firebugLayoutLineBottom {
    width: 100% !important;
    height: 1px !important;
}

.firebugLayoutLineTop {
    margin-top: -1px !important;
    border-top: 1px solid #999999 !important;
}

.firebugLayoutLineRight {
    border-right: 1px solid #999999 !important;
}

.firebugLayoutLineBottom {
    border-bottom: 1px solid #999999 !important;
}

.firebugLayoutLineLeft {
    margin-left: -1px !important;
    border-left: 1px solid #999999 !important;
}

/* * * * * * * * * * * * * * * * * * * * * * * * * * * * * * * * * * * * * * * * * * * * * * * * */
.firebugLayoutBoxParent {
    border-top: 0 none !important;
    border-right: 1px dashed #E00 !important;
    border-bottom: 1px dashed #E00 !important;
    border-left: 0 none !important;
    position: fixed !important;
    width: auto !important;
}

.firebugRuler{
    position: absolute !important;
}

.firebugRulerH {
    top: -15px !important;
    left: 0 !important;
    width: 100% !important;
    height: 14px !important;
    background: url("data:image/png,%89PNG%0D%0A%1A%0A%00%00%00%0DIHDR%00%00%13%88%00%00%00%0E%08%02%00%00%00L%25a%0A%00%00%00%04gAMA%00%00%D6%D8%D4OX2%00%00%00%19tEXtSoftware%00Adobe%20ImageReadyq%C9e%3C%00%00%04%F8IDATx%DA%EC%DD%D1n%E2%3A%00E%D1%80%F8%FF%EF%E2%AF2%95%D0D4%0E%C1%14%B0%8Fa-%E9%3E%CC%9C%87n%B9%81%A6W0%1C%A6i%9A%E7y%0As8%1CT%A9R%A5J%95*U%AAT%A9R%A5J%95*U%AAT%A9R%A5J%95*U%AAT%A9R%A5J%95*U%AAT%A9R%A5J%95*U%AAT%A9R%A5J%95*U%AAT%A9R%A5J%95*U%AATE9%FE%FCw%3E%9F%AF%2B%2F%BA%97%FDT%1D~K(%5C%9D%D5%EA%1B%5C%86%B5%A9%BDU%B5y%80%ED%AB*%03%FAV9%AB%E1%CEj%E7%82%EF%FB%18%BC%AEJ8%AB%FA'%D2%BEU9%D7U%ECc0%E1%A2r%5DynwVi%CFW%7F%BB%17%7Dy%EACU%CD%0E%F0%FA%3BX%FEbV%FEM%9B%2B%AD%BE%AA%E5%95v%AB%AA%E3E5%DCu%15rV9%07%B5%7F%B5w%FCm%BA%BE%AA%FBY%3D%14%F0%EE%C7%60%0EU%AAT%A9R%A5J%95*U%AAT%A9R%A5J%95*U%AAT%A9R%A5J%95*U%AAT%A9R%A5J%95*U%AAT%A9R%A5JU%88%D3%F5%1F%AE%DF%3B%1B%F2%3E%DAUCNa%F92%D02%AC%7Dm%F9%3A%D4%F2%8B6%AE*%BF%5C%C2Ym~9g5%D0Y%95%17%7C%C8c%B0%7C%18%26%9CU%CD%13i%F7%AA%90%B3Z%7D%95%B4%C7%60%E6E%B5%BC%05%B4%FBY%95U%9E%DB%FD%1C%FC%E0%9F%83%7F%BE%17%7DkjMU%E3%03%AC%7CWj%DF%83%9An%BCG%AE%F1%95%96yQ%0Dq%5Dy%00%3Et%B5'%FC6%5DS%95pV%95%01%81%FF'%07%00%00%00%00%00%00%00%00%00%F8x%C7%F0%BE%9COp%5D%C9%7C%AD%E7%E6%EBV%FB%1E%E0(%07%E5%AC%C6%3A%ABi%9C%8F%C6%0E9%AB%C0'%D2%8E%9F%F99%D0E%B5%99%14%F5%0D%CD%7F%24%C6%DEH%B8%E9rV%DFs%DB%D0%F7%00k%FE%1D%84%84%83J%B8%E3%BA%FB%EF%20%84%1C%D7%AD%B0%8E%D7U%C8Y%05%1E%D4t%EF%AD%95Q%BF8w%BF%E9%0A%BF%EB%03%00%00%00%00%00%00%00%00%00%B8vJ%8E%BB%F5%B1u%8Cx%80%E1o%5E%CA9%AB%CB%CB%8E%03%DF%1D%B7T%25%9C%D5(%EFJM8%AB%CC'%D2%B2*%A4s%E7c6%FB%3E%FA%A2%1E%80~%0E%3E%DA%10x%5D%95Uig%15u%15%ED%7C%14%B6%87%A1%3B%FCo8%A8%D8o%D3%ADO%01%EDx%83%1A~%1B%9FpP%A3%DC%C6'%9C%95gK%00%00%00%00%00%00%00%00%00%20%D9%C9%11%D0%C0%40%AF%3F%EE%EE%92%94%D6%16X%B5%BCMH%15%2F%BF%D4%A7%C87%F1%8E%F2%81%AE%AAvzr%DA2%ABV%17%7C%E63%83%E7I%DC%C6%0Bs%1B%EF6%1E%00%00%00%00%00%00%00%00%00%80cr%9CW%FF%7F%C6%01%0E%F1%CE%A5%84%B3%CA%BC%E0%CB%AA%84%CE%F9%BF)%EC%13%08WU%AE%AB%B1%AE%2BO%EC%8E%CBYe%FE%8CN%ABr%5Dy%60~%CFA%0D%F4%AE%D4%BE%C75%CA%EDVB%EA(%B7%F1%09g%E5%D9%12%00%00%00%00%00%00%00%00%00H%F6%EB%13S%E7y%5E%5E%FB%98%F0%22%D1%B2'%A7%F0%92%B1%BC%24z3%AC%7Dm%60%D5%92%B4%7CEUO%5E%F0%AA*%3BU%B9%AE%3E%A0j%94%07%A0%C7%A0%AB%FD%B5%3F%A0%F7%03T%3Dy%D7%F7%D6%D4%C0%AAU%D2%E6%DFt%3F%A8%CC%AA%F2%86%B9%D7%F5%1F%18%E6%01%F8%CC%D5%9E%F0%F3z%88%AA%90%EF%20%00%00%00%00%00%00%00%00%00%C0%A6%D3%EA%CFi%AFb%2C%7BB%0A%2B%C3%1A%D7%06V%D5%07%A8r%5D%3D%D9%A6%CAu%F5%25%CF%A2%99%97zNX%60%95%AB%5DUZ%D5%FBR%03%AB%1C%D4k%9F%3F%BB%5C%FF%81a%AE%AB'%7F%F3%EA%FE%F3z%94%AA%D8%DF%5B%01%00%00%00%00%00%00%00%00%00%8E%FB%F3%F2%B1%1B%8DWU%AAT%A9R%A5J%95*U%AAT%A9R%A5J%95*U%AAT%A9R%A5J%95*U%AAT%A9R%A5J%95*U%AAT%A9R%A5J%95*U%AAT%A9R%A5J%95*U%AAT%A9R%A5J%95*UiU%C7%BBe%E7%F3%B9%CB%AAJ%95*U%AAT%A9R%A5J%95*U%AAT%A9R%A5J%95*U%AAT%A9R%A5J%95*U%AAT%A9R%A5J%95*U%AAT%A9R%A5J%95*U%AAT%A9R%A5J%95*U%AAT%A9R%A5*%AAj%FD%C6%D4%5Eo%90%B5Z%ADV%AB%D5j%B5Z%ADV%AB%D5j%B5Z%ADV%AB%D5j%B5Z%ADV%AB%D5j%B5Z%ADV%AB%D5j%B5Z%ADV%AB%D5j%B5Z%ADV%AB%D5j%B5%86%AF%1B%9F%98%DA%EBm%BBV%AB%D5j%B5Z%ADV%AB%D5j%B5Z%ADV%AB%D5j%B5Z%ADV%AB%D5j%B5Z%ADV%AB%D5j%B5Z%ADV%AB%D5j%B5Z%ADV%AB%D5j%B5Z%AD%D6%E4%F58%01%00%00%00%00%00%00%00%00%00%00%00%00%00%40%85%7F%02%0C%008%C2%D0H%16j%8FX%00%00%00%00IEND%AEB%60%82") repeat-x !important;
    border-top: 1px solid #BBBBBB !important;
    border-right: 1px dashed #BBBBBB !important;
    border-bottom: 1px solid #000000 !important;
}

.firebugRulerV {
    top: 0 !important;
    left: -15px !important;
    width: 14px !important;
    height: 100% !important;
    background: url("data:image/png,%89PNG%0D%0A%1A%0A%00%00%00%0DIHDR%00%00%00%0E%00%00%13%88%08%02%00%00%00%0E%F5%CB%10%00%00%00%04gAMA%00%00%D6%D8%D4OX2%00%00%00%19tEXtSoftware%00Adobe%20ImageReadyq%C9e%3C%00%00%06~IDATx%DA%EC%DD%D1v%A20%14%40Qt%F1%FF%FF%E4%97%D9%07%3BT%19%92%DC%40(%90%EEy%9A5%CB%B6%E8%F6%9Ac%A4%CC0%84%FF%DC%9E%CF%E7%E3%F1%88%DE4%F8%5D%C7%9F%2F%BA%DD%5E%7FI%7D%F18%DDn%BA%C5%FB%DF%97%BFk%F2%10%FF%FD%B4%F2M%A7%FB%FD%FD%B3%22%07p%8F%3F%AE%E3%F4S%8A%8F%40%EEq%9D%BE8D%F0%0EY%A1Uq%B7%EA%1F%81%88V%E8X%3F%B4%CEy%B7h%D1%A2E%EBohU%FC%D9%AF2fO%8BBeD%BE%F7X%0C%97%A4%D6b7%2Ck%A5%12%E3%9B%60v%B7r%C7%1AI%8C%BD%2B%23r%00c0%B2v%9B%AD%CA%26%0C%1Ek%05A%FD%93%D0%2B%A1u%8B%16-%95q%5Ce%DCSO%8E%E4M%23%8B%F7%C2%FE%40%BB%BD%8C%FC%8A%B5V%EBu%40%F9%3B%A72%FA%AE%8C%D4%01%CC%B5%DA%13%9CB%AB%E2I%18%24%B0n%A9%0CZ*Ce%9C%A22%8E%D8NJ%1E%EB%FF%8F%AE%CAP%19*%C3%BAEKe%AC%D1%AAX%8C*%DEH%8F%C5W%A1e%AD%D4%B7%5C%5B%19%C5%DB%0D%EF%9F%19%1D%7B%5E%86%BD%0C%95%A12%AC%5B*%83%96%CAP%19%F62T%86%CAP%19*%83%96%CA%B8Xe%BC%FE)T%19%A1%17xg%7F%DA%CBP%19*%C3%BA%A52T%86%CAP%19%F62T%86%CA%B0n%A9%0CZ%1DV%C6%3D%F3%FCH%DE%B4%B8~%7F%5CZc%F1%D6%1F%AF%84%F9%0F6%E6%EBVt9%0E~%BEr%AF%23%B0%97%A12T%86%CAP%19%B4T%86%CA%B8Re%D8%CBP%19*%C3%BA%A52huX%19%AE%CA%E5%BC%0C%7B%19*CeX%B7h%A9%0C%95%E1%BC%0C%7B%19*CeX%B7T%06%AD%CB%5E%95%2B%BF.%8F%C5%97%D5%E4%7B%EE%82%D6%FB%CF-%9C%FD%B9%CF%3By%7B%19%F62T%86%CA%B0n%D1R%19*%A3%D3%CA%B0%97%A12T%86uKe%D0%EA%B02*%3F1%99%5DB%2B%A4%B5%F8%3A%7C%BA%2B%8Co%7D%5C%EDe%A8%0C%95a%DDR%19%B4T%C66%82fA%B2%ED%DA%9FC%FC%17GZ%06%C9%E1%B3%E5%2C%1A%9FoiB%EB%96%CA%A0%D5qe4%7B%7D%FD%85%F7%5B%ED_%E0s%07%F0k%951%ECr%0D%B5C%D7-g%D1%A8%0C%EB%96%CA%A0%A52T%C6)*%C3%5E%86%CAP%19%D6-%95A%EB*%95q%F8%BB%E3%F9%AB%F6%E21%ACZ%B7%22%B7%9B%3F%02%85%CB%A2%5B%B7%BA%5E%B7%9C%97%E1%BC%0C%EB%16-%95%A12z%AC%0C%BFc%A22T%86uKe%D0%EA%B02V%DD%AD%8A%2B%8CWhe%5E%AF%CF%F5%3B%26%CE%CBh%5C%19%CE%CB%B0%F3%A4%095%A1%CAP%19*Ce%A8%0C%3BO*Ce%A8%0C%95%A12%3A%AD%8C%0A%82%7B%F0v%1F%2FD%A9%5B%9F%EE%EA%26%AF%03%CA%DF9%7B%19*Ce%A8%0C%95%A12T%86%CA%B8Ze%D8%CBP%19*Ce%A8%0C%95%D1ae%EC%F7%89I%E1%B4%D7M%D7P%8BjU%5C%BB%3E%F2%20%D8%CBP%19*Ce%A8%0C%95%A12T%C6%D5*%C3%5E%86%CAP%19*Ce%B4O%07%7B%F0W%7Bw%1C%7C%1A%8C%B3%3B%D1%EE%AA%5C%D6-%EBV%83%80%5E%D0%CA%10%5CU%2BD%E07YU%86%CAP%19*%E3%9A%95%91%D9%A0%C8%AD%5B%EDv%9E%82%FFKOee%E4%8FUe%A8%0C%95%A12T%C6%1F%A9%8C%C8%3D%5B%A5%15%FD%14%22r%E7B%9F%17l%F8%BF%ED%EAf%2B%7F%CF%ECe%D8%CBP%19*Ce%A8%0C%95%E1%93~%7B%19%F62T%86%CAP%19*Ce%A8%0C%E7%13%DA%CBP%19*Ce%A8%0CZf%8B%16-Z%B4h%D1R%19f%8B%16-Z%B4h%D1R%19%B4%CC%16-Z%B4h%D1R%19%B4%CC%16-Z%B4h%D1%A2%A52%CC%16-Z%B4h%D1%A2%A52h%99-Z%B4h%D1%A2%A52h%99-Z%B4h%D1%A2EKe%98-Z%B4h%D1%A2EKe%D02%5B%B4h%D1%A2EKe%D02%5B%B4h%D1%A2E%8B%96%CA0%5B%B4h%D1%A2E%8B%96%CA%A0e%B6h%D1%A2E%8B%96%CA%A0e%B6h%D1%A2E%8B%16-%95a%B6h%D1%A2E%8B%16-%95A%CBl%D1%A2E%8B%16-%95A%CBl%D1%A2E%8B%16-Z*%C3l%D1%A2E%8B%16-Z*%83%96%D9%A2E%8B%16-Z*%83%96%D9%A2E%8B%16-Z%B4T%86%D9%A2E%8B%16-Z%B4T%06-%B3E%8B%16-Z%B4T%06-%B3E%8B%16-Z%B4h%A9%0C%B3E%8B%16-Z%B4h%A9%0CZf%8B%16-Z%B4h%A9%0CZf%8B%16-Z%B4h%D1R%19f%8B%16-Z%B4h%D1R%19%B4%CC%16-Z%B4h%D1R%19%B4%CC%16-Z%B4h%D1%A2%A52%CC%16-Z%B4h%D1%A2%A52h%99-Z%B4h%D1%A2%A52h%99-Z%B4h%D1%A2EKe%98-Z%B4h%D1%A2EKe%D02%5B%B4h%D1%A2EKe%D02%5B%B4h%D1%A2E%8B%96%CA0%5B%B4h%D1%A2E%8B%96%CA%A0e%B6h%D1%A2E%8B%96%CA%A0e%B6h%D1%A2E%8B%16-%95a%B6h%D1%A2E%8B%16-%95A%CBl%D1%A2E%8B%16-%95A%CBl%D1%A2E%8B%16-Z*%C3l%D1%A2E%8B%16-Z*%83%96%D9%A2E%8B%16-Z*%83%96%D9%A2E%8B%16-Z%B4T%86%D9%A2E%8B%16-Z%B4T%06-%B3E%8B%16-Z%B4T%06-%B3E%8B%16-Z%B4h%A9%0C%B3E%8B%16-Z%B4h%A9%0CZf%8B%16-Z%B4h%A9%0CZf%8B%16-Z%B4h%D1R%19f%8B%16-Z%B4h%D1R%19%B4%CC%16-Z%B4h%D1R%19%B4%CC%16-Z%B4h%D1%A2%A52%CC%16-Z%B4h%D1%A2%A52h%99-Z%B4h%D1%A2%A52h%99-Z%B4h%D1%A2EKe%98-Z%B4h%D1%A2EKe%D02%5B%B4h%D1%A2EKe%D02%5B%B4h%D1%A2E%8B%96%CA0%5B%B4h%D1%A2E%8B%96%CA%A0e%B6h%D1%A2E%8B%96%CA%A0e%B6h%D1%A2E%8B%16-%95a%B6h%D1%A2E%8B%16-%95A%CBl%D1%A2E%8B%16-%95A%CBl%D1%A2E%8B%16-Z*%C3l%D1%A2E%8B%16-Z*%83%96%D9%A2E%8B%16-Z*%83%96%D9%A2E%8B%16-Z%B4T%86%D9%A2E%8B%16-Z%B4T%06-%B3E%8B%16-Z%B4%AE%A4%F5%25%C0%00%DE%BF%5C'%0F%DA%B8q%00%00%00%00IEND%AEB%60%82") repeat-y !important;
    border-left: 1px solid #BBBBBB !important;
    border-right: 1px solid #000000 !important;
    border-bottom: 1px dashed #BBBBBB !important;
}

.overflowRulerX &gt; .firebugRulerV {
    left: 0 !important;
}

.overflowRulerY &gt; .firebugRulerH {
    top: 0 !important;
}

/* * * * * * * * * * * * * * * * * * * * * * * * * * * * * * * * * * * * * * * * * * * * * * * * */
.fbProxyElement {
    position: fixed !important;
    pointer-events: auto !important;
}
</style></svg>