<?xml version="1.0" encoding="utf-8"?>
<!-- Generator: Adobe Illustrator 17.0.0, SVG Export Plug-In . SVG Version: 6.00 Build 0)  -->
<!DOCTYPE svg PUBLIC "-//W3C//DTD SVG 1.1//EN" "http://www.w3.org/Graphics/SVG/1.1/DTD/svg11.dtd">
<svg version="1.1" id="Layer_1" xmlns="http://www.w3.org/2000/svg" xmlns:xlink="http://www.w3.org/1999/xlink" x="0px" y="0px"
	 width="113.39px" height="48.19px" viewBox="0 0 113.39 48.19" enable-background="new 0 0 113.39 48.19" xml:space="preserve">
<g>
	<g>
		<path fill="#FFFFFF" d="M9.532,21.083h2.649v1.387H4.505v-1.387h2.253V6.523H4.505V5.135h13.397v4.061h-1.585V7.067l-0.495-0.544
			h-6.29v6.784h4.482l0.371-0.371v-1.189h1.585v4.532h-1.585V15.09l-0.371-0.396H9.532V21.083z"/>
		<path fill="#FFFFFF" d="M26.519,22.47h-6.265v-1.238h1.832V10.707h-1.832V9.469h4.432v11.762h1.833V22.47z M21.542,5.457
			c0-0.478,0.169-0.858,0.508-1.139c0.338-0.28,0.772-0.421,1.3-0.421c0.561,0,1.003,0.141,1.325,0.421
			c0.322,0.281,0.483,0.661,0.483,1.139c0,0.48-0.161,0.859-0.483,1.139c-0.322,0.281-0.764,0.422-1.325,0.422
			c-0.528,0-0.962-0.141-1.3-0.422C21.711,6.316,21.542,5.937,21.542,5.457z"/>
		<path fill="#FFFFFF" d="M43.655,22.47h-6.067v-1.238h1.634v-6.216c0-1.303-0.198-2.319-0.594-3.045
			c-0.396-0.727-1.123-1.09-2.179-1.09c-0.462,0-0.888,0.074-1.275,0.223c-0.388,0.149-0.735,0.346-1.04,0.594
			c-0.306,0.248-0.57,0.537-0.792,0.867c-0.223,0.331-0.392,0.677-0.508,1.04v7.627h1.634v1.238h-6.067v-1.238h1.832V10.707h-1.832
			V9.469h4.432v2.576h0.025c0.38-0.793,0.937-1.461,1.672-2.006c0.734-0.545,1.622-0.817,2.662-0.817
			c0.743,0,1.403,0.079,1.981,0.235c0.578,0.157,1.061,0.442,1.449,0.854c0.388,0.413,0.685,0.966,0.891,1.66
			c0.206,0.693,0.309,1.576,0.309,2.649v6.612h1.832V22.47z"/>
		<path fill="#FFFFFF" d="M46.23,5.135h-2.056V3.897h4.656v8.122h0.074c0.313-0.875,0.84-1.56,1.581-2.055
			c0.741-0.495,1.572-0.743,2.495-0.743c1.679,0,2.967,0.528,3.865,1.584c0.897,1.057,1.346,2.7,1.346,4.928
			c0,2.295-0.622,4.032-1.866,5.212c-1.244,1.181-3.019,1.771-5.326,1.771c-0.461,0-0.927-0.029-1.396-0.087
			c-0.47-0.058-0.923-0.132-1.359-0.223c-0.437-0.09-0.828-0.193-1.174-0.31c-0.346-0.114-0.626-0.239-0.84-0.371V5.135z
			 M52.174,10.88c-0.891,0-1.606,0.269-2.142,0.805c-0.537,0.537-0.937,1.226-1.201,2.068v7.205c0.33,0.182,0.731,0.326,1.201,0.434
			c0.47,0.108,0.978,0.161,1.523,0.161c1.221,0,2.171-0.495,2.848-1.487c0.677-0.99,1.015-2.435,1.015-4.333
			c0-0.677-0.058-1.312-0.173-1.906c-0.116-0.595-0.306-1.11-0.57-1.549c-0.264-0.436-0.599-0.779-1.003-1.027
			C53.267,11.005,52.768,10.88,52.174,10.88z"/>
		<path fill="#FFFFFF" d="M66.709,22.47h-6.265v-1.238h1.832V5.135h-2.105V3.897h4.705v17.335h1.833V22.47z"/>
		<path fill="#FFFFFF" d="M68.838,15.982c0-1.089,0.156-2.055,0.469-2.898c0.313-0.842,0.754-1.548,1.323-2.117
			c0.568-0.57,1.261-1.003,2.076-1.3c0.816-0.296,1.718-0.445,2.707-0.445c1.153,0,2.146,0.161,2.978,0.483s1.512,0.776,2.039,1.362
			s0.919,1.296,1.174,2.129c0.255,0.834,0.383,1.762,0.383,2.785c0,1.09-0.152,2.052-0.457,2.885
			c-0.305,0.834-0.742,1.535-1.31,2.105c-0.568,0.57-1.26,1.003-2.076,1.3c-0.816,0.296-1.726,0.445-2.731,0.445
			c-1.12,0-2.093-0.161-2.917-0.483c-0.824-0.322-1.508-0.776-2.051-1.362c-0.544-0.585-0.948-1.291-1.211-2.117
			C68.97,17.93,68.838,17.005,68.838,15.982z M71.612,15.982c0,0.793,0.074,1.528,0.223,2.204c0.149,0.677,0.393,1.263,0.733,1.759
			c0.339,0.495,0.778,0.887,1.317,1.176c0.538,0.29,1.197,0.434,1.975,0.434c0.977,0,1.78-0.446,2.41-1.338
			c0.629-0.891,0.944-2.303,0.944-4.234c0-0.793-0.075-1.531-0.224-2.216c-0.149-0.685-0.385-1.279-0.708-1.783
			c-0.323-0.504-0.737-0.896-1.242-1.177c-0.505-0.28-1.122-0.421-1.851-0.421c-1.094,0-1.963,0.446-2.609,1.338
			C71.934,12.615,71.612,14.034,71.612,15.982z"/>
		<path fill="#FFFFFF" d="M95.062,20.811c-0.347,0.478-0.896,0.92-1.647,1.324c-0.751,0.404-1.639,0.606-2.662,0.606
			c-1.09,0-2.043-0.161-2.86-0.483c-0.817-0.322-1.498-0.775-2.043-1.361c-0.545-0.586-0.949-1.297-1.213-2.13
			c-0.264-0.833-0.396-1.762-0.396-2.785c0-2.195,0.582-3.871,1.746-5.027c1.164-1.156,2.744-1.733,4.742-1.733
			c0.908,0,1.659,0.058,2.253,0.173c0.594,0.115,1.139,0.298,1.634,0.545v3.218h-2.229v-2.331c-0.249-0.145-0.746-0.219-1.493-0.219
			c-0.63,0-1.186,0.09-1.667,0.271c-0.481,0.181-0.887,0.476-1.219,0.887c-0.332,0.411-0.581,0.961-0.746,1.651
			c-0.166,0.691-0.249,1.537-0.249,2.539c0,0.657,0.091,1.286,0.273,1.885c0.182,0.6,0.455,1.126,0.819,1.578
			c0.365,0.452,0.824,0.809,1.379,1.071c0.555,0.263,1.205,0.394,1.95,0.394c0.397,0,0.749-0.04,1.056-0.123
			c0.306-0.082,0.575-0.169,0.807-0.26c0.232-0.091,0.439-0.194,0.621-0.31c0.182-0.115,0.356-0.239,0.522-0.372L95.062,20.811z"/>
		<path fill="#FFFFFF" d="M103.927,9.469h5.448v1.238h-1.585l-3.838,4.433l5.052,6.092h1.238v1.238h-3.566l-4.606-6.166h-0.916
			v4.928h1.832v1.238h-6.265v-1.238h1.832V5.135h-2.105V3.897h4.705v11.416h0.867l3.789-4.606h-1.882V9.469z"/>
	</g>
	<g>
		<path fill="#FFFFFF" d="M4.505,29.186v-1.388h2.575c0.743,0,1.548-0.032,2.414-0.099c0.867-0.066,1.704-0.099,2.513-0.099
			c0.908,0,1.799,0.087,2.674,0.26c0.875,0.173,1.651,0.467,2.328,0.879c0.677,0.413,1.226,0.961,1.647,1.646
			c0.421,0.686,0.631,1.54,0.631,2.563c0,0.974-0.215,1.812-0.644,2.513c-0.43,0.702-0.995,1.276-1.696,1.721
			c-0.702,0.446-1.51,0.776-2.427,0.99c-0.916,0.215-1.862,0.322-2.835,0.322c-0.099,0-0.248,0-0.446,0s-0.409-0.003-0.631-0.012
			c-0.223-0.008-0.434-0.02-0.631-0.037c-0.198-0.017-0.347-0.033-0.446-0.05v5.349h2.476v1.387H4.505v-1.387h2.253v-14.56H4.505z
			 M9.532,36.986c0.082,0.033,0.21,0.053,0.384,0.061c0.173,0.009,0.359,0.021,0.557,0.038c0.198,0.017,0.392,0.024,0.582,0.024
			c0.19,0,0.334,0,0.433,0c0.644,0,1.251-0.078,1.82-0.235c0.57-0.157,1.069-0.4,1.498-0.731c0.429-0.33,0.767-0.759,1.015-1.288
			c0.248-0.527,0.371-1.163,0.371-1.906c0-1.353-0.425-2.352-1.275-2.996c-0.85-0.644-2.01-0.966-3.479-0.966
			c-0.446,0-0.817,0.012-1.114,0.038c-0.297,0.024-0.561,0.061-0.792,0.111V36.986z"/>
		<path fill="#FFFFFF" d="M31.77,41.691c0,0.38,0.008,0.764,0.025,1.151c0.016,0.387,0.041,0.738,0.074,1.052h1.659v1.238H29.57
			l-0.252-2.352h-0.124c-0.083,0.331-0.235,0.653-0.458,0.966c-0.223,0.314-0.504,0.594-0.842,0.842
			c-0.339,0.248-0.739,0.446-1.201,0.595c-0.462,0.148-0.974,0.222-1.535,0.222c-0.561,0-1.077-0.082-1.548-0.248
			c-0.471-0.164-0.879-0.396-1.226-0.693c-0.347-0.298-0.615-0.656-0.805-1.078c-0.19-0.421-0.285-0.895-0.285-1.423
			c0-0.808,0.169-1.478,0.508-2.006c0.338-0.527,0.838-0.945,1.498-1.25c0.66-0.305,1.486-0.524,2.476-0.656
			c0.991-0.132,2.146-0.206,3.467-0.223c0.033-0.261,0.05-0.511,0.05-0.747c0-0.236,0-0.47,0-0.698c0-1.012-0.173-1.784-0.52-2.315
			c-0.347-0.531-0.966-0.796-1.857-0.796c-0.33,0-0.685,0.017-1.065,0.049c-0.38,0.032-0.727,0.13-1.04,0.291v2.236h-2.229v-2.749
			c0.597-0.314,1.303-0.595,2.116-0.843c0.813-0.248,1.767-0.371,2.863-0.371c0.946,0,1.706,0.12,2.278,0.359
			c0.573,0.24,1.012,0.554,1.319,0.941c0.307,0.387,0.506,0.826,0.597,1.312c0.091,0.487,0.137,0.97,0.137,1.449
			c0,1.04-0.021,2.035-0.062,2.984C31.79,39.879,31.77,40.8,31.77,41.691z M26.297,43.746c0.396,0,0.751-0.062,1.065-0.185
			c0.314-0.124,0.59-0.281,0.83-0.471c0.239-0.19,0.446-0.401,0.619-0.632c0.173-0.231,0.318-0.454,0.433-0.668v-2.946
			c-1.073,0-1.944,0.07-2.613,0.21c-0.669,0.141-1.193,0.326-1.572,0.557c-0.38,0.231-0.64,0.507-0.78,0.829
			c-0.14,0.322-0.21,0.665-0.21,1.028c0,0.743,0.198,1.309,0.594,1.696C25.059,43.552,25.604,43.746,26.297,43.746z"/>
		<path fill="#FFFFFF" d="M41.352,34.361c-0.38,0.199-0.694,0.43-0.941,0.694s-0.512,0.644-0.792,1.139v7.701h2.154v1.238h-6.587
			v-1.238h1.832V33.37h-1.832v-1.238h4.432v2.501h0.099c0.281-0.545,0.611-1.019,0.991-1.424c0.379-0.404,0.808-0.763,1.288-1.077
			h2.377v2.228H41.352z"/>
		<path fill="#FFFFFF" d="M45.463,32.132h2.204v-3.095h2.6v3.095h4.111v1.584h-4.111v7.231c0,1.04,0.132,1.775,0.396,2.205
			c0.264,0.429,0.693,0.644,1.288,0.644c0.512,0,0.953-0.091,1.325-0.273c0.371-0.181,0.714-0.38,1.027-0.594l0.619,0.966
			c-0.148,0.149-0.351,0.31-0.607,0.483c-0.256,0.173-0.549,0.334-0.879,0.483c-0.331,0.148-0.698,0.272-1.102,0.371
			c-0.405,0.099-0.821,0.149-1.25,0.149c-1.106,0-1.953-0.284-2.538-0.854c-0.586-0.57-0.879-1.515-0.879-2.835v-7.975h-2.204
			V32.132z"/>
		<path fill="#FFFFFF" d="M71.513,45.133h-6.067v-1.238h1.634v-6.216c0-1.303-0.198-2.319-0.594-3.045
			c-0.396-0.727-1.123-1.09-2.179-1.09c-0.462,0-0.888,0.074-1.275,0.223c-0.388,0.149-0.735,0.346-1.04,0.594
			c-0.306,0.248-0.57,0.537-0.792,0.867c-0.223,0.331-0.392,0.677-0.508,1.04v7.627h1.634v1.238H56.26v-1.238h1.832V33.37H56.26
			v-1.238h4.432v2.576h0.025c0.38-0.793,0.937-1.461,1.672-2.006c0.734-0.545,1.622-0.817,2.662-0.817
			c0.743,0,1.403,0.079,1.981,0.235c0.578,0.157,1.061,0.442,1.449,0.854c0.388,0.413,0.685,0.966,0.891,1.66
			c0.206,0.693,0.309,1.576,0.309,2.649v6.612h1.832V45.133z"/>
		<path fill="#FFFFFF" d="M84.39,43.424c-0.431,0.611-1.04,1.094-1.828,1.449c-0.788,0.354-1.704,0.532-2.748,0.532
			c-1.094,0-2.06-0.161-2.898-0.483c-0.837-0.322-1.538-0.775-2.102-1.361c-0.564-0.586-0.991-1.297-1.281-2.13
			c-0.29-0.833-0.435-1.762-0.435-2.785c0-2.212,0.555-3.891,1.666-5.039c1.111-1.147,2.669-1.721,4.676-1.721
			c0.663,0,1.313,0.082,1.952,0.248c0.638,0.165,1.206,0.437,1.704,0.817c0.497,0.38,0.899,0.884,1.206,1.511
			c0.306,0.627,0.46,1.403,0.46,2.327c0,0.281-0.017,0.578-0.05,0.891c-0.033,0.314-0.083,0.644-0.15,0.99h-8.69
			c0,0.727,0.095,1.387,0.287,1.982c0.192,0.594,0.483,1.106,0.875,1.535c0.391,0.43,0.878,0.764,1.461,1.003
			c0.583,0.24,1.274,0.359,2.074,0.359c0.649,0,1.253-0.107,1.811-0.321c0.558-0.215,1.003-0.463,1.336-0.744L84.39,43.424z
			 M79.303,33.048c-0.514,0-0.966,0.074-1.355,0.223c-0.39,0.149-0.726,0.396-1.007,0.743c-0.282,0.346-0.506,0.805-0.671,1.374
			c-0.165,0.57-0.273,1.276-0.323,2.117h5.992c0.017-0.149,0.029-0.301,0.037-0.459c0.008-0.157,0.012-0.301,0.012-0.433
			c0-1.089-0.22-1.956-0.659-2.6C80.889,33.37,80.214,33.048,79.303,33.048z"/>
		<path fill="#FFFFFF" d="M93.032,34.361c-0.38,0.199-0.694,0.43-0.941,0.694c-0.248,0.264-0.512,0.644-0.792,1.139v7.701h2.154
			v1.238h-6.587v-1.238h1.832V33.37h-1.832v-1.238h4.432v2.501h0.099c0.281-0.545,0.611-1.019,0.991-1.424
			c0.379-0.404,0.809-0.763,1.288-1.077h2.377v2.228H93.032z"/>
		<path fill="#FFFFFF" d="M104.943,42.157c0-0.441-0.165-0.828-0.495-1.163c-0.331-0.334-0.743-0.644-1.238-0.93
			c-0.495-0.285-1.032-0.573-1.61-0.862s-1.114-0.619-1.61-0.99c-0.495-0.372-0.908-0.809-1.238-1.312
			c-0.33-0.504-0.495-1.11-0.495-1.821c0-0.478,0.116-0.911,0.349-1.3c0.233-0.387,0.544-0.722,0.934-1.003
			c0.39-0.281,0.851-0.5,1.382-0.656c0.531-0.157,1.096-0.235,1.694-0.235c0.498,0,0.938,0.017,1.32,0.049
			c0.382,0.033,0.731,0.079,1.046,0.137c0.315,0.058,0.614,0.128,0.896,0.211c0.283,0.082,0.573,0.173,0.872,0.272v3.343h-1.585
			v-1.92l-0.47-0.535c-0.215-0.049-0.446-0.089-0.693-0.121c-0.248-0.032-0.512-0.049-0.792-0.049c-0.792,0-1.383,0.151-1.771,0.453
			c-0.388,0.301-0.582,0.681-0.582,1.137c0,0.441,0.165,0.824,0.495,1.15c0.33,0.326,0.743,0.633,1.238,0.918
			c0.495,0.285,1.032,0.568,1.609,0.848c0.578,0.281,1.114,0.6,1.61,0.954c0.495,0.355,0.908,0.764,1.238,1.226
			c0.33,0.463,0.495,1.016,0.495,1.66c0,0.594-0.137,1.122-0.411,1.584c-0.274,0.463-0.648,0.855-1.12,1.177
			c-0.473,0.322-1.029,0.57-1.668,0.743c-0.639,0.173-1.316,0.26-2.029,0.26c-0.797,0-1.573-0.103-2.328-0.31
			c-0.755-0.206-1.348-0.45-1.78-0.731v-3.244h1.585v1.851l0.495,0.512c0.214,0.162,0.47,0.292,0.768,0.39
			c0.297,0.097,0.685,0.145,1.164,0.145c0.792,0,1.444-0.163,1.956-0.49C104.687,43.178,104.943,42.729,104.943,42.157z"/>
	</g>
</g>
</svg>
