<?xml version="1.0" encoding="utf-8"?>
<!-- Generator: Adobe Illustrator 17.0.0, SVG Export Plug-In . SVG Version: 6.00 Build 0)  -->
<!DOCTYPE svg PUBLIC "-//W3C//DTD SVG 1.1//EN" "http://www.w3.org/Graphics/SVG/1.1/DTD/svg11.dtd">
<svg version="1.1" id="Layer_1" xmlns="http://www.w3.org/2000/svg" xmlns:xlink="http://www.w3.org/1999/xlink" x="0px" y="0px"
	 width="113.39px" height="93.54px" viewBox="0 0 113.39 93.54" enable-background="new 0 0 113.39 93.54" xml:space="preserve">
<g>
	<g>
		<rect x="6.099" y="5.596" fill="#383939" width="53.649" height="81.969"/>
		<g>
			<g>
				<path fill="#211F1F" d="M53.7,80.214c0,0.689-0.558,1.247-1.247,1.247H13.394c-0.689,0-1.246-0.558-1.246-1.247V12.947
					c0-0.689,0.557-1.247,1.246-1.247h39.059c0.689,0,1.247,0.558,1.247,1.247V80.214z"/>
				<path fill="#666666" d="M52.453,81.117H13.394c-0.689,0-1.246-0.558-1.246-1.247v0.344c0,0.689,0.557,1.247,1.246,1.247h39.059
					c0.689,0,1.247-0.558,1.247-1.247V79.87C53.7,80.559,53.142,81.117,52.453,81.117z"/>
				<linearGradient id="SVGID_1_" gradientUnits="userSpaceOnUse" x1="14.503" y1="51.306" x2="14.503" y2="40.4799">
					<stop  offset="0" style="stop-color:#211F1F"/>
					<stop  offset="0.2121" style="stop-color:#1A1A1A"/>
					<stop  offset="0.4303" style="stop-color:#0D0D0D"/>
					<stop  offset="0.6303" style="stop-color:#333333"/>
					<stop  offset="1" style="stop-color:#CCCCCC"/>
				</linearGradient>
				<path fill="url(#SVGID_1_)" d="M14.949,40.823h-0.891c-0.105,0-0.189,0.084-0.189,0.188v11.058c0,0.104,0.084,0.189,0.189,0.189
					h0.891c0.104,0,0.188-0.085,0.188-0.189V41.011C15.137,40.907,15.053,40.823,14.949,40.823z"/>
				<linearGradient id="SVGID_2_" gradientUnits="userSpaceOnUse" x1="32.9232" y1="54.4196" x2="32.9232" y2="12.1802">
					<stop  offset="0" style="stop-color:#262626"/>
					<stop  offset="0.4485" style="stop-color:#1E1E1E"/>
					<stop  offset="1" style="stop-color:#0D0D0D"/>
				</linearGradient>
				<path fill="url(#SVGID_2_)" d="M50.466,39.723h1.52v-24.54c0-0.918-0.744-1.662-1.661-1.662H15.524
					c-0.918,0-1.663,0.744-1.663,1.662v24.54h1.536c0.23,0,0.416,0.186,0.416,0.416v5.929H50.05v-5.929
					C50.05,39.909,50.236,39.723,50.466,39.723z"/>
				<linearGradient id="SVGID_3_" gradientUnits="userSpaceOnUse" x1="32.9232" y1="50.9412" x2="32.9232" y2="92.9716">
					<stop  offset="0" style="stop-color:#5A5A5D"/>
					<stop  offset="0.0189" style="stop-color:#58585B"/>
					<stop  offset="0.2531" style="stop-color:#3F3E40"/>
					<stop  offset="0.4924" style="stop-color:#2E2C2D"/>
					<stop  offset="0.7382" style="stop-color:#232222"/>
					<stop  offset="1" style="stop-color:#201E1E"/>
				</linearGradient>
				<path fill="url(#SVGID_3_)" d="M50.05,53.235v-0.293v-5.554H15.813v5.554v0.293c0,0.229-0.186,0.415-0.416,0.415h-1.536v24.328
					c0,0.918,0.744,1.662,1.663,1.662h34.801c0.917,0,1.661-0.744,1.661-1.662V53.65h-1.52C50.236,53.65,50.05,53.464,50.05,53.235z
					"/>
				<g>
					<rect x="15.813" y="47.094" fill="#666666" width="34.237" height="0.294"/>
					<path fill="#666666" d="M15.813,53.235v-0.293c0,0.229-0.186,0.415-0.416,0.415h-1.536v0.293h1.536
						C15.627,53.65,15.813,53.464,15.813,53.235z"/>
					<path fill="#666666" d="M50.466,53.357c-0.23,0-0.416-0.186-0.416-0.415v0.293c0,0.229,0.186,0.415,0.416,0.415h1.52v-0.293
						H50.466z"/>
				</g>
				
					<linearGradient id="SVGID_4_" gradientUnits="userSpaceOnUse" x1="120.9273" y1="51.306" x2="120.9273" y2="40.4799" gradientTransform="matrix(-1 0 0 1 172.2871 0)">
					<stop  offset="0" style="stop-color:#211F1F"/>
					<stop  offset="0.2121" style="stop-color:#1A1A1A"/>
					<stop  offset="0.3818" style="stop-color:#0D0D0D"/>
					<stop  offset="0.5576" style="stop-color:#333333"/>
					<stop  offset="1" style="stop-color:#CCCCCC"/>
				</linearGradient>
				<path fill="url(#SVGID_4_)" d="M50.914,40.823h0.892c0.104,0,0.188,0.084,0.188,0.188v11.058c0,0.104-0.084,0.189-0.188,0.189
					h-0.892c-0.105,0-0.189-0.085-0.189-0.189V41.011C50.725,40.907,50.81,40.823,50.914,40.823z"/>
				<path fill="#999999" d="M50.325,13.521H15.524c-0.918,0-1.663,0.744-1.663,1.662v0.293c0-0.918,0.744-1.662,1.663-1.662h34.801
					c0.917,0,1.661,0.744,1.661,1.662v-0.293C51.986,14.265,51.242,13.521,50.325,13.521z"/>
				<path fill="#262626" d="M50.325,79.64H15.524c-0.918,0-1.663-0.744-1.663-1.662v0.293c0,0.918,0.744,1.663,1.663,1.663h34.801
					c0.917,0,1.661-0.744,1.661-1.663v-0.293C51.986,78.896,51.242,79.64,50.325,79.64z"/>
			</g>
		</g>
	</g>
	<g>
		<rect x="53.682" y="5.596" fill="#383939" width="53.649" height="81.969"/>
		<g>
			<g>
				<path fill="#211F1F" d="M101.283,80.214c0,0.689-0.558,1.247-1.247,1.247H60.976c-0.689,0-1.246-0.558-1.246-1.247V12.947
					c0-0.689,0.557-1.247,1.246-1.247h39.059c0.689,0,1.247,0.558,1.247,1.247V80.214z"/>
				<path fill="#666666" d="M100.036,81.117H60.976c-0.689,0-1.246-0.558-1.246-1.247v0.344c0,0.689,0.557,1.247,1.246,1.247h39.059
					c0.689,0,1.247-0.558,1.247-1.247V79.87C101.283,80.559,100.725,81.117,100.036,81.117z"/>
				<linearGradient id="SVGID_5_" gradientUnits="userSpaceOnUse" x1="62.0858" y1="51.306" x2="62.0858" y2="40.4799">
					<stop  offset="0" style="stop-color:#211F1F"/>
					<stop  offset="0.2121" style="stop-color:#1A1A1A"/>
					<stop  offset="0.4303" style="stop-color:#0D0D0D"/>
					<stop  offset="0.6303" style="stop-color:#333333"/>
					<stop  offset="1" style="stop-color:#CCCCCC"/>
				</linearGradient>
				<path fill="url(#SVGID_5_)" d="M62.532,40.823h-0.891c-0.105,0-0.189,0.084-0.189,0.188v11.058c0,0.104,0.084,0.189,0.189,0.189
					h0.891c0.105,0,0.188-0.085,0.188-0.189V41.011C62.72,40.907,62.636,40.823,62.532,40.823z"/>
				<linearGradient id="SVGID_6_" gradientUnits="userSpaceOnUse" x1="80.5061" y1="54.4196" x2="80.5061" y2="12.1802">
					<stop  offset="0" style="stop-color:#262626"/>
					<stop  offset="0.4485" style="stop-color:#1E1E1E"/>
					<stop  offset="1" style="stop-color:#0D0D0D"/>
				</linearGradient>
				<path fill="url(#SVGID_6_)" d="M98.049,39.723h1.52v-24.54c0-0.918-0.744-1.662-1.661-1.662H63.107
					c-0.919,0-1.663,0.744-1.663,1.662v24.54h1.536c0.23,0,0.416,0.186,0.416,0.416v5.929h34.237v-5.929
					C97.633,39.909,97.819,39.723,98.049,39.723z"/>
				<linearGradient id="SVGID_7_" gradientUnits="userSpaceOnUse" x1="80.5061" y1="50.9412" x2="80.5061" y2="92.9716">
					<stop  offset="0" style="stop-color:#5A5A5D"/>
					<stop  offset="0.0189" style="stop-color:#58585B"/>
					<stop  offset="0.2531" style="stop-color:#3F3E40"/>
					<stop  offset="0.4924" style="stop-color:#2E2C2D"/>
					<stop  offset="0.7382" style="stop-color:#232222"/>
					<stop  offset="1" style="stop-color:#201E1E"/>
				</linearGradient>
				<path fill="url(#SVGID_7_)" d="M97.633,53.235v-0.293v-5.554H63.396v5.554v0.293c0,0.229-0.186,0.415-0.416,0.415h-1.536v24.328
					c0,0.918,0.744,1.662,1.663,1.662h34.801c0.917,0,1.661-0.744,1.661-1.662V53.65h-1.52
					C97.819,53.65,97.633,53.464,97.633,53.235z"/>
				<g>
					<rect x="63.396" y="47.094" fill="#666666" width="34.237" height="0.294"/>
					<path fill="#666666" d="M63.396,53.235v-0.293c0,0.229-0.186,0.415-0.416,0.415h-1.536v0.293h1.536
						C63.21,53.65,63.396,53.464,63.396,53.235z"/>
					<path fill="#666666" d="M98.049,53.357c-0.23,0-0.416-0.186-0.416-0.415v0.293c0,0.229,0.186,0.415,0.416,0.415h1.52v-0.293
						H98.049z"/>
				</g>
				
					<linearGradient id="SVGID_8_" gradientUnits="userSpaceOnUse" x1="73.3444" y1="51.306" x2="73.3444" y2="40.4799" gradientTransform="matrix(-1 0 0 1 172.2871 0)">
					<stop  offset="0" style="stop-color:#211F1F"/>
					<stop  offset="0.2121" style="stop-color:#1A1A1A"/>
					<stop  offset="0.3818" style="stop-color:#0D0D0D"/>
					<stop  offset="0.5576" style="stop-color:#333333"/>
					<stop  offset="1" style="stop-color:#CCCCCC"/>
				</linearGradient>
				<path fill="url(#SVGID_8_)" d="M98.497,40.823h0.892c0.104,0,0.188,0.084,0.188,0.188v11.058c0,0.104-0.084,0.189-0.188,0.189
					h-0.892c-0.105,0-0.189-0.085-0.189-0.189V41.011C98.308,40.907,98.392,40.823,98.497,40.823z"/>
				<path fill="#999999" d="M97.907,13.521H63.107c-0.919,0-1.663,0.744-1.663,1.662v0.293c0-0.918,0.744-1.662,1.663-1.662h34.801
					c0.917,0,1.661,0.744,1.661,1.662v-0.293C99.569,14.265,98.825,13.521,97.907,13.521z"/>
				<path fill="#262626" d="M97.907,79.64H63.107c-0.919,0-1.663-0.744-1.663-1.662v0.293c0,0.918,0.744,1.663,1.663,1.663h34.801
					c0.917,0,1.661-0.744,1.661-1.663v-0.293C99.569,78.896,98.825,79.64,97.907,79.64z"/>
			</g>
		</g>
	</g>
</g>
</svg>
