<?xml version="1.0" encoding="UTF-8"?>
<!-- Generator: Adobe Illustrator 17.0.0, SVG Export Plug-In . SVG Version: 6.00 Build 0)  -->
<!DOCTYPE svg PUBLIC "-//W3C//DTD SVG 1.1//EN" "http://www.w3.org/Graphics/SVG/1.1/DTD/svg11.dtd">
<svg version="1.1" id="Layer_1" xmlns="http://www.w3.org/2000/svg" xmlns:xlink="http://www.w3.org/1999/xlink" x="0px" y="0px" width="425.2px" height="113.39px" viewBox="0 0 425.2 113.39" enable-background="new 0 0 425.2 113.39" xml:space="preserve">
<g>
	<path fill-rule="evenodd" clip-rule="evenodd" fill="#182852" d="M55.573,11.165c-25.18,0-45.592,20.412-45.592,45.592   c0,25.18,20.412,45.592,45.592,45.592s45.592-20.412,45.592-45.592C101.165,31.577,80.752,11.165,55.573,11.165z M81.437,79.752   c-1.314,1.62-2.855,2.976-4.365,4.065c-1.509,1.09-3.227,1.928-5.155,2.515c-1.928,0.587-4.262,0.88-7,0.88   c-2.068,0-4.038-0.293-5.91-0.88c-1.873-0.586-3.703-1.328-5.491-2.221c-1.789-0.895-3.562-1.873-5.323-2.934   c-1.76-1.062-3.535-2.041-5.323-2.934c-1.789-0.894-3.646-1.635-5.574-2.221c-1.928-0.587-3.927-0.88-5.994-0.88   c-1.341,0-2.655,0.223-3.94,0.67c-1.286,0.447-2.515,0.977-3.688,1.593l-1.174-1.341c1.955-1.23,3.841-2.11,5.658-2.64   c1.816-0.532,3.898-0.796,6.245-0.796c1.593,0,3.191,0.127,4.792,0.374c1.327-0.028,2.571-0.986,2.696-2.354   c0.13-1.441,0.197-1.117,0.197-3.319V44.437c0-2.202-0.067-4.022-0.197-5.465c-0.131-1.441-0.459-2.607-0.983-3.499   c-0.525-0.891-1.337-1.546-2.438-1.966c-1.101-0.419-2.595-0.708-4.482-0.865v-2.017c1.782,0.053,3.472,0.106,5.072,0.157   c1.598,0.053,3.25,0.092,4.954,0.118c1.703,0.027,3.512,0.039,5.426,0.039c1.913,0,4.075,0,6.487,0   c3.669,0,7.339-0.026,11.008-0.079c3.668-0.052,7.392-0.13,11.166-0.236c-0.053,0.577-0.093,2.226-0.118,2.803   c-0.027,0.578-0.039,1.128-0.039,1.651v3.145c0,1.154,0.051,2.32,0.157,3.499c0.104,1.179,0.209,2.477,0.314,3.892l-1.023,0.314   c-0.682-2.516-1.586-4.573-2.712-6.172c-1.128-1.599-2.438-2.843-3.931-3.735c-1.495-0.891-3.133-1.494-4.914-1.808   c-1.783-0.314-3.67-0.472-5.662-0.472c-3.67,0-7.34,0.158-11.008,0.472v18.891c1.048,0,2.056-0.026,3.027-0.079   c0.969-0.052,1.978-0.079,3.027-0.079c3.617,0,6.487-0.72,8.61-2.162c2.123-1.441,3.42-3.769,3.892-7.596h0.943   c0,1.887-0.027,3.468-0.079,5.355c-0.053,1.887-0.078,4.822-0.078,6.656c0,1.887,0.026,3.774,0.078,5.661   c0.052,1.887,0.079,3.468,0.079,5.355h-0.943c-0.472-2.202-1.049-3.69-1.73-5.08c-0.682-1.388-1.534-2.449-2.556-3.184   c-1.022-0.734-2.294-1.231-3.814-1.494c-1.521-0.262-3.329-0.393-5.425-0.393h-5.032V75.77c1.207,0.409,2.411,0.822,3.596,1.258   c2.962,1.09,5.826,2.081,8.593,2.976c2.765,0.893,5.351,1.341,7.754,1.341c1.788,0,3.381-0.182,4.778-0.545   c1.396-0.364,2.683-0.909,3.856-1.635c1.174-0.727,2.277-1.607,3.311-2.64c1.033-1.035,2.081-2.221,3.143-3.563l1.164,0.949   C83.992,76.446,82.748,78.13,81.437,79.752z"/>
	<g>
		<path fill="#182852" d="M125.893,57.549h2.194c0.342,0,0.669,0.009,0.98,0.023c0.311,0.016,0.607,0.04,0.887,0.07    c0.995,0.093,1.836,0.249,2.52,0.467c0.684,0.218,1.267,0.56,1.75,1.026c0.482,0.467,0.894,1.082,1.237,1.844    c0.342,0.763,0.669,1.719,0.98,2.87h0.56c-0.063-1.089-0.101-2.107-0.117-3.057c-0.016-0.948-0.023-1.983-0.023-3.103    c0-2.115,0.047-4.231,0.14-6.347h-0.56c-0.623,1.774-1.447,3.05-2.474,3.828c-1.027,0.777-2.474,1.166-4.34,1.166h-3.734V44.762    c0.591,0,1.151-0.016,1.68-0.046c0.529-0.031,1.057-0.047,1.587-0.047c1.618,0,3.111,0.047,4.481,0.139    c1.369,0.094,2.59,0.366,3.664,0.817c1.073,0.451,2.007,1.167,2.8,2.147c0.794,0.979,1.439,2.357,1.937,4.131h0.747    c-0.063-0.81-0.109-1.61-0.14-2.404c-0.032-0.793-0.047-1.594-0.047-2.404c0-0.622,0.015-1.251,0.047-1.89    c0.031-0.637,0.077-1.283,0.14-1.936c-1.338,0.031-2.613,0.07-3.827,0.116c-1.213,0.047-2.614,0.07-4.2,0.07h-10.128    c-0.436,0-1.003,0-1.704,0c-0.7,0-1.431-0.007-2.193-0.023c-0.763-0.015-1.502-0.038-2.217-0.07    c-0.716-0.03-1.291-0.062-1.727-0.093v0.559c1.12,0.094,1.999,0.265,2.637,0.514c0.637,0.25,1.127,0.639,1.47,1.167    c0.342,0.529,0.56,1.221,0.653,2.077c0.093,0.856,0.14,1.936,0.14,3.244v15.588c0,1.307-0.047,2.388-0.14,3.243    c-0.094,0.857-0.312,1.548-0.653,2.078c-0.343,0.529-0.833,0.918-1.47,1.167c-0.638,0.249-1.517,0.42-2.637,0.514v0.559    c1.15-0.063,2.294-0.109,3.43-0.139c1.135-0.031,2.279-0.046,3.43-0.046c1.338,0,2.66,0.015,3.967,0.046    c1.307,0.031,2.629,0.077,3.967,0.139v-0.559c-1.276-0.249-2.287-0.482-3.034-0.701c-0.747-0.217-1.315-0.529-1.703-0.933    c-0.389-0.404-0.646-0.957-0.77-1.657c-0.124-0.701-0.187-1.672-0.187-2.917V57.549z"/>
		<path fill="#182852" d="M155.108,64.551c0,1.679,0.342,3.158,1.027,4.433c0.684,1.276,1.594,2.342,2.73,3.197    c1.135,0.856,2.434,1.493,3.897,1.913c1.462,0.42,2.987,0.63,4.574,0.63c1.742,0,3.384-0.218,4.924-0.654    c1.54-0.435,2.886-1.104,4.037-2.007c1.151-0.903,2.061-2.031,2.73-3.384c0.669-1.354,1.003-2.964,1.003-4.83V49.896    c0-1.307,0.101-2.34,0.303-3.103c0.202-0.762,0.49-1.345,0.863-1.751c0.373-0.404,0.832-0.684,1.376-0.84    c0.544-0.155,1.144-0.28,1.797-0.373v-0.559c-0.81,0.063-1.603,0.109-2.38,0.139c-0.779,0.031-1.572,0.047-2.38,0.047    c-0.965,0-1.922-0.016-2.87-0.047c-0.95-0.031-1.906-0.077-2.87-0.139v0.559c0.933,0.125,1.695,0.327,2.287,0.607    c0.59,0.281,1.05,0.694,1.376,1.237c0.327,0.545,0.544,1.245,0.654,2.101c0.109,0.856,0.163,1.906,0.163,3.15V63.99    c0,0.746-0.14,1.61-0.42,2.59c-0.28,0.98-0.794,1.898-1.54,2.754c-0.747,0.856-1.758,1.579-3.033,2.169    c-1.276,0.592-2.91,0.887-4.9,0.887c-1.245,0-2.42-0.147-3.524-0.443c-1.105-0.295-2.077-0.763-2.917-1.4    s-1.502-1.462-1.984-2.474c-0.482-1.011-0.723-2.247-0.723-3.71V49.149c0-0.933,0.077-1.719,0.233-2.357    c0.155-0.637,0.42-1.159,0.793-1.563c0.373-0.404,0.887-0.716,1.54-0.933c0.653-0.217,1.477-0.373,2.474-0.467v-0.559    c-0.933,0.063-1.859,0.109-2.777,0.139c-0.918,0.031-1.843,0.047-2.777,0.047c-1.307,0-2.59-0.016-3.85-0.047    c-1.26-0.031-2.544-0.077-3.851-0.139v0.559c0.654,0.125,1.229,0.25,1.727,0.373c0.497,0.125,0.917,0.327,1.26,0.607    c0.342,0.281,0.599,0.662,0.77,1.144c0.171,0.483,0.256,1.159,0.256,2.03V64.551z"/>
		<path fill="#182852" d="M191.697,43.828c1.244,0.312,2.457,0.701,3.64,1.167c1.182,0.467,2.271,1.105,3.267,1.913l-0.56,21.422    c-0.032,1.089-0.18,1.936-0.444,2.543c-0.265,0.607-0.653,1.074-1.167,1.401c-0.514,0.327-1.167,0.56-1.96,0.7    c-0.793,0.14-1.72,0.288-2.777,0.444v0.559c0.902-0.063,1.789-0.109,2.66-0.139c0.871-0.031,1.758-0.046,2.66-0.046    c1.587,0,3.127,0.015,4.62,0.046c1.493,0.031,3.033,0.077,4.62,0.139v-0.559c-1.463-0.156-2.606-0.381-3.43-0.677    c-0.825-0.295-1.447-0.871-1.867-1.727c-0.42-0.855-0.685-2.083-0.793-3.687c-0.109-1.602-0.163-3.787-0.163-6.557v-8.167    c0-0.809,0.007-1.603,0.024-2.38c0.015-0.777,0.038-1.571,0.07-2.381c1.4,1.525,2.979,3.26,4.737,5.204    c1.757,1.945,3.578,4.053,5.46,6.324c1.882,2.272,3.78,4.668,5.694,7.187c1.913,2.521,3.725,5.119,5.437,7.794h1.727V49.616    c0-1.836,0.365-3.197,1.097-4.084c0.731-0.887,2.077-1.454,4.037-1.704v-0.559c-0.996,0.063-2.007,0.109-3.034,0.139    c-1.027,0.031-2.038,0.047-3.033,0.047c-1.09,0-2.187-0.016-3.291-0.047c-1.105-0.031-2.202-0.077-3.29-0.139v0.559    c1.244,0.094,2.247,0.405,3.01,0.934c0.762,0.529,1.353,1.292,1.773,2.287c0.42,0.996,0.7,2.233,0.84,3.71    c0.14,1.478,0.21,3.213,0.21,5.204v5.414c0,0.933-0.008,1.859-0.024,2.777c-0.016,0.918-0.023,1.844-0.023,2.776h-0.094    c-0.623-0.87-1.47-1.983-2.543-3.337s-2.248-2.815-3.524-4.387c-1.276-1.57-2.598-3.18-3.967-4.83    c-1.369-1.649-2.653-3.204-3.85-4.667c-1.198-1.462-2.263-2.761-3.197-3.897c-0.933-1.135-1.603-1.984-2.007-2.543    c-0.685,0.063-1.354,0.109-2.007,0.139c-0.653,0.031-1.323,0.047-2.007,0.047c-1.306,0-2.45-0.016-3.43-0.047    c-0.98-0.031-2.015-0.077-3.103-0.139V43.828z"/>
		<path fill="#182852" d="M235.473,73.977c1.057-0.063,2.1-0.109,3.127-0.139c1.027-0.031,2.069-0.046,3.127-0.046    c0.653,0,1.338,0.007,2.054,0.023c0.716,0.015,1.524,0.023,2.427,0.023c0.902,0,1.952,0.007,3.15,0.023    c1.197,0.015,2.637,0.024,4.317,0.024c2.177,0,4.27-0.264,6.277-0.794c2.007-0.529,3.788-1.377,5.344-2.543    c1.556-1.167,2.8-2.66,3.734-4.481c0.933-1.82,1.4-4.021,1.4-6.604c0-2.551-0.483-4.854-1.447-6.908    c-0.965-2.054-2.279-3.804-3.943-5.251c-1.665-1.446-3.602-2.559-5.81-3.337c-2.21-0.777-4.574-1.167-7.094-1.167    c-1.96,0-3.874,0.11-5.741,0.327c-1.866,0.218-3.889,0.326-6.067,0.326c-0.81,0-1.618-0.016-2.427-0.047    c-0.809-0.031-1.618-0.077-2.427-0.139v0.559c1.057,0.094,1.897,0.25,2.52,0.467c0.622,0.218,1.089,0.513,1.4,0.886    c0.311,0.373,0.505,0.817,0.583,1.33c0.077,0.514,0.117,1.113,0.117,1.797v21.562c0,0.373-0.047,0.747-0.141,1.12    c-0.093,0.373-0.303,0.723-0.63,1.05c-0.327,0.327-0.794,0.615-1.4,0.864c-0.607,0.249-1.423,0.42-2.45,0.514V73.977z     M244.294,54.983c0-1.68,0.016-3.32,0.047-4.924c0.03-1.603,0.108-3.212,0.233-4.83c1.96-0.871,4.029-1.307,6.208-1.307    c2.115,0,4.068,0.373,5.857,1.12c1.789,0.747,3.329,1.774,4.62,3.081c1.291,1.307,2.302,2.84,3.034,4.597    c0.73,1.758,1.096,3.648,1.096,5.67c0,4.668-1.096,8.23-3.29,10.688c-2.193,2.458-5.687,3.687-10.478,3.687    c-1.307,0-2.606-0.186-3.897-0.56c-1.291-0.373-2.435-1.027-3.43-1.96V54.983z"/>
		<path fill="#182852" d="M306.038,53.909c-0.093-0.654-0.186-1.423-0.28-2.31c-0.093-0.887-0.186-1.789-0.28-2.707    c-0.093-0.918-0.164-1.812-0.21-2.684c-0.047-0.871-0.07-1.634-0.07-2.287c-0.84-0.031-1.689-0.124-2.544-0.28    c-0.856-0.156-1.743-0.311-2.66-0.467c-0.918-0.155-1.874-0.303-2.87-0.443c-0.996-0.14-2.069-0.21-3.219-0.21    c-2.086,0-4.061,0.396-5.927,1.19c-1.867,0.793-3.5,1.899-4.9,3.313c-1.401,1.416-2.513,3.112-3.337,5.087    c-0.824,1.976-1.237,4.146-1.237,6.511c0,2.365,0.413,4.535,1.237,6.51c0.824,1.977,1.937,3.672,3.337,5.087    c1.4,1.416,3.033,2.52,4.9,3.313c1.866,0.794,3.842,1.191,5.927,1.191c1.835,0,3.484-0.218,4.946-0.654    c1.462-0.435,2.815-1.073,4.061-1.913c1.244-0.84,2.395-1.866,3.453-3.08c1.058-1.214,2.115-2.614,3.174-4.201l-1.167-0.933    c-1.618,2.519-3.477,4.511-5.577,5.974c-2.1,1.462-4.596,2.193-7.491,2.193c-1.929,0-3.633-0.381-5.109-1.143    c-1.479-0.762-2.707-1.781-3.687-3.057c-0.98-1.275-1.72-2.761-2.216-4.457c-0.499-1.695-0.747-3.477-0.747-5.343    c0-1.867,0.193-3.64,0.583-5.321c0.388-1.68,1.011-3.158,1.866-4.434c0.856-1.275,1.952-2.287,3.291-3.034    c1.337-0.747,2.971-1.12,4.9-1.12c1.493,0,2.839,0.242,4.037,0.724c1.197,0.482,2.255,1.159,3.173,2.03    c0.918,0.871,1.711,1.898,2.38,3.08c0.669,1.183,1.206,2.474,1.61,3.874H306.038z"/>
		<path fill="#182852" d="M317.355,65.391c0.917,1.991,2.154,3.68,3.71,5.063c1.556,1.385,3.384,2.443,5.483,3.174    c2.101,0.731,4.333,1.097,6.698,1.097c2.364,0,4.597-0.366,6.697-1.097c2.1-0.731,3.927-1.789,5.483-3.174    c1.556-1.383,2.793-3.072,3.711-5.063c0.917-1.991,1.376-4.247,1.376-6.767c0-2.521-0.46-4.776-1.376-6.767    c-0.918-1.991-2.155-3.679-3.711-5.064c-1.556-1.384-3.384-2.443-5.483-3.174c-2.1-0.73-4.333-1.096-6.697-1.096    c-2.365,0-4.597,0.366-6.698,1.096c-2.1,0.731-3.928,1.79-5.483,3.174c-1.556,1.385-2.793,3.073-3.71,5.064    c-0.918,1.992-1.377,4.247-1.377,6.767C315.978,61.144,316.437,63.4,317.355,65.391z M321.766,53.163    c0.561-1.742,1.369-3.274,2.427-4.597c1.057-1.322,2.349-2.381,3.874-3.174c1.524-0.794,3.251-1.191,5.18-1.191    c1.928,0,3.655,0.397,5.18,1.191c1.524,0.793,2.816,1.852,3.874,3.174c1.057,1.322,1.866,2.855,2.427,4.597    c0.56,1.743,0.84,3.563,0.84,5.461c0,1.898-0.28,3.718-0.84,5.46c-0.561,1.743-1.37,3.275-2.427,4.597    c-1.058,1.323-2.349,2.38-3.874,3.173c-1.525,0.794-3.251,1.191-5.18,1.191c-1.93,0-3.657-0.397-5.18-1.191    c-1.525-0.793-2.817-1.85-3.874-3.173c-1.058-1.322-1.866-2.854-2.427-4.597c-0.56-1.742-0.84-3.562-0.84-5.46    C320.925,56.726,321.206,54.905,321.766,53.163z"/>
		<path fill="#182852" d="M357.655,73.977c1.12-0.063,2.24-0.109,3.36-0.139c1.12-0.031,2.256-0.046,3.407-0.046    c1.182,0,2.364,0.015,3.547,0.046c1.182,0.031,2.364,0.077,3.547,0.139v-0.559c-1.152-0.094-2.054-0.265-2.707-0.514    c-0.653-0.249-1.144-0.637-1.47-1.167c-0.327-0.529-0.53-1.221-0.607-2.078c-0.078-0.855-0.117-1.936-0.117-3.243V50.829    c0-1.307,0.039-2.388,0.117-3.244c0.077-0.856,0.272-1.548,0.583-2.077c0.31-0.528,0.777-0.918,1.4-1.167    c0.622-0.248,1.477-0.42,2.567-0.514v-0.559c-0.997,0.063-2.007,0.109-3.034,0.139c-1.027,0.031-2.054,0.047-3.081,0.047    c-1.307,0-2.575-0.016-3.803-0.047c-1.229-0.031-2.497-0.077-3.803-0.139v0.559c1.12,0.094,2.007,0.265,2.66,0.514    c0.653,0.25,1.143,0.639,1.47,1.167c0.327,0.529,0.529,1.221,0.607,2.077c0.078,0.856,0.117,1.936,0.117,3.244v15.588    c0,1.307-0.04,2.388-0.117,3.243c-0.078,0.857-0.28,1.548-0.607,2.078c-0.327,0.529-0.801,0.918-1.423,1.167    c-0.623,0.249-1.493,0.42-2.613,0.514V73.977z"/>
		<path fill="#182852" d="M379.03,43.828c1.243,0.312,2.457,0.701,3.64,1.167c1.182,0.467,2.271,1.105,3.267,1.913l-0.56,21.422    c-0.032,1.089-0.18,1.936-0.443,2.543c-0.265,0.607-0.654,1.074-1.167,1.401c-0.513,0.327-1.167,0.56-1.96,0.7    c-0.793,0.14-1.719,0.288-2.776,0.444v0.559c0.902-0.063,1.788-0.109,2.66-0.139c0.871-0.031,1.758-0.046,2.66-0.046    c1.587,0,3.127,0.015,4.621,0.046c1.493,0.031,3.033,0.077,4.62,0.139v-0.559c-1.462-0.156-2.606-0.381-3.43-0.677    c-0.824-0.295-1.447-0.871-1.867-1.727c-0.42-0.855-0.685-2.083-0.793-3.687c-0.11-1.602-0.164-3.787-0.164-6.557v-8.167    c0-0.809,0.008-1.603,0.023-2.38c0.016-0.777,0.038-1.571,0.07-2.381c1.4,1.525,2.978,3.26,4.737,5.204    c1.758,1.945,3.578,4.053,5.461,6.324c1.881,2.272,3.78,4.668,5.694,7.187c1.913,2.521,3.725,5.119,5.437,7.794h1.726V49.616    c0-1.836,0.366-3.197,1.098-4.084c0.73-0.887,2.076-1.454,4.037-1.704v-0.559c-0.996,0.063-2.007,0.109-3.034,0.139    c-1.026,0.031-2.038,0.047-3.033,0.047c-1.09,0-2.187-0.016-3.291-0.047c-1.105-0.031-2.201-0.077-3.291-0.139v0.559    c1.244,0.094,2.248,0.405,3.01,0.934c0.762,0.529,1.354,1.292,1.773,2.287c0.42,0.996,0.7,2.233,0.84,3.71    c0.14,1.478,0.211,3.213,0.211,5.204v5.414c0,0.933-0.008,1.859-0.023,2.777c-0.016,0.918-0.023,1.844-0.023,2.776h-0.093    c-0.622-0.87-1.47-1.983-2.544-3.337c-1.073-1.354-2.248-2.815-3.524-4.387c-1.276-1.57-2.598-3.18-3.966-4.83    c-1.37-1.649-2.653-3.204-3.85-4.667c-1.199-1.462-2.264-2.761-3.197-3.897c-0.933-1.135-1.603-1.984-2.007-2.543    c-0.684,0.063-1.353,0.109-2.006,0.139c-0.654,0.031-1.323,0.047-2.007,0.047c-1.307,0-2.45-0.016-3.43-0.047    c-0.98-0.031-2.015-0.077-3.103-0.139V43.828z"/>
	</g>
</g>
</svg>